<?xml version="1.0" standalone="no"?>
<!DOCTYPE svg PUBLIC "-//W3C//DTD SVG 1.1//EN" "http://www.w3.org/Graphics/SVG/1.1/DTD/svg11.dtd" >
<svg xmlns="http://www.w3.org/2000/svg" xmlns:xlink="http://www.w3.org/1999/xlink" version="1.1">
<metadata>
Created by FontForge 20201107 at Wed May  1 08:56:14 2024
 By 
Copyright (c) 2017 by Emil Bertell. All rights reserved.
</metadata>
<defs>
<font id="Praktika-Bold" horiz-adv-x="0" >
  <font-face 
    font-family="Praktika Bold"
    font-weight="700"
    font-stretch="normal"
    units-per-em="2048"
    panose-1="0 0 8 0 0 0 0 0 0 0"
    ascent="1638"
    descent="-410"
    x-height="956"
    cap-height="1372"
    bbox="-1458 -571.486 2429 2304"
    underline-thickness="102"
    underline-position="-204"
    unicode-range="U+0020-25CA"
  />
<missing-glyph horiz-adv-x="956" 
d="M784 1522v-1913h-606v1913h606zM637 1393h-315v-62h124v-71h-127v-64h318v64h-127v71h127v62zM510 1147h-191v-199h318v66h-127v133zM446 1081v-67h-63v67h63zM637 897h-318v-63h127v-72h-127v-64h191v136h127v63zM637 782h-64v-127h-254v-65h318v192zM637 549h-191v-109
h64v45h63v-90h-190v154h-64v-217h318v217zM637 217h-318v-217h318v217zM573 154v-91h-190v91h190zM637 -43h-318v-63h134l-134 -91v-63h318v63h-195l133 91h62v63z" />
    <glyph glyph-name=".notdef" horiz-adv-x="956" 
d="M784 1522v-1913h-606v1913h606zM637 1393h-315v-62h124v-71h-127v-64h318v64h-127v71h127v62zM510 1147h-191v-199h318v66h-127v133zM446 1081v-67h-63v67h63zM637 897h-318v-63h127v-72h-127v-64h191v136h127v63zM637 782h-64v-127h-254v-65h318v192zM637 549h-191v-109
h64v45h63v-90h-190v154h-64v-217h318v217zM637 217h-318v-217h318v217zM573 154v-91h-190v91h190zM637 -43h-318v-63h134l-134 -91v-63h318v63h-195l133 91h62v63z" />
    <glyph glyph-name=".null" 
 />
    <glyph glyph-name="nonmarkingreturn" horiz-adv-x="682" 
 />
    <glyph glyph-name="space" unicode=" " horiz-adv-x="432" 
 />
    <glyph glyph-name="exclam" unicode="!" horiz-adv-x="608" 
d="M170 387v985h264v-985h-264zM301 -31q-83 0 -121.5 40.5t-38.5 121.5q0 77 39 113.5t121 36.5q166 0 166 -150q0 -162 -166 -162z" />
    <glyph glyph-name="quotedbl" unicode="&#x22;" horiz-adv-x="890" 
d="M113 1448h262l-29 -621h-205zM487 1448h265l-31 -621h-203z" />
    <glyph glyph-name="numbersign" unicode="#" horiz-adv-x="1536" 
d="M1448 889h-184l-84 -414h196l-37 -225h-204l-52 -250h-245l51 250h-430l-51 -250h-246l51 250h-160l37 225h168l82 414h-180l37 225h190l51 258h248l-53 -258h430l51 258h248l-53 -258h174zM934 475l82 414h-428l-84 -414h430z" />
    <glyph glyph-name="dollar" unicode="$" horiz-adv-x="1241" 
d="M803 774q187 -47 275.5 -127.5t88.5 -230.5q0 -146 -101.5 -231t-289.5 -109v-166h-264v164q-174 18 -279.5 88t-175.5 190l181 117q58 -95 151.5 -141.5t249.5 -46.5q134 0 204 34.5t70 98.5q0 53 -44.5 87t-153.5 60l-273 64q-177 44 -261.5 135.5t-84.5 216.5
q0 143 102.5 231t313.5 105v131h264v-139q240 -43 391 -234l-161 -125q-69 84 -166 122t-242 38q-131 0 -188.5 -28.5t-57.5 -88.5q0 -54 50.5 -91.5t162.5 -63.5z" />
    <glyph glyph-name="percent" unicode="%" horiz-adv-x="1767" 
d="M449 748q-59 0 -110 8.5t-97 29.5t-78 53.5t-51 82t-19 112.5v82q0 63 19 112.5t51 81.5t78 53t97 29.5t110 8.5q76 0 137.5 -14.5t112 -46t78.5 -88.5t28 -136v-82q0 -79 -28 -136t-78.5 -89t-112 -46.5t-137.5 -14.5zM201 0l1046 1372h299l-1038 -1372h-307zM449 918
q70 -2 113.5 25.5t43.5 90.5v82q0 117 -157 117q-156 0 -156 -117v-82q0 -116 156 -116zM1305 -31q-75 0 -136 15t-111 46.5t-78 88.5t-28 135v84q0 78 28 135t78 88.5t111 46.5t136 15q76 0 137.5 -14.5t112 -46.5t78.5 -89t28 -135v-84q0 -78 -28 -135t-78.5 -89
t-112 -46.5t-137.5 -14.5zM1305 137q157 0 157 119v82q0 62 -43.5 89.5t-113.5 27.5q-69 0 -112.5 -27.5t-43.5 -89.5v-82q0 -119 156 -119z" />
    <glyph glyph-name="ampersand" unicode="&#x26;" horiz-adv-x="1298" 
d="M1292 805v-201h-116v-151q0 -136 -40 -231.5t-118 -150t-180 -78.5t-240 -24q-526 0 -526 400q0 143 63 232.5t184 115.5q-99 29 -156 114t-57 203q0 190 133 279.5t369 89.5q193 0 324 -65t227 -212l-162 -129q-72 85 -162.5 124.5t-213.5 39.5q-246 0 -246 -172
q0 -93 51.5 -138.5t167.5 -45.5h698zM932 471v133h-338q-124 0 -190 -46t-66 -157q0 -87 64 -137.5t202 -50.5q81 1 138.5 13t102 40.5t66 79t21.5 125.5z" />
    <glyph glyph-name="quotesingle" unicode="'" horiz-adv-x="514" 
d="M125 1448h264l-29 -621h-204z" />
    <glyph glyph-name="parenleft" unicode="(" horiz-adv-x="757" 
d="M729 -303q-340 0 -499.5 174t-159.5 528v562q0 344 159.5 514t499.5 170v-244q-194 0 -292.5 -106t-98.5 -334v-564q0 -235 99 -345.5t292 -110.5v-244z" />
    <glyph glyph-name="parenright" unicode=")" horiz-adv-x="757" 
d="M29 -303v244q193 0 292 110.5t99 345.5v564q0 228 -98.5 334t-292.5 106v244q340 0 499.5 -170t159.5 -514v-562q0 -354 -159.5 -528t-499.5 -174z" />
    <glyph glyph-name="asterisk" unicode="*" horiz-adv-x="976" 
d="M909 999l-305 -30l232 -287l-201 -119l-143 330l-144 -332l-203 119l234 287l-309 32l57 228l291 -125l-45 346h237l-47 -344l287 123z" />
    <glyph glyph-name="plus" unicode="+" horiz-adv-x="1153" 
d="M1059 745v-200h-375v-350h-217v350h-373v200h375v353h217v-353h373z" />
    <glyph glyph-name="comma" unicode="," horiz-adv-x="448" 
d="M215 305q212 0 215 -307q0 -414 -426 -360l19 159q251 -34 251 176v23q-33 -29 -86 -29q-66 0 -101.5 42.5t-35.5 125.5q0 84 43.5 127t120.5 43z" />
    <glyph glyph-name="hyphen" unicode="-" horiz-adv-x="931" 
d="M842 502h-752v205h752v-205z" />
    <glyph glyph-name="period" unicode="." horiz-adv-x="444" 
d="M219 -31q-158 0 -158 176q0 164 158 164q77 0 120.5 -41t43.5 -123q0 -86 -42 -131t-122 -45z" />
    <glyph glyph-name="slash" unicode="/" horiz-adv-x="729" 
d="M307 -293h-268l381 1888h270z" />
    <glyph glyph-name="zero" unicode="0" horiz-adv-x="1361" 
d="M678 -33q-292 0 -441 150t-149 428v284q0 276 149 426t441 150q295 0 445.5 -150t150.5 -426v-284q0 -278 -150.5 -428t-445.5 -150zM678 213q156 0 243 81.5t87 242.5v301q0 162 -86.5 241.5t-243.5 79.5q-154 0 -239 -80t-85 -241v-301q0 -161 85.5 -242.5t238.5 -81.5
z" />
    <glyph glyph-name="one" unicode="1" horiz-adv-x="720" 
d="M330 1372h221v-1372h-262v1126l-193 -86l-67 203z" />
    <glyph glyph-name="two" unicode="2" horiz-adv-x="1202" 
d="M504 246h659v-246h-1050v219l446 383q133 118 190.5 204t57.5 175q0 178 -225 178q-114 0 -205 -54t-141 -159l-195 123q159 334 569 334q103 0 185.5 -21t146.5 -66t98.5 -121.5t34.5 -180.5q0 -157 -80.5 -287.5t-269.5 -292.5z" />
    <glyph glyph-name="three" unicode="3" horiz-adv-x="1198" 
d="M866 719q126 -24 194 -103t68 -208q0 -205 -137.5 -322t-410.5 -117q-211 0 -340 85t-193 272l197 116q50 -125 128 -177t214 -52q140 0 208 54.5t68 150.5q0 101 -70 142.5t-206 41.5h-224v201h224q235 0 235 188q0 170 -223 170q-247 0 -344 -213l-193 121
q140 334 555 334q106 0 190.5 -20.5t149 -63.5t99.5 -115.5t35 -169.5q0 -118 -59.5 -201t-164.5 -114z" />
    <glyph glyph-name="four" unicode="4" horiz-adv-x="1208" 
d="M1176 459v-226h-160v-233h-262v233h-719l2 205l520 934h307l-528 -913h418v305h262v-305h160z" />
    <glyph glyph-name="five" unicode="5" horiz-adv-x="1173" 
d="M645 821q243 0 352 -101.5t109 -307.5q0 -213 -136.5 -328t-408.5 -115q-207 0 -330.5 80.5t-179.5 259.5l189 119q44 -118 117 -168.5t200 -50.5q283 0 283 201q0 113 -63 155.5t-206 42.5h-436v764h903v-246h-653v-305h260z" />
    <glyph glyph-name="six" unicode="6" horiz-adv-x="1282" 
d="M745 825q461 0 461 -391q0 -235 -146 -351t-405 -116q-286 0 -425.5 147t-139.5 427v286q0 281 144 429.5t436 148.5q195 0 318 -73t204 -240l-203 -140q-78 207 -315 207q-156 0 -238 -73t-82 -234q0 -113 2 -168q102 141 389 141zM664 213q136 0 208 55t72 158
q0 95 -67 142.5t-211 47.5q-132 0 -209.5 -49t-77.5 -139q0 -42 14.5 -78t46 -68t89 -50.5t135.5 -18.5z" />
    <glyph glyph-name="seven" unicode="7" horiz-adv-x="1067" 
d="M8 1372h1000l-2 -211l-494 -1161h-315l510 1126h-699v246z" />
    <glyph glyph-name="eight" unicode="8" horiz-adv-x="1339" 
d="M1008 707q249 -68 249 -340q0 -398 -587 -398q-588 0 -588 398q0 271 250 340q-221 68 -221 313q0 383 559 383t559 -383q0 -242 -221 -313zM670 1159q-161 0 -229 -44.5t-68 -137.5q0 -92 67.5 -137t229.5 -45t229.5 45t67.5 137q0 93 -68 137.5t-229 44.5zM670 213
q174 0 249.5 49.5t75.5 147.5q0 93 -74 138.5t-251 45.5t-252.5 -45.5t-75.5 -138.5q0 -98 77 -147.5t251 -49.5z" />
    <glyph glyph-name="nine" unicode="9" horiz-adv-x="1269" 
d="M618 1405q566 0 566 -582v-268q0 -287 -146 -437.5t-438 -150.5q-202 0 -331 72.5t-206 249.5l193 139q85 -215 330 -215q162 0 244.5 72.5t82.5 236.5v152q-108 -137 -389 -137q-454 0 -454 405q0 232 145.5 347.5t402.5 115.5zM608 745q131 0 208 51.5t77 147.5
q0 41 -15 77.5t-46.5 68.5t-88 50.5t-131.5 18.5q-138 0 -209 -54t-71 -157q0 -102 66 -152.5t210 -50.5z" />
    <glyph glyph-name="colon" unicode=":" horiz-adv-x="444" 
d="M219 614q-158 0 -158 177q0 163 158 163q78 0 121 -40.5t43 -122.5q0 -86 -42 -131.5t-122 -45.5zM219 6q-158 0 -158 176q0 164 158 164q77 0 120.5 -41t43.5 -123q0 -86 -42 -131t-122 -45z" />
    <glyph glyph-name="semicolon" unicode=";" horiz-adv-x="452" 
d="M209 621q-158 0 -158 176q0 164 158 164q77 0 120.5 -41t43.5 -123q0 -86 -42 -131t-122 -45zM219 297q212 0 215 -307q0 -415 -426 -361l19 160q252 -34 252 176v23q-33 -29 -86 -29q-66 0 -102 42.5t-36 125.5q0 84 43.5 127t120.5 43z" />
    <glyph glyph-name="less" unicode="&#x3c;" horiz-adv-x="1069" 
d="M971 950l-572 -311l572 -311l-105 -203l-766 422v182l766 422z" />
    <glyph glyph-name="equal" unicode="=" horiz-adv-x="1124" 
d="M84 748v200h956v-200h-956zM84 358v203h956v-203h-956z" />
    <glyph glyph-name="greater" unicode="&#x3e;" horiz-adv-x="1069" 
d="M203 1151l766 -422v-182l-766 -422l-105 203l572 311l-572 311z" />
    <glyph glyph-name="question" unicode="?" horiz-adv-x="1200" 
d="M371 414q-7 86 6.5 148t50 105t80.5 70.5t115 57.5q106 45 152 90.5t46 118.5q0 157 -227 157q-253 0 -354 -217l-193 119q65 167 211 253.5t352 86.5q109 0 194.5 -21t150 -65.5t98.5 -119t34 -175.5q0 -148 -75.5 -245.5t-227.5 -153.5q-49 -20 -78.5 -36t-54 -39.5
t-33.5 -56t-8 -77.5h-239zM492 68q-76 0 -76 61q0 57 76 57q81 0 81 -57q0 -61 -81 -61z" />
    <glyph glyph-name="at" unicode="@" horiz-adv-x="1755" 
d="M911 1352q178 0 318 -42t243.5 -128t158.5 -225.5t55 -325.5v-107q0 -98 -20.5 -173t-54 -121t-81.5 -75t-97 -40t-106 -11q-159 0 -231 111q-45 -52 -118 -83.5t-167 -31.5q-71 0 -129 17.5t-107 56t-76.5 108t-27.5 164.5v103q0 96 28 165.5t77 107.5t106.5 55.5
t126.5 17.5q182 0 260 -107v78h191v-422q0 -75 21 -112t69 -37q55 0 85.5 46.5t30.5 137.5v152q2 253 -139 385.5t-416 132.5q-291 0 -450.5 -140t-159.5 -399v-164q0 -540 637 -540q143 0 292 22.5t222 46.5l31 -198q-252 -74 -545 -74q-159 0 -289 26.5t-236 84
t-178.5 144.5t-111.5 211.5t-39 281.5v159q0 189 62 333t174 232.5t260.5 132.5t330.5 44zM868 293q119 0 172 84q-4 46 -4 69v189q-55 58 -168 61q-166 3 -166 -153v-90q0 -160 166 -160z" />
    <glyph glyph-name="A" unicode="A" horiz-adv-x="1273" 
d="M967 0l-76 264h-506l-78 -264h-274l430 1376h346l432 -1376h-274zM449 485h376l-188 648z" />
    <glyph glyph-name="B" unicode="B" horiz-adv-x="1298" 
d="M983 721q116 -27 182 -112.5t66 -219.5q0 -187 -105.5 -288t-341.5 -101h-641v1372h609q213 0 312 -83.5t99 -252.5q0 -121 -47 -201t-133 -114zM897 973q0 153 -170 153h-321v-329h317q83 0 128.5 45.5t45.5 130.5zM752 246q209 0 209 184q0 79 -46.5 122.5t-134.5 43.5
h-374v-350h346z" />
    <glyph glyph-name="C" unicode="C" horiz-adv-x="1265" 
d="M1225 373q-63 -210 -199 -308t-362 -98q-287 0 -431.5 150t-144.5 430v280q0 278 145.5 428t432.5 150q207 0 345 -88.5t208 -284.5l-222 -100q-44 118 -122.5 172.5t-200.5 54.5q-153 0 -236.5 -77.5t-83.5 -239.5v-310q0 -160 83 -239.5t235 -79.5q125 0 203.5 58
t123.5 190z" />
    <glyph glyph-name="D" unicode="D" horiz-adv-x="1378" 
d="M686 1372q304 0 455 -142t151 -417v-260q0 -553 -606 -553h-543v1372h543zM1024 551v270q0 152 -84.5 224.5t-253.5 72.5h-278v-866h280q336 0 336 299z" />
    <glyph glyph-name="E" unicode="E" horiz-adv-x="1167" 
d="M408 252h692v-252h-957v1372h953v-252h-688v-323h555v-211h-555v-334z" />
    <glyph glyph-name="F" unicode="F" horiz-adv-x="1116" 
d="M1069 1118h-661v-352h528v-217h-528v-549h-265v1372h926v-254z" />
    <glyph glyph-name="G" unicode="G" horiz-adv-x="1314" 
d="M567 735h658v-633q-86 -64 -227.5 -99.5t-319.5 -35.5q-297 0 -443.5 149.5t-146.5 430.5v270q0 285 145.5 436.5t436.5 151.5q197 0 327.5 -79.5t221.5 -240.5l-201 -139q-54 108 -138 160.5t-206 52.5q-153 0 -236.5 -77.5t-83.5 -239.5v-310q0 -163 88 -241t265 -78
q161 0 266 45v264h-406v213z" />
    <glyph glyph-name="H" unicode="H" horiz-adv-x="1380" 
d="M973 1372h264v-1372h-264v573h-565v-573h-265v1372h265v-555h565v555z" />
    <glyph glyph-name="I" unicode="I" horiz-adv-x="550" 
d="M143 0v1372h265v-1372h-265z" />
    <glyph glyph-name="J" unicode="J" horiz-adv-x="1064" 
d="M-20 172l161 178q49 -69 115 -103t164 -34q260 0 260 313v846h266v-842q0 -561 -512 -561q-143 0 -255.5 46t-198.5 157z" />
    <glyph glyph-name="K" unicode="K" horiz-adv-x="1275" 
d="M1237 1370l-426 -522l416 -848h-303l-293 627l-223 -273v-354h-265v1372h265v-670l507 668h322z" />
    <glyph glyph-name="L" unicode="L" horiz-adv-x="1060" 
d="M408 248h620v-248h-885v1372h265v-1124z" />
    <glyph glyph-name="M" unicode="M" horiz-adv-x="1671" 
d="M1251 1372h279v-1372h-248l6 891l-362 -739h-187l-356 733l6 -885h-246v1372h279l412 -856z" />
    <glyph glyph-name="N" unicode="N" horiz-adv-x="1347" 
d="M961 1372h245v-1372h-252l-571 915l6 -915h-246v1372h254l570 -915z" />
    <glyph glyph-name="O" unicode="O" horiz-adv-x="1392" 
d="M694 -33q-300 0 -453 150.5t-153 429.5v280q0 278 153 428t453 150q302 0 456.5 -150t154.5 -428v-280q0 -279 -154.5 -429.5t-456.5 -150.5zM694 213q163 0 253.5 82.5t90.5 243.5v297q0 163 -90 243t-254 80q-162 0 -251 -80t-89 -243v-297q0 -161 90 -243.5t250 -82.5
z" />
    <glyph glyph-name="P" unicode="P" horiz-adv-x="1204" 
d="M676 1372q252 0 366.5 -105t114.5 -358q0 -243 -120.5 -358t-360.5 -115h-270v-436h-263v1372h533zM670 668q107 0 164 60.5t57 182.5q0 119 -55 167t-166 48h-264v-458h264z" />
    <glyph glyph-name="Q" unicode="Q" horiz-adv-x="1386" 
d="M1305 547q0 -362 -252 -500l184 -147l-152 -146l-268 219q-59 -6 -123 -6q-300 0 -453 150.5t-153 429.5v280q0 278 153 428t453 150q302 0 456.5 -150t154.5 -428v-280zM354 539q0 -161 90 -243.5t250 -82.5q163 0 253.5 82.5t90.5 243.5v297q0 163 -90 243t-254 80
q-162 0 -251 -80t-89 -243v-297z" />
    <glyph glyph-name="R" unicode="R" horiz-adv-x="1236" 
d="M903 0l-229 438h-273v-438h-262v1372h563q244 0 356.5 -105.5t112.5 -357.5q0 -327 -227 -426l252 -483h-293zM401 1126v-456h277q112 0 170.5 60.5t58.5 182.5q0 119 -55.5 166t-169.5 47h-281z" />
    <glyph glyph-name="S" unicode="S" horiz-adv-x="1222" 
d="M625 -33q-153 0 -265.5 37t-184 100.5t-128.5 163.5l184 144q61 -101 154 -151t240 -50q124 0 197 41t73 119q0 67 -45.5 108.5t-149.5 69.5l-264 65q-344 98 -344 406q0 176 131.5 280.5t382.5 104.5q181 0 316.5 -63.5t236.5 -208.5l-174 -148q-70 94 -159.5 136
t-215.5 42q-252 0 -252 -143q0 -67 47 -110t162 -76l213 -54q92 -23 157.5 -53.5t117.5 -77t78 -114.5t26 -158q0 -204 -142.5 -307t-391.5 -103z" />
    <glyph glyph-name="T" unicode="T" horiz-adv-x="1132" 
d="M1090 1372v-246h-392v-1126h-264v1126h-391v246h1047z" />
    <glyph glyph-name="U" unicode="U" horiz-adv-x="1312" 
d="M662 -33q-275 0 -414 149.5t-139 430.5l2 825h264v-840q0 -319 287 -319q133 0 205.5 78t72.5 241v840h266v-825q0 -281 -136.5 -430.5t-407.5 -149.5z" />
    <glyph glyph-name="V" unicode="V" horiz-adv-x="1302" 
d="M991 1372h281l-461 -1376h-326l-454 1376h280l336 -1108z" />
    <glyph glyph-name="W" unicode="W" horiz-adv-x="1947" 
d="M1612 1372h280l-372 -1376h-301l-248 981l-264 -981h-299l-353 1376h281l223 -1030l260 1022h305l252 -1024z" />
    <glyph glyph-name="X" unicode="X" horiz-adv-x="1277" 
d="M1253 0h-295l-331 524l-316 -524h-286l432 688l-430 684h297l323 -534l318 534h286l-434 -694z" />
    <glyph glyph-name="Y" unicode="Y" horiz-adv-x="1261" 
d="M1235 1372l-465 -864v-508h-266v494l-477 878h286l322 -633l313 633h287z" />
    <glyph glyph-name="Z" unicode="Z" horiz-adv-x="1138" 
d="M412 246h684v-246h-1022v221l667 905h-694v246h1030l-2 -221z" />
    <glyph glyph-name="bracketleft" unicode="[" horiz-adv-x="776" 
d="M748 1391h-355v-1467h355v-221h-621v1907h621v-219z" />
    <glyph glyph-name="backslash" unicode="\" horiz-adv-x="729" 
d="M422 -293l-383 1888h270l381 -1888h-268z" />
    <glyph glyph-name="bracketright" unicode="]" horiz-adv-x="776" 
d="M29 1610h620v-1907h-620v221h354v1467h-354v219z" />
    <glyph glyph-name="asciicircum" unicode="^" horiz-adv-x="1228" 
 />
    <glyph glyph-name="underscore" unicode="_" horiz-adv-x="987" 
d="M926 -242h-863v205h863v-205z" />
    <glyph glyph-name="a" unicode="a" horiz-adv-x="1067" 
d="M522 989q99 0 174.5 -17.5t138 -58.5t95.5 -116t33 -181v-616h-226v106q-124 -139 -358 -139q-307 0 -307 299q0 147 87 220t269 73h277v25q0 102 -59.5 147t-170.5 45q-84 0 -144.5 -26.5t-119.5 -83.5l-131 165q151 158 442 158zM449 170q89 0 159.5 30.5t96.5 94.5v90
h-252q-66 0 -102 -23.5t-36 -80.5q0 -54 34.5 -82.5t99.5 -28.5z" />
    <glyph glyph-name="b" unicode="b" horiz-adv-x="1228" 
d="M735 989q410 0 410 -414v-192q0 -109 -32 -190.5t-91 -130t-136.5 -72t-174.5 -23.5q-254 0 -353 150v-117h-225v1522h262v-668q110 135 340 135zM883 401v160q0 49 -13 87t-34.5 61.5t-52 39t-62.5 21.5t-68 6q-226 0 -258 -176v-278q49 -140 250 -140q238 0 238 219z
" />
    <glyph glyph-name="c" unicode="c" horiz-adv-x="1089" 
d="M1008 229q-53 -136 -165.5 -199t-287.5 -63q-78 0 -144.5 13t-127.5 44.5t-103.5 80t-68 123t-25.5 169.5v162q0 95 25 169.5t68.5 123t106 80t132.5 44.5t153 13q161 0 266.5 -56t170.5 -190l-197 -104q-71 137 -231 137q-230 0 -230 -213v-168q0 -213 232 -213
q166 0 237 146z" />
    <glyph glyph-name="d" unicode="d" horiz-adv-x="1236" 
d="M842 1522h262v-1522h-213l-4 145q-109 -178 -379 -178q-94 0 -168.5 21.5t-132.5 68t-89.5 126.5t-31.5 190v202q0 112 34.5 194.5t95.5 129t136 68.5t166 22q223 0 324 -135v668zM582 182q87 0 157.5 35.5t102.5 110.5v311q-28 72 -98.5 104.5t-155.5 32.5
q-240 0 -240 -219v-158q0 -61 19.5 -105t54 -67.5t74 -34t86.5 -10.5z" />
    <glyph glyph-name="e" unicode="e" horiz-adv-x="1085" 
d="M1012 569v-174h-666q3 -116 62 -164.5t163 -48.5q98 0 166 23.5t117 81.5l158 -144q-74 -92 -184.5 -134t-268.5 -42q-102 0 -185 22.5t-149 70.5t-102.5 130.5t-36.5 194.5v184q0 92 25 165t68 120t104 78t128 44t144 13q78 0 143.5 -12.5t125 -43t100 -77.5t64.5 -120
t24 -167zM553 776q-207 0 -207 -196v-33h408v33q0 196 -201 196z" />
    <glyph glyph-name="f" unicode="f" horiz-adv-x="874" 
d="M637 1331q-85 0 -133.5 -48.5t-48.5 -168.5v-158h336v-200h-336v-756h-260v756h-127v200h127v154q0 104 22 183t59 127.5t91.5 78.5t112.5 41.5t130 11.5q231 0 369 -98l-102 -190q-109 67 -240 67z" />
    <glyph glyph-name="g" unicode="g" horiz-adv-x="1138" 
d="M788 956h244v-942q0 -104 -25 -182t-67 -126t-105.5 -78t-131.5 -41t-154 -11q-294 0 -438 141l98 183q52 -56 129.5 -86.5t163.5 -30.5q46 0 83 5t73.5 20t60.5 39t38.5 63.5t14.5 93.5v117q-108 -127 -305 -127q-83 0 -150.5 20.5t-122.5 64.5t-85.5 123.5t-30.5 188.5
v187q0 112 32.5 194t90 128t125.5 67.5t149 21.5q226 0 313 -147v114zM553 203q82 0 142.5 35t76.5 108v291q-33 139 -219 139q-96 0 -156.5 -48t-60.5 -159v-155q0 -112 61 -161.5t156 -49.5z" />
    <glyph glyph-name="h" unicode="h" horiz-adv-x="1181" 
d="M727 989q69 0 125.5 -16t105.5 -53t76 -105.5t27 -165.5v-649h-262v584q0 174 -176 174q-139 0 -228 -103v-655h-262v1522h242v-664q131 131 352 131z" />
    <glyph glyph-name="i" unicode="i" horiz-adv-x="538" 
d="M268 1137q-76 0 -117.5 41.5t-41.5 119.5q0 76 42 117t117 41q77 0 119.5 -41t42.5 -117q0 -78 -42.5 -119.5t-119.5 -41.5zM139 0v956h262v-956h-262z" />
    <glyph glyph-name="j" unicode="j" horiz-adv-x="581" 
d="M285 1137q-76 0 -119 42t-43 119q0 76 43 117t119 41q77 0 119 -41t42 -117q0 -78 -42 -119.5t-119 -41.5zM-59 -446l-33 221q135 6 195.5 60t60.5 192v929h258v-909q0 -114 -25.5 -200t-67.5 -139.5t-106 -88t-131 -48.5t-151 -17z" />
    <glyph glyph-name="k" unicode="k" horiz-adv-x="1105" 
d="M772 0l-215 442l-166 -166v-276h-262v1513h262v-915l361 358h315l-317 -319l329 -637h-307z" />
    <glyph glyph-name="l" unicode="l" horiz-adv-x="526" 
d="M133 0v1522h262v-1522h-262z" />
    <glyph glyph-name="m" unicode="m" horiz-adv-x="1843" 
d="M1386 989q55 0 101.5 -9.5t91 -33.5t75.5 -62t49.5 -99t18.5 -140v-645h-262v580q0 178 -178 178q-140 0 -219 -103v-10v-645h-262v580q0 178 -176 178q-140 0 -224 -109v-649h-262v956h242v-108q130 141 346 141q221 0 297 -151q117 151 362 151z" />
    <glyph glyph-name="n" unicode="n" horiz-adv-x="1185" 
d="M733 989q54 0 100.5 -9.5t90.5 -33.5t75 -61.5t49.5 -97.5t18.5 -138v-649h-262v584q0 174 -176 174q-136 0 -228 -103v-655h-262v956h242v-98q127 131 352 131z" />
    <glyph glyph-name="o" unicode="o" horiz-adv-x="1163" 
d="M582 -33q-82 0 -153 13t-135.5 44.5t-109.5 80t-71.5 123t-26.5 169.5v162q0 95 26.5 169.5t71.5 123t109.5 80t135.5 44.5t153 13q104 0 189.5 -22t156 -70t110 -134t39.5 -204v-162q0 -118 -39.5 -204t-110 -134t-156 -70t-189.5 -22zM582 186q45 0 84.5 10.5t74 33
t54.5 65.5t20 102v162q0 60 -20 103t-54.5 65.5t-73.5 32.5t-85 10t-85.5 -10t-74 -32.5t-54.5 -65.5t-20 -103v-162q0 -59 20 -102t54.5 -65.5t74 -33t85.5 -10.5z" />
    <glyph glyph-name="p" unicode="p" horiz-adv-x="1224" 
d="M731 989q410 0 410 -414v-192q0 -214 -118.5 -315t-322.5 -101t-309 105v-463h-262v1347h238v-118q108 151 364 151zM877 401v160q0 61 -19 104.5t-52.5 66.5t-72.5 33.5t-86 10.5q-63 0 -113 -14.5t-90.5 -55.5t-52.5 -106v-283q51 -135 248 -135q238 0 238 219z" />
    <glyph glyph-name="q" unicode="q" horiz-adv-x="1228" 
d="M879 956h221v-1347h-262v477q-110 -119 -330 -119q-95 0 -170 21.5t-134 68t-90.5 126.5t-31.5 190v202q0 112 34.5 194.5t96 129t137 68.5t166.5 22q261 0 358 -176zM578 182q91 0 161 36.5t99 113.5v289q-17 57 -59 93t-91.5 49t-109.5 13q-47 0 -86 -10.5t-73.5 -35
t-54.5 -70.5t-20 -111v-141q0 -64 20 -110t54.5 -70t74 -35t85.5 -11z" />
    <glyph glyph-name="r" unicode="r" horiz-adv-x="866" 
d="M657 989q123 0 217 -69l-122 -215q-67 53 -152 53q-66 0 -118 -35.5t-81 -101.5v-621h-262v956h244v-120q43 73 114.5 113t159.5 40z" />
    <glyph glyph-name="s" unicode="s" horiz-adv-x="989" 
d="M475 -33q-303 0 -432 187l127 143q41 -63 122 -98t181 -35q54 0 95.5 9t70.5 33t29 62q0 75 -111 99l-207 43q-270 73 -270 286q0 144 108.5 218.5t298.5 74.5q297 0 426 -182l-137 -131q-89 119 -274 119q-77 0 -128.5 -23t-51.5 -70q0 -41 30 -63t88 -35l199 -39
q129 -32 199.5 -100.5t70.5 -192.5q0 -66 -22.5 -118.5t-61.5 -87t-94.5 -57.5t-118.5 -32.5t-137 -9.5z" />
    <glyph glyph-name="t" unicode="t" horiz-adv-x="976" 
d="M877 254l86 -197q-142 -90 -375 -90q-93 0 -161 18.5t-122 63.5t-82 126.5t-28 199.5v377h-121v204h121v230h260v-230h432v-204h-432v-355q0 -211 182 -211q124 0 240 68z" />
    <glyph glyph-name="u" unicode="u" horiz-adv-x="1183" 
d="M793 956h262v-956h-242v98q-131 -131 -346 -131q-69 0 -125.5 16t-105.5 53t-76 105.5t-27 165.5v649h262v-583q0 -174 176 -174q136 0 222 100v657z" />
    <glyph glyph-name="v" unicode="v" horiz-adv-x="1101" 
d="M782 956h310l-408 -956h-291l-381 956h307l226 -733z" />
    <glyph glyph-name="w" unicode="w" horiz-adv-x="1691" 
d="M1354 956h307l-326 -956h-321l-180 666l-205 -666h-299l-299 956h307l147 -710l205 710h303l199 -712z" />
    <glyph glyph-name="x" unicode="x" horiz-adv-x="1067" 
d="M1024 0h-305l-187 369l-192 -369h-305l317 479l-309 477h309l183 -354l182 354h299l-301 -473z" />
    <glyph glyph-name="y" unicode="y" horiz-adv-x="1128" 
d="M805 956h307l-580 -1347h-270l160 352l-406 995h310l237 -712z" />
    <glyph glyph-name="z" unicode="z" horiz-adv-x="929" 
d="M420 201h469v-201h-813v188l452 568h-462v200h796v-190z" />
    <glyph glyph-name="braceleft" unicode="{" horiz-adv-x="755" 
d="M473 -123q133 0 215 29l35 -213q-137 -43 -291 -43q-86 0 -151 18.5t-100 44.5t-56 62.5t-27 65t-6 59.5q0 68 24 131.5t58 111.5t68 91.5t58 86.5t24 80q0 26 -9.5 45t-36 35.5t-80.5 24t-135 6.5v217q81 -1 135 6.5t80.5 24t36 35.5t9.5 45q0 37 -24 80.5t-58 87
t-68 91.5t-58 112t-24 132q0 30 6 58.5t27 65t56 63t100 45t151 18.5q154 0 291 -43l-35 -213q-93 29 -215 29q-129 0 -129 -84q0 -35 25 -77.5t60.5 -84.5t71 -87t60.5 -99t25 -107q0 -162 -197 -206q197 -41 197 -205q0 -53 -25 -108t-60.5 -99.5t-71 -86.5t-60.5 -84.5
t-25 -78.5q0 -82 129 -82z" />
    <glyph glyph-name="bar" unicode="|" horiz-adv-x="550" 
d="M143 -262v1900h265v-1900h-265z" />
    <glyph glyph-name="braceright" unicode="}" horiz-adv-x="755" 
d="M436 840q0 -26 9.5 -44.5t35.5 -35.5t80 -24.5t135 -6.5v-217q-81 1 -135 -6.5t-80 -24.5t-35.5 -35.5t-9.5 -44.5q0 -37 24 -80t58 -86.5t68 -91.5t58 -111.5t24 -131.5q0 -31 -6 -59.5t-27 -65t-56 -62.5t-100 -44.5t-151 -18.5q-154 0 -291 43l35 213q82 -29 215 -29
q129 0 129 82q0 36 -25 78.5t-60.5 84.5t-71 86.5t-60.5 99.5t-25 108q0 164 197 205q-197 44 -197 206q0 53 25 107t60.5 99t71 87t60.5 84.5t25 77.5q0 84 -129 84q-122 0 -215 -29l-35 213q137 43 291 43q86 0 151 -18.5t100 -45t56 -63t27 -65t6 -58.5q0 -68 -24 -132
t-58 -112t-68 -91.5t-58 -87t-24 -80.5z" />
    <glyph glyph-name="exclamdown" unicode="&#xa1;" horiz-adv-x="608" 
d="M301 993q166 0 166 -159q0 -76 -42.5 -114t-123.5 -38q-160 0 -160 152q0 80 38.5 119.5t121.5 39.5zM170 575h264v-966h-264v966z" />
    <glyph glyph-name="cent" unicode="&#xa2;" horiz-adv-x="1095" 
d="M590 399q80 0 152 37.5t110 108.5l170 -125q-117 -234 -459 -234q-78 0 -145.5 13.5t-129.5 45.5t-105.5 81.5t-69 125.5t-25.5 173v145q0 196 98 299.5t265 128.5v174h266v-174q212 -38 309 -217l-186 -119q-78 131 -252 131q-240 0 -240 -209v-176q0 -59 19.5 -101
t54.5 -65t76 -33t92 -10zM578 141v25h12v-25h-12z" />
    <glyph glyph-name="sterling" unicode="&#xa3;" horiz-adv-x="1226" 
d="M494 246h682v-246h-1115v231q121 5 189.5 56t68.5 155q0 62 -26 125h-244v191h154q-56 126 -56 248q0 84 29.5 155t87.5 126.5t153.5 86.5t219.5 31q197 0 322.5 -71.5t214.5 -227.5l-199 -125q-88 178 -311 178q-120 0 -179 -47t-59 -131q0 -87 70 -223h491v-191h-403
q16 -56 16 -112q0 -130 -106 -209z" />
    <glyph glyph-name="currency" unicode="&#xa4;" horiz-adv-x="1228" 
 />
    <glyph glyph-name="yen" unicode="&#xa5;" horiz-adv-x="1275" 
d="M1268 1372l-400 -602h234v-195h-326v-167h326v-195h-326v-213h-266v213h-326v195h326v167h-326v195h226l-400 602h281l352 -581l342 581h283z" />
    <glyph glyph-name="brokenbar" unicode="&#xa6;" horiz-adv-x="550" 
d="M143 772v866h265v-866h-265zM408 608v-870h-265v870h265z" />
    <glyph glyph-name="section" unicode="&#xa7;" horiz-adv-x="1269" 
d="M1049 229q104 -85 104 -233q0 -157 -124 -255.5t-359 -98.5q-208 0 -346 67t-232 219l164 125q71 -93 165 -136.5t224 -43.5q258 0 258 125q0 58 -50 95.5t-167 68.5l-254 59q-79 20 -136.5 46t-104.5 64.5t-71 94.5t-24 129q0 85 38.5 149t98.5 103q-118 87 -118 252
q0 154 127 250t376 96q191 0 325 -67t231 -216l-164 -127q-75 91 -167.5 133.5t-221.5 42.5q-256 0 -256 -118q0 -59 52 -98t171 -72l266 -60q79 -20 136.5 -45.5t104.5 -64t71 -95t24 -129.5q0 -87 -39.5 -153t-101.5 -107zM537 406l303 -76q5 -2 15 -5.5t15 -5.5
q86 55 86 132q0 66 -46.5 108.5t-159.5 79.5l-314 76l-18 6q-88 -47 -88 -127q0 -66 46.5 -108.5t160.5 -79.5z" />
    <glyph glyph-name="copyright" unicode="&#xa9;" horiz-adv-x="1472" 
d="M733 -33q-313 0 -476 153.5t-163 442.5v246q0 289 163 442.5t476 153.5q316 0 480.5 -153.5t164.5 -442.5v-246q0 -289 -164.5 -442.5t-480.5 -153.5zM733 76q245 0 383.5 116t138.5 347v295q0 236 -137 348t-385 112q-245 0 -380.5 -112t-135.5 -348v-295
q0 -231 137 -347t379 -116zM1102 467q-93 -215 -361 -215q-78 0 -142 18t-118 57t-84 109.5t-30 167.5v182q0 97 30 167.5t85 110t122 57.5t150 18q127 0 208.5 -46.5t135.5 -158.5l-129 -92q-64 114 -205 114q-197 0 -197 -155v-211q0 -85 56 -121.5t143 -36.5
q152 0 211 123z" />
    <glyph glyph-name="guillemotleft" unicode="&#xab;" horiz-adv-x="1189" 
d="M604 852l-346 -360l346 -355l-164 -108l-409 389v151l409 389zM1151 852l-346 -360l346 -355l-164 -108l-409 389v151l409 389z" />
    <glyph glyph-name="registered" unicode="&#xae;" horiz-adv-x="1368" 
d="M678 1450q289 0 443.5 -141.5t154.5 -393.5v-102q0 -248 -155.5 -391t-442.5 -143q-282 0 -434 143t-152 391v102q0 252 151.5 393.5t434.5 141.5zM1153 788v150q0 207 -125.5 305t-349.5 98q-106 0 -189.5 -23t-146 -70.5t-96 -126t-33.5 -183.5v-150
q0 -196 125.5 -298.5t339.5 -102.5q220 0 347.5 102.5t127.5 298.5zM989 973q0 -164 -121 -211l133 -234h-157l-123 213h-150v-213h-143v697h322q123 0 181 -50t58 -169v-33zM571 1094v-228h179q94 0 94 103v30q0 53 -23 74t-71 21h-179z" />
    <glyph glyph-name="degree" unicode="&#xb0;" horiz-adv-x="909" 
d="M455 662q-77 0 -140.5 16t-116.5 50.5t-82.5 97t-29.5 147.5v119q0 86 29.5 148.5t82.5 97t116.5 50t140.5 15.5t140.5 -15.5t116 -50t82 -97t29.5 -148.5v-119q0 -85 -29.5 -147.5t-82 -97t-116 -50.5t-140.5 -16zM455 831q72 0 120 33.5t48 106.5v125q0 73 -48 105
t-120 32t-120 -32t-48 -105v-125q0 -73 48 -106.5t120 -33.5z" />
    <glyph glyph-name="plusminus" unicode="&#xb1;" horiz-adv-x="1228" 
 />
    <glyph glyph-name="paragraph" unicode="&#xb6;" horiz-adv-x="1191" 
d="M545 1372h495v-1622h-262v758l-233 2q-226 0 -331 99.5t-105 330.5q0 236 104.5 334t331.5 98z" />
    <glyph glyph-name="periodcentered" unicode="&#xb7;" horiz-adv-x="444" 
d="M219 514q-158 0 -158 176q0 164 158 164q77 0 120.5 -41t43.5 -123q0 -86 -42 -131t-122 -45z" />
    <glyph glyph-name="guillemotright" unicode="&#xbb;" horiz-adv-x="1189" 
d="M612 569v-151l-409 -389l-164 108l346 355l-346 360l164 106zM750 958l409 -389v-151l-409 -389l-164 108l346 355l-346 360z" />
    <glyph glyph-name="questiondown" unicode="&#xbf;" horiz-adv-x="1159" 
d="M659 764q-61 0 -61 70q0 34 16.5 50.5t44.5 16.5q29 0 46.5 -16.5t17.5 -50.5q0 -70 -64 -70zM782 545q6 -66 -3 -118t-27.5 -87.5t-54 -66.5t-72 -51.5t-93.5 -45.5q-105 -41 -151.5 -87t-46.5 -118q0 -76 54 -113.5t171 -37.5q120 0 212.5 53.5t143.5 161.5l191 -117
q-65 -168 -210 -255t-351 -87q-225 0 -352 92t-127 289q0 294 303 393q98 32 138 71.5t36 123.5h239z" />
    <glyph glyph-name="Agrave" unicode="&#xc0;" horiz-adv-x="1273" 
d="M770 1548l-119 -73l-303 337l187 123zM967 0l-76 264h-506l-78 -264h-274l430 1376h346l432 -1376h-274zM449 485h376l-188 648z" />
    <glyph glyph-name="Aacute" unicode="&#xc1;" horiz-adv-x="1273" 
d="M940 1812l-301 -337l-121 73l238 387zM967 0l-76 264h-506l-78 -264h-274l430 1376h346l432 -1376h-274zM449 485h376l-188 648z" />
    <glyph glyph-name="Acircumflex" unicode="&#xc2;" horiz-adv-x="1273" 
d="M641 1745l-213 -266l-125 63l236 383h198l238 -377l-127 -65zM967 0l-76 264h-506l-78 -264h-274l430 1376h346l432 -1376h-274zM449 485h376l-188 648z" />
    <glyph glyph-name="Atilde" unicode="&#xc3;" horiz-adv-x="1273" 
d="M287 1479q-14 207 42.5 306t164.5 99q37 0 69 -17t50.5 -36t50.5 -59q3 -4 10.5 -14.5t10.5 -15t9 -12.5t10 -11.5t10 -9t10.5 -7.5t11 -4t12.5 -2q32 0 46.5 48.5t4.5 137.5h176q14 -203 -45 -304t-166 -101q-30 0 -54.5 8t-46 27.5t-33 32t-32.5 40.5q-5 7 -13.5 18.5
t-13 16.5t-11.5 13.5t-11.5 12t-10.5 8t-11.5 6t-12.5 1.5q-32 0 -45.5 -47t-5.5 -135h-176zM967 0l-76 264h-506l-78 -264h-274l430 1376h346l432 -1376h-274zM449 485h376l-188 648z" />
    <glyph glyph-name="Adieresis" unicode="&#xc4;" horiz-adv-x="1273" 
d="M420 1526q-70 0 -107 43t-37 127q0 164 144 164q68 0 105.5 -41.5t37.5 -122.5q0 -83 -38 -126.5t-105 -43.5zM856 1526q-67 0 -104 43.5t-37 126.5q0 82 37 123t104 41q145 0 145 -164q0 -84 -37.5 -127t-107.5 -43zM967 0l-76 264h-506l-78 -264h-274l430 1376h346
l432 -1376h-274zM449 485h376l-188 648z" />
    <glyph glyph-name="Aring" unicode="&#xc5;" horiz-adv-x="1273" 
d="M637 1479q-311 0 -311 225v33q0 227 311 227t311 -227v-33q0 -225 -311 -225zM489 1733v-23q0 -94 148 -94q147 0 147 94v23q0 92 -147 92q-148 0 -148 -92zM967 0l-76 264h-506l-78 -264h-274l430 1376h346l432 -1376h-274zM449 485h376l-188 648z" />
    <glyph glyph-name="AE" unicode="&#xc6;" horiz-adv-x="1775" 
d="M1120 252h586v-252h-844l-10 328h-457l-135 -328h-278l585 1372h1137v-252h-617l13 -323h469v-211h-461zM487 551h357l-19 577h-98z" />
    <glyph glyph-name="Ccedilla" unicode="&#xc7;" horiz-adv-x="1265" 
d="M1225 373q-61 -205 -192 -303t-347 -103l-10 -47q99 -9 150 -49t51 -119q0 -91 -69 -132.5t-177 -41.5t-160 23l21 127q59 -19 112 -19q107 0 107 49q0 54 -179 62l23 153q-233 27 -350 174.5t-117 399.5v280q0 278 145.5 428t432.5 150q207 0 345 -88.5t208 -284.5
l-222 -100q-44 118 -122.5 172.5t-200.5 54.5q-153 0 -236.5 -77.5t-83.5 -239.5v-310q0 -160 83 -239.5t235 -79.5q125 0 203.5 58t123.5 190z" />
    <glyph glyph-name="Egrave" unicode="&#xc8;" horiz-adv-x="1167" 
d="M737 1548l-119 -73l-303 337l187 123zM408 252h692v-252h-957v1372h953v-252h-688v-323h555v-211h-555v-334z" />
    <glyph glyph-name="Eacute" unicode="&#xc9;" horiz-adv-x="1167" 
d="M907 1812l-301 -337l-121 73l238 387zM408 252h692v-252h-957v1372h953v-252h-688v-323h555v-211h-555v-334z" />
    <glyph glyph-name="Ecircumflex" unicode="&#xca;" horiz-adv-x="1167" 
d="M608 1745l-213 -266l-125 63l236 383h199l237 -377l-127 -65zM408 252h692v-252h-957v1372h953v-252h-688v-323h555v-211h-555v-334z" />
    <glyph glyph-name="Edieresis" unicode="&#xcb;" horiz-adv-x="1167" 
d="M387 1526q-70 0 -106.5 43t-36.5 127q0 164 143 164q68 0 105.5 -41.5t37.5 -122.5q0 -83 -38 -126.5t-105 -43.5zM823 1526q-67 0 -104 43.5t-37 126.5q0 82 37 123t104 41q70 0 108 -41t38 -123q0 -84 -38 -127t-108 -43zM408 252h692v-252h-957v1372h953v-252h-688
v-323h555v-211h-555v-334z" />
    <glyph glyph-name="Igrave" unicode="&#xcc;" horiz-adv-x="550" 
d="M-14 1812l186 123l236 -387l-119 -73zM143 0v1372h265v-1372h-265z" />
    <glyph glyph-name="Iacute" unicode="&#xcd;" horiz-adv-x="550" 
d="M578 1812l-302 -337l-120 73l237 387zM143 0v1372h265v-1372h-265z" />
    <glyph glyph-name="Icircumflex" unicode="&#xce;" horiz-adv-x="550" 
d="M375 1925l237 -377l-127 -65l-206 262l-213 -266l-125 63l235 383h199zM143 0v1372h265v-1372h-265z" />
    <glyph glyph-name="Idieresis" unicode="&#xcf;" horiz-adv-x="550" 
d="M57 1526q-70 0 -106.5 43t-36.5 127q0 164 143 164q68 0 106 -41.5t38 -122.5q0 -83 -38.5 -126.5t-105.5 -43.5zM494 1526q-67 0 -104.5 43.5t-37.5 126.5q0 82 37 123t105 41q145 0 145 -164q0 -84 -37.5 -127t-107.5 -43zM143 0v1372h265v-1372h-265z" />
    <glyph glyph-name="Eth" unicode="&#xd0;" horiz-adv-x="1384" 
d="M686 1372q304 0 455 -142t151 -417v-260q0 -553 -606 -553h-543v575h-88v205h88v592h543zM1024 551v270q0 152 -84.5 224.5t-253.5 72.5h-278v-338h346v-205h-346v-323h280q336 0 336 299z" />
    <glyph glyph-name="Ntilde" unicode="&#xd1;" horiz-adv-x="1347" 
d="M324 1479q-14 207 42.5 306t163.5 99q37 0 69 -17t50.5 -36t50.5 -59q3 -4 10.5 -14.5t10.5 -15t9 -12.5t10 -11.5t10 -9t10.5 -7.5t11 -4t12.5 -2q32 0 47 48.5t5 137.5h176q14 -203 -45 -304t-166 -101q-30 0 -54.5 8t-46 27.5t-33 32t-32.5 40.5q-5 7 -13.5 18.5
t-13 16.5t-11.5 13.5t-11.5 12t-10.5 8t-11.5 6t-12.5 1.5q-32 0 -45.5 -47t-5.5 -135h-176zM961 1372h245v-1372h-252l-571 915l6 -915h-246v1372h254l570 -915z" />
    <glyph glyph-name="Ograve" unicode="&#xd2;" horiz-adv-x="1392" 
d="M406 1812l186 123l235 -387l-118 -73zM694 -33q-300 0 -453 150.5t-153 429.5v280q0 278 153 428t453 150q302 0 456.5 -150t154.5 -428v-280q0 -279 -154.5 -429.5t-456.5 -150.5zM694 213q163 0 253.5 82.5t90.5 243.5v297q0 163 -90 243t-254 80q-162 0 -251 -80
t-89 -243v-297q0 -161 90 -243.5t250 -82.5z" />
    <glyph glyph-name="Oacute" unicode="&#xd3;" horiz-adv-x="1392" 
d="M997 1812l-301 -337l-121 73l238 387zM694 -33q-300 0 -453 150.5t-153 429.5v280q0 278 153 428t453 150q302 0 456.5 -150t154.5 -428v-280q0 -279 -154.5 -429.5t-456.5 -150.5zM694 213q163 0 253.5 82.5t90.5 243.5v297q0 163 -90 243t-254 80q-162 0 -251 -80
t-89 -243v-297q0 -161 90 -243.5t250 -82.5z" />
    <glyph glyph-name="Ocircumflex" unicode="&#xd4;" horiz-adv-x="1392" 
d="M698 1745l-213 -266l-125 63l236 383h199l237 -377l-127 -65zM694 1405q302 0 456.5 -150t154.5 -428v-280q0 -279 -154.5 -429.5t-456.5 -150.5q-300 0 -453 150.5t-153 429.5v280q0 278 153 428t453 150zM1038 539v297q0 163 -90 243t-254 80q-162 0 -251 -80t-89 -243
v-297q0 -161 90 -243.5t250 -82.5q163 0 253.5 82.5t90.5 243.5z" />
    <glyph glyph-name="Otilde" unicode="&#xd5;" horiz-adv-x="1392" 
d="M344 1479q-14 207 42.5 306t164.5 99q37 0 69 -17t50.5 -36t50.5 -59q3 -4 10.5 -14.5t10.5 -15t9 -12.5t10 -11.5t10 -9t10.5 -7.5t11 -4t12.5 -2q32 0 46.5 48.5t4.5 137.5h176q14 -203 -45 -304t-166 -101q-30 0 -54.5 8t-46 27.5t-33 32t-32.5 40.5q-5 7 -13.5 18.5
t-13 16.5t-11.5 13.5t-11.5 12t-10.5 8t-11.5 6t-12.5 1.5q-32 0 -45.5 -47t-5.5 -135h-176zM694 -33q-300 0 -453 150.5t-153 429.5v280q0 278 153 428t453 150q302 0 456.5 -150t154.5 -428v-280q0 -279 -154.5 -429.5t-456.5 -150.5zM694 213q163 0 253.5 82.5
t90.5 243.5v297q0 163 -90 243t-254 80q-162 0 -251 -80t-89 -243v-297q0 -161 90 -243.5t250 -82.5z" />
    <glyph glyph-name="Odieresis" unicode="&#xd6;" horiz-adv-x="1392" 
d="M477 1526q-70 0 -106.5 43t-36.5 127q0 164 143 164q68 0 106 -41.5t38 -122.5q0 -83 -38.5 -126.5t-105.5 -43.5zM913 1526q-67 0 -104 43.5t-37 126.5q0 82 37 123t104 41q70 0 108 -41t38 -123q0 -84 -38 -127t-108 -43zM694 -33q-300 0 -453 150.5t-153 429.5v280
q0 278 153 428t453 150q302 0 456.5 -150t154.5 -428v-280q0 -279 -154.5 -429.5t-456.5 -150.5zM694 213q163 0 253.5 82.5t90.5 243.5v297q0 163 -90 243t-254 80q-162 0 -251 -80t-89 -243v-297q0 -161 90 -243.5t250 -82.5z" />
    <glyph glyph-name="multiply" unicode="&#xd7;" horiz-adv-x="1132" 
d="M1018 930l-311 -289l311 -287l-144 -143l-317 293l-313 -291l-144 143l310 287l-310 285l144 141l313 -289l317 293z" />
    <glyph glyph-name="Oslash" unicode="&#xd8;" horiz-adv-x="1392" 
d="M1323 1300l-100 -135q82 -134 82 -338v-280q0 -279 -154.5 -429.5t-456.5 -150.5q-190 0 -327 64l-91 -119l-215 127l117 156q-90 140 -90 352v280q0 278 153 428t453 150q202 0 342 -70l72 95zM354 539q0 -44 11 -97l514 682q-71 35 -185 35q-162 0 -251 -80t-89 -243
v-297zM1038 836q0 42 -6 79l-506 -671q73 -31 168 -31q163 0 253.5 82.5t90.5 243.5v297z" />
    <glyph glyph-name="Ugrave" unicode="&#xd9;" horiz-adv-x="1312" 
d="M367 1812l186 123l235 -387l-118 -73zM662 -33q-275 0 -414 149.5t-139 430.5l2 825h264v-840q0 -319 287 -319q133 0 205.5 78t72.5 241v840h266v-825q0 -281 -136.5 -430.5t-407.5 -149.5z" />
    <glyph glyph-name="Uacute" unicode="&#xda;" horiz-adv-x="1312" 
d="M958 1812l-301 -337l-120 73l237 387zM662 -33q-275 0 -414 149.5t-139 430.5l2 825h264v-840q0 -319 287 -319q133 0 205.5 78t72.5 241v840h266v-825q0 -281 -136.5 -430.5t-407.5 -149.5z" />
    <glyph glyph-name="Ucircumflex" unicode="&#xdb;" horiz-adv-x="1312" 
d="M659 1745l-213 -266l-124 63l235 383h199l237 -377l-127 -65zM940 1372h266v-825q0 -281 -136.5 -430.5t-407.5 -149.5q-275 0 -414 149.5t-139 430.5l2 825h264v-840q0 -319 287 -319q133 0 205.5 78t72.5 241v840z" />
    <glyph glyph-name="Udieresis" unicode="&#xdc;" horiz-adv-x="1312" 
d="M438 1526q-70 0 -106.5 43t-36.5 127q0 164 143 164q68 0 106 -41.5t38 -122.5q0 -83 -38.5 -126.5t-105.5 -43.5zM874 1526q-67 0 -104 43.5t-37 126.5q0 82 37 123t104 41q70 0 108 -41t38 -123q0 -84 -38 -127t-108 -43zM662 -33q-275 0 -414 149.5t-139 430.5l2 825
h264v-840q0 -319 287 -319q133 0 205.5 78t72.5 241v840h266v-825q0 -281 -136.5 -430.5t-407.5 -149.5z" />
    <glyph glyph-name="Yacute" unicode="&#xdd;" horiz-adv-x="1261" 
d="M932 1812l-301 -337l-121 73l238 387zM1235 1372l-465 -864v-508h-266v494l-477 878h286l322 -633l313 633h287z" />
    <glyph glyph-name="Thorn" unicode="&#xde;" horiz-adv-x="1216" 
d="M686 1204q243 0 357 -106.5t114 -358.5q0 -244 -116.5 -360.5t-354.5 -118.5h-280v-260h-263v1372h263v-168h280zM680 500q211 0 211 245q0 118 -51.5 165.5t-159.5 47.5h-274v-458h274z" />
    <glyph glyph-name="germandbls" unicode="&#xdf;" horiz-adv-x="1202" 
d="M829 774q324 -33 324 -383q0 -95 -22 -168.5t-59 -119.5t-89.5 -75.5t-108 -41t-120.5 -11.5q-176 0 -281 43l14 226q75 -41 193 -41q205 0 205 223q0 115 -57 164t-181 49l-155 -2l2 221h88q89 0 146.5 66.5t57.5 187.5q0 116 -45 167.5t-135 51.5q-97 0 -151 -56
t-54 -202v-1073h-260v1040q0 101 15.5 180.5t45.5 135t70.5 94t94.5 61t112.5 32t130.5 9.5q79 0 141.5 -11t119 -39t93.5 -73.5t58.5 -118t21.5 -169.5q0 -148 -56.5 -239t-158.5 -128z" />
    <glyph glyph-name="agrave" unicode="&#xe0;" horiz-adv-x="1067" 
d="M655 1133l-118 -74l-304 338l187 123zM522 989q99 0 174.5 -17.5t138 -58.5t95.5 -116t33 -181v-616h-226v106q-124 -139 -358 -139q-307 0 -307 299q0 147 87 220t269 73h277v25q0 102 -59.5 147t-170.5 45q-84 0 -144.5 -26.5t-119.5 -83.5l-131 165q151 158 442 158z
M449 170q89 0 159.5 30.5t96.5 94.5v90h-252q-66 0 -102 -23.5t-36 -80.5q0 -54 34.5 -82.5t99.5 -28.5z" />
    <glyph glyph-name="aacute" unicode="&#xe1;" horiz-adv-x="1067" 
d="M825 1397l-301 -338l-121 74l238 387zM522 989q99 0 174.5 -17.5t138 -58.5t95.5 -116t33 -181v-616h-226v106q-124 -139 -358 -139q-307 0 -307 299q0 147 87 220t269 73h277v25q0 102 -59.5 147t-170.5 45q-84 0 -144.5 -26.5t-119.5 -83.5l-131 165q151 158 442 158z
M449 170q89 0 159.5 30.5t96.5 94.5v90h-252q-66 0 -102 -23.5t-36 -80.5q0 -54 34.5 -82.5t99.5 -28.5z" />
    <glyph glyph-name="acircumflex" unicode="&#xe2;" horiz-adv-x="1067" 
d="M526 1329l-213 -266l-125 63l236 383h199l237 -376l-127 -66zM522 989q99 0 174.5 -17.5t138 -58.5t95.5 -116t33 -181v-616h-226v106q-124 -139 -358 -139q-307 0 -307 299q0 147 87 220t269 73h277v25q0 102 -59.5 147t-170.5 45q-84 0 -144.5 -26.5t-119.5 -83.5
l-131 165q151 158 442 158zM449 170q89 0 159.5 30.5t96.5 94.5v90h-252q-66 0 -102 -23.5t-36 -80.5q0 -54 34.5 -82.5t99.5 -28.5z" />
    <glyph glyph-name="atilde" unicode="&#xe3;" horiz-adv-x="1067" 
d="M172 1063q-14 207 42.5 306t164.5 99q28 0 50.5 -7t45.5 -26.5t35 -33t39 -45.5q5 -7 17.5 -23t18 -22t15 -15t17.5 -12.5t18 -3.5q31 0 45 48.5t4 137.5h176q14 -203 -45 -304t-166 -101q-30 0 -53.5 7.5t-47 29t-31.5 30.5t-34 41q-6 8 -18.5 24t-18 22t-14.5 15
t-17 12t-18 3q-31 0 -43.5 -47.5t-5.5 -134.5h-176zM522 989q99 0 174.5 -17.5t138 -58.5t95.5 -116t33 -181v-616h-226v106q-124 -139 -358 -139q-307 0 -307 299q0 147 87 220t269 73h277v25q0 102 -59.5 147t-170.5 45q-84 0 -144.5 -26.5t-119.5 -83.5l-131 165
q151 158 442 158zM449 170q89 0 159.5 30.5t96.5 94.5v90h-252q-66 0 -102 -23.5t-36 -80.5q0 -54 34.5 -82.5t99.5 -28.5z" />
    <glyph glyph-name="adieresis" unicode="&#xe4;" horiz-adv-x="1067" 
d="M303 1114q-141 0 -141 170q0 162 141 162q69 0 107.5 -40.5t38.5 -121.5q0 -84 -38.5 -127t-107.5 -43zM735 1114q-141 0 -141 170q0 162 141 162q144 0 144 -162q0 -85 -37.5 -127.5t-106.5 -42.5zM522 989q99 0 174.5 -17.5t138 -58.5t95.5 -116t33 -181v-616h-226v106
q-124 -139 -358 -139q-307 0 -307 299q0 147 87 220t269 73h277v25q0 102 -59.5 147t-170.5 45q-84 0 -144.5 -26.5t-119.5 -83.5l-131 165q151 158 442 158zM449 170q89 0 159.5 30.5t96.5 94.5v90h-252q-66 0 -102 -23.5t-36 -80.5q0 -54 34.5 -82.5t99.5 -28.5z" />
    <glyph glyph-name="aring" unicode="&#xe5;" horiz-adv-x="1067" 
d="M524 1073q-149 0 -228 56t-79 165v41q0 110 79 167t228 57q147 0 226 -57t79 -167v-41q0 -109 -78.5 -165t-226.5 -56zM381 1335v-41q0 -39 35.5 -61.5t107.5 -22.5t107 22.5t35 61.5v41q0 84 -142 84q-143 0 -143 -84zM522 989q99 0 174.5 -17.5t138 -58.5t95.5 -116
t33 -181v-616h-226v106q-124 -139 -358 -139q-307 0 -307 299q0 147 87 220t269 73h277v25q0 102 -59.5 147t-170.5 45q-84 0 -144.5 -26.5t-119.5 -83.5l-131 165q151 158 442 158zM449 170q89 0 159.5 30.5t96.5 94.5v90h-252q-66 0 -102 -23.5t-36 -80.5
q0 -54 34.5 -82.5t99.5 -28.5z" />
    <glyph glyph-name="ae" unicode="&#xe6;" horiz-adv-x="1699" 
d="M1485 285l143 -150q-138 -168 -450 -168q-263 0 -373 168q-65 -83 -174 -125.5t-248 -42.5q-311 0 -311 299q0 287 352 287h281v31q0 192 -226 192q-85 0 -147 -26.5t-121 -83.5l-131 165q78 82 185.5 120t258.5 38q227 0 330 -125q125 125 344 125q69 0 128.5 -12.5
t115 -42.5t94.5 -76.5t62.5 -119.5t23.5 -167v-180h-655v-4q0 -205 231 -205q198 0 287 103zM1171 776q-90 0 -147 -44.5t-57 -145.5v-41h397v43q0 102 -54.5 145t-138.5 43zM463 170q78 0 144 26t98 78v109h-250q-140 0 -140 -100q0 -113 148 -113z" />
    <glyph glyph-name="ccedilla" unicode="&#xe7;" horiz-adv-x="1089" 
d="M582 182q166 0 237 146l189 -99q-49 -125 -147.5 -188t-250.5 -72l-10 -53q199 -22 199 -170q0 -88 -65.5 -127t-172.5 -39q-117 0 -164 21l17 123q53 -21 121 -21q98 0 98 47q0 27 -39.5 43t-132.5 23l26 153q-86 7 -156 33.5t-126.5 76t-87.5 130.5t-31 188v162
q0 95 25 169.5t68.5 123t106 80t132.5 44.5t153 13q161 0 266.5 -56t170.5 -190l-197 -104q-71 137 -231 137q-230 0 -230 -213v-168q0 -213 232 -213z" />
    <glyph glyph-name="egrave" unicode="&#xe8;" horiz-adv-x="1085" 
d="M684 1133l-119 -74l-303 338l187 123zM1012 569v-174h-666q3 -116 62 -164.5t163 -48.5q98 0 166 23.5t117 81.5l158 -144q-74 -92 -184.5 -134t-268.5 -42q-102 0 -185 22.5t-149 70.5t-102.5 130.5t-36.5 194.5v184q0 92 25 165t68 120t104 78t128 44t144 13
q78 0 143.5 -12.5t125 -43t100 -77.5t64.5 -120t24 -167zM553 776q-207 0 -207 -196v-33h408v33q0 196 -201 196z" />
    <glyph glyph-name="eacute" unicode="&#xe9;" horiz-adv-x="1085" 
d="M854 1397l-301 -338l-121 74l238 387zM1012 569v-174h-666q3 -116 62 -164.5t163 -48.5q98 0 166 23.5t117 81.5l158 -144q-74 -92 -184.5 -134t-268.5 -42q-102 0 -185 22.5t-149 70.5t-102.5 130.5t-36.5 194.5v184q0 92 25 165t68 120t104 78t128 44t144 13
q78 0 143.5 -12.5t125 -43t100 -77.5t64.5 -120t24 -167zM553 776q-207 0 -207 -196v-33h408v33q0 196 -201 196z" />
    <glyph glyph-name="ecircumflex" unicode="&#xea;" horiz-adv-x="1085" 
d="M555 1329l-213 -266l-125 63l236 383h198l238 -376l-127 -66zM1012 569v-174h-666q3 -116 62 -164.5t163 -48.5q98 0 166 23.5t117 81.5l158 -144q-74 -92 -184.5 -134t-268.5 -42q-102 0 -185 22.5t-149 70.5t-102.5 130.5t-36.5 194.5v184q0 92 25 165t68 120t104 78
t128 44t144 13q78 0 143.5 -12.5t125 -43t100 -77.5t64.5 -120t24 -167zM553 776q-207 0 -207 -196v-33h408v33q0 196 -201 196z" />
    <glyph glyph-name="edieresis" unicode="&#xeb;" horiz-adv-x="1085" 
d="M332 1114q-142 0 -142 170q0 162 142 162q69 0 107 -40.5t38 -121.5q0 -85 -38 -127.5t-107 -42.5zM764 1114q-141 0 -141 170q0 162 141 162q143 0 143 -162q0 -85 -37 -127.5t-106 -42.5zM1012 569v-174h-666q3 -116 62 -164.5t163 -48.5q98 0 166 23.5t117 81.5
l158 -144q-74 -92 -184.5 -134t-268.5 -42q-102 0 -185 22.5t-149 70.5t-102.5 130.5t-36.5 194.5v184q0 92 25 165t68 120t104 78t128 44t144 13q78 0 143.5 -12.5t125 -43t100 -77.5t64.5 -120t24 -167zM553 776q-207 0 -207 -196v-33h408v33q0 196 -201 196z" />
    <glyph glyph-name="igrave" unicode="&#xec;" horiz-adv-x="538" 
d="M-20 1397l186 123l235 -387l-118 -74zM139 0v956h262v-956h-262z" />
    <glyph glyph-name="iacute" unicode="&#xed;" horiz-adv-x="538" 
d="M571 1397l-301 -338l-120 74l237 387zM139 0v956h262v-956h-262z" />
    <glyph glyph-name="icircumflex" unicode="&#xee;" horiz-adv-x="538" 
d="M369 1509l237 -376l-127 -66l-207 262l-213 -266l-125 63l236 383h199zM139 0v956h262v-956h-262z" />
    <glyph glyph-name="idieresis" unicode="&#xef;" horiz-adv-x="538" 
d="M49 1114q-141 0 -141 170q0 162 141 162q69 0 107.5 -40.5t38.5 -121.5q0 -84 -38.5 -127t-107.5 -43zM481 1114q-141 0 -141 170q0 162 141 162q144 0 144 -162q0 -85 -37.5 -127.5t-106.5 -42.5zM139 0v956h262v-956h-262z" />
    <glyph glyph-name="eth" unicode="&#xf0;" horiz-adv-x="1273" 
d="M1219 1309l-166 -135q147 -166 147 -469v-158q0 -292 -145.5 -436t-444.5 -144q-263 0 -395.5 105.5t-132.5 326.5q0 197 116.5 287t358.5 90q285 0 379 -149q2 33 2 92q0 182 -86 291l-223 -181l-99 111l199 162q-179 84 -526 45v235q492 38 733 -112l184 149zM631 209
q82 0 139 15.5t86 43.5t41 59.5t12 71.5q0 168 -284 168q-155 0 -218 -40t-63 -128q0 -96 68 -143t219 -47z" />
    <glyph glyph-name="ntilde" unicode="&#xf1;" horiz-adv-x="1185" 
d="M258 1063q-14 207 42.5 306t164.5 99q28 0 50.5 -7t45.5 -26.5t35 -33t39 -45.5q5 -7 17.5 -23t18 -22t15 -15t17.5 -12.5t18 -3.5q31 0 45 48.5t4 137.5h176q14 -203 -45 -304t-166 -101q-30 0 -53.5 7.5t-47 29t-31.5 30.5t-34 41q-6 8 -18.5 24t-18 22t-14.5 15
t-17 12t-18 3q-31 0 -43.5 -47.5t-5.5 -134.5h-176zM733 989q54 0 100.5 -9.5t90.5 -33.5t75 -61.5t49.5 -97.5t18.5 -138v-649h-262v584q0 174 -176 174q-136 0 -228 -103v-655h-262v956h242v-98q127 131 352 131z" />
    <glyph glyph-name="ograve" unicode="&#xf2;" horiz-adv-x="1163" 
d="M291 1397l186 123l236 -387l-119 -74zM582 -33q-82 0 -153 13t-135.5 44.5t-109.5 80t-71.5 123t-26.5 169.5v162q0 95 26.5 169.5t71.5 123t109.5 80t135.5 44.5t153 13q104 0 189.5 -22t156 -70t110 -134t39.5 -204v-162q0 -118 -39.5 -204t-110 -134t-156 -70
t-189.5 -22zM582 186q45 0 84.5 10.5t74 33t54.5 65.5t20 102v162q0 60 -20 103t-54.5 65.5t-73.5 32.5t-85 10t-85.5 -10t-74 -32.5t-54.5 -65.5t-20 -103v-162q0 -59 20 -102t54.5 -65.5t74 -33t85.5 -10.5z" />
    <glyph glyph-name="oacute" unicode="&#xf3;" horiz-adv-x="1163" 
d="M883 1397l-301 -338l-121 74l237 387zM582 -33q-82 0 -153 13t-135.5 44.5t-109.5 80t-71.5 123t-26.5 169.5v162q0 95 26.5 169.5t71.5 123t109.5 80t135.5 44.5t153 13q104 0 189.5 -22t156 -70t110 -134t39.5 -204v-162q0 -118 -39.5 -204t-110 -134t-156 -70
t-189.5 -22zM582 186q45 0 84.5 10.5t74 33t54.5 65.5t20 102v162q0 60 -20 103t-54.5 65.5t-73.5 32.5t-85 10t-85.5 -10t-74 -32.5t-54.5 -65.5t-20 -103v-162q0 -59 20 -102t54.5 -65.5t74 -33t85.5 -10.5z" />
    <glyph glyph-name="ocircumflex" unicode="&#xf4;" horiz-adv-x="1163" 
d="M584 1329l-213 -266l-125 63l235 383h199l238 -376l-127 -66zM582 989q104 0 189.5 -22t156 -70t110 -134t39.5 -204v-162q0 -118 -39.5 -204t-110 -134t-156 -70t-189.5 -22q-82 0 -153 13t-135.5 44.5t-109.5 80t-71.5 123t-26.5 169.5v162q0 95 26.5 169.5t71.5 123
t109.5 80t135.5 44.5t153 13zM815 397v162q0 60 -20 103t-54.5 65.5t-73.5 32.5t-85 10t-85.5 -10t-74 -32.5t-54.5 -65.5t-20 -103v-162q0 -59 20 -102t54.5 -65.5t74 -33t85.5 -10.5q45 0 84.5 10.5t74 33t54.5 65.5t20 102z" />
    <glyph glyph-name="otilde" unicode="&#xf5;" horiz-adv-x="1163" 
d="M229 1063q-14 207 42.5 306t164.5 99q28 0 50.5 -7t45.5 -26.5t35 -33t39 -45.5q5 -7 17.5 -23t18 -22t15 -15t17.5 -12.5t18 -3.5q31 0 45 48.5t4 137.5h177q14 -203 -45 -304t-166 -101q-30 0 -53.5 7.5t-47 29t-31.5 30.5t-34 41q-6 8 -18.5 24t-18 22t-14.5 15
t-17 12t-18 3q-31 0 -43.5 -47.5t-5.5 -134.5h-177zM582 -33q-82 0 -153 13t-135.5 44.5t-109.5 80t-71.5 123t-26.5 169.5v162q0 95 26.5 169.5t71.5 123t109.5 80t135.5 44.5t153 13q104 0 189.5 -22t156 -70t110 -134t39.5 -204v-162q0 -118 -39.5 -204t-110 -134
t-156 -70t-189.5 -22zM582 186q45 0 84.5 10.5t74 33t54.5 65.5t20 102v162q0 60 -20 103t-54.5 65.5t-73.5 32.5t-85 10t-85.5 -10t-74 -32.5t-54.5 -65.5t-20 -103v-162q0 -59 20 -102t54.5 -65.5t74 -33t85.5 -10.5z" />
    <glyph glyph-name="odieresis" unicode="&#xf6;" horiz-adv-x="1163" 
d="M360 1114q-141 0 -141 170q0 162 141 162q69 0 107.5 -40.5t38.5 -121.5q0 -84 -38.5 -127t-107.5 -43zM793 1114q-142 0 -142 170q0 162 142 162q143 0 143 -162q0 -85 -37 -127.5t-106 -42.5zM582 -33q-82 0 -153 13t-135.5 44.5t-109.5 80t-71.5 123t-26.5 169.5v162
q0 95 26.5 169.5t71.5 123t109.5 80t135.5 44.5t153 13q104 0 189.5 -22t156 -70t110 -134t39.5 -204v-162q0 -118 -39.5 -204t-110 -134t-156 -70t-189.5 -22zM582 186q45 0 84.5 10.5t74 33t54.5 65.5t20 102v162q0 60 -20 103t-54.5 65.5t-73.5 32.5t-85 10t-85.5 -10
t-74 -32.5t-54.5 -65.5t-20 -103v-162q0 -59 20 -102t54.5 -65.5t74 -33t85.5 -10.5z" />
    <glyph glyph-name="divide" unicode="&#xf7;" horiz-adv-x="1124" 
d="M565 858q-153 0 -153 133q0 125 153 125q162 0 162 -125q0 -133 -162 -133zM84 545v200h956v-200h-956zM565 172q-153 0 -153 133q0 125 153 125q162 0 162 -125q0 -133 -162 -133z" />
    <glyph glyph-name="oslash" unicode="&#xf8;" horiz-adv-x="1161" 
d="M1126 885l-98 -101q51 -91 51 -225v-162q0 -118 -39.5 -204t-110 -134t-156 -70t-189.5 -22q-169 0 -287 56l-104 -109l-158 137l108 113q-55 96 -55 233v162q0 95 26.5 169.5t71.5 123t109.5 80t135.5 44.5t153 13q178 0 297 -61l90 94zM350 397v-18l357 369
q-54 22 -123 22q-46 0 -85.5 -10t-74 -32.5t-54.5 -65.5t-20 -103v-162zM817 559v4l-344 -358q52 -19 111 -19q45 0 84.5 10.5t74 33t54.5 65.5t20 102v162z" />
    <glyph glyph-name="ugrave" unicode="&#xf9;" horiz-adv-x="1183" 
d="M723 1133l-119 -74l-303 338l186 123zM793 956h262v-956h-242v98q-131 -131 -346 -131q-69 0 -125.5 16t-105.5 53t-76 105.5t-27 165.5v649h262v-583q0 -174 176 -174q136 0 222 100v657z" />
    <glyph glyph-name="uacute" unicode="&#xfa;" horiz-adv-x="1183" 
d="M893 1397l-301 -338l-121 74l238 387zM793 956h262v-956h-242v98q-131 -131 -346 -131q-69 0 -125.5 16t-105.5 53t-76 105.5t-27 165.5v649h262v-583q0 -174 176 -174q136 0 222 100v657z" />
    <glyph glyph-name="ucircumflex" unicode="&#xfb;" horiz-adv-x="1183" 
d="M594 1329l-213 -266l-125 63l236 383h198l238 -376l-127 -66zM793 956h262v-956h-242v98q-131 -131 -346 -131q-69 0 -125.5 16t-105.5 53t-76 105.5t-27 165.5v649h262v-583q0 -174 176 -174q136 0 222 100v657z" />
    <glyph glyph-name="udieresis" unicode="&#xfc;" horiz-adv-x="1183" 
d="M371 1114q-142 0 -142 170q0 162 142 162q69 0 107 -40.5t38 -121.5q0 -85 -38 -127.5t-107 -42.5zM803 1114q-141 0 -141 170q0 162 141 162q143 0 143 -162q0 -85 -37 -127.5t-106 -42.5zM793 956h262v-956h-242v98q-131 -131 -346 -131q-69 0 -125.5 16t-105.5 53
t-76 105.5t-27 165.5v649h262v-583q0 -174 176 -174q136 0 222 100v657z" />
    <glyph glyph-name="yacute" unicode="&#xfd;" horiz-adv-x="1128" 
d="M866 1397l-301 -338l-121 74l238 387zM805 956h307l-580 -1347h-270l160 352l-406 995h310l237 -712z" />
    <glyph glyph-name="thorn" unicode="&#xfe;" horiz-adv-x="1222" 
d="M725 989q412 0 412 -414v-192q0 -214 -117.5 -315t-319.5 -101q-204 0 -309 105v-463h-262v1913h248v-662q114 129 348 129zM877 401v160q0 59 -19 102.5t-52.5 67t-72 34.5t-84.5 11q-226 0 -258 -176v-283q51 -135 248 -135q48 0 88.5 10.5t75.5 34.5t54.5 68.5
t19.5 105.5z" />
    <glyph glyph-name="ydieresis" unicode="&#xff;" horiz-adv-x="1128" 
d="M344 1114q-141 0 -141 170q0 162 141 162q69 0 107 -40.5t38 -121.5q0 -85 -38 -127.5t-107 -42.5zM776 1114q-141 0 -141 170q0 162 141 162q144 0 144 -162q0 -85 -37.5 -127.5t-106.5 -42.5zM805 956h307l-580 -1347h-270l160 352l-406 995h310l237 -712z" />
    <glyph glyph-name="Amacron" unicode="&#x100;" horiz-adv-x="1273" 
d="M995 1804v-202h-714v202h714zM967 0l-76 264h-506l-78 -264h-274l430 1376h346l432 -1376h-274zM449 485h376l-188 648z" />
    <glyph glyph-name="amacron" unicode="&#x101;" horiz-adv-x="1067" 
d="M881 1389v-203h-715v203h715zM522 989q99 0 174.5 -17.5t138 -58.5t95.5 -116t33 -181v-616h-226v106q-124 -139 -358 -139q-307 0 -307 299q0 147 87 220t269 73h277v25q0 102 -59.5 147t-170.5 45q-84 0 -144.5 -26.5t-119.5 -83.5l-131 165q151 158 442 158zM449 170
q89 0 159.5 30.5t96.5 94.5v90h-252q-66 0 -102 -23.5t-36 -80.5q0 -54 34.5 -82.5t99.5 -28.5z" />
    <glyph glyph-name="Abreve" unicode="&#x102;" horiz-adv-x="1273" 
d="M641 1470q-179 0 -265 106.5t-81 307.5h213q-6 -235 133 -235q71 0 102 59t29 176h211q5 -202 -80 -308t-262 -106zM967 0l-76 264h-506l-78 -264h-274l430 1376h346l432 -1376h-274zM449 485h376l-188 648z" />
    <glyph glyph-name="abreve" unicode="&#x103;" horiz-adv-x="1067" 
d="M526 1055q-179 0 -265 106t-81 307h213q-6 -235 133 -235q71 0 102 59t29 176h211q9 -413 -342 -413zM522 989q99 0 174.5 -17.5t138 -58.5t95.5 -116t33 -181v-616h-226v106q-124 -139 -358 -139q-307 0 -307 299q0 147 87 220t269 73h277v25q0 102 -59.5 147t-170.5 45
q-84 0 -144.5 -26.5t-119.5 -83.5l-131 165q151 158 442 158zM449 170q89 0 159.5 30.5t96.5 94.5v90h-252q-66 0 -102 -23.5t-36 -80.5q0 -54 34.5 -82.5t99.5 -28.5z" />
    <glyph glyph-name="Aogonek" unicode="&#x104;" horiz-adv-x="1273" 
d="M1094 -260q67 0 112 20l11 -155q-77 -23 -183 -23t-155.5 39.5t-49.5 120.5q0 79 60.5 147t157.5 111h-80l-76 264h-506l-78 -264h-274l430 1376h346l432 -1376q-96 -33 -160.5 -91.5t-64.5 -115.5q0 -53 78 -53zM449 485h376l-188 648z" />
    <glyph glyph-name="aogonek" unicode="&#x105;" horiz-adv-x="1067" 
d="M963 0q-99 -39 -162.5 -94t-63.5 -111q0 -51 76 -51q61 0 115 18l10 -155q-77 -23 -182 -23q-205 0 -205 158q0 81 66.5 148t170.5 110h-51v106q-124 -139 -358 -139q-307 0 -307 299q0 147 87 220t269 73h277v25q0 102 -59.5 147t-170.5 45q-84 0 -144.5 -26.5
t-119.5 -83.5l-131 165q151 158 442 158q99 0 174.5 -17.5t138 -58.5t95.5 -116t33 -181v-616zM449 170q89 0 159.5 30.5t96.5 94.5v90h-252q-66 0 -102 -23.5t-36 -80.5q0 -54 34.5 -82.5t99.5 -28.5z" />
    <glyph glyph-name="Cacute" unicode="&#x106;" horiz-adv-x="1265" 
d="M948 1812l-301 -337l-121 73l238 387zM1225 373q-63 -210 -199 -308t-362 -98q-287 0 -431.5 150t-144.5 430v280q0 278 145.5 428t432.5 150q207 0 345 -88.5t208 -284.5l-222 -100q-44 118 -122.5 172.5t-200.5 54.5q-153 0 -236.5 -77.5t-83.5 -239.5v-310
q0 -160 83 -239.5t235 -79.5q125 0 203.5 58t123.5 190z" />
    <glyph glyph-name="cacute" unicode="&#x107;" horiz-adv-x="1089" 
d="M850 1397l-301 -338l-121 74l238 387zM1008 229q-53 -136 -165.5 -199t-287.5 -63q-78 0 -144.5 13t-127.5 44.5t-103.5 80t-68 123t-25.5 169.5v162q0 95 25 169.5t68.5 123t106 80t132.5 44.5t153 13q161 0 266.5 -56t170.5 -190l-197 -104q-71 137 -231 137
q-230 0 -230 -213v-168q0 -213 232 -213q166 0 237 146z" />
    <glyph glyph-name="Cdotaccent" unicode="&#x10a;" horiz-adv-x="1265" 
d="M645 1542q-141 0 -141 170q0 164 141 164q69 0 107.5 -41.5t38.5 -122.5q0 -84 -38.5 -127t-107.5 -43zM1225 373q-63 -210 -199 -308t-362 -98q-287 0 -431.5 150t-144.5 430v280q0 278 145.5 428t432.5 150q207 0 345 -88.5t208 -284.5l-222 -100q-44 118 -122.5 172.5
t-200.5 54.5q-153 0 -236.5 -77.5t-83.5 -239.5v-310q0 -160 83 -239.5t235 -79.5q125 0 203.5 58t123.5 190z" />
    <glyph glyph-name="cdotaccent" unicode="&#x10b;" horiz-adv-x="1089" 
d="M547 1124q-141 0 -141 170q0 162 141 162q69 0 107 -40.5t38 -121.5q0 -85 -38 -127.5t-107 -42.5zM1008 229q-53 -136 -165.5 -199t-287.5 -63q-78 0 -144.5 13t-127.5 44.5t-103.5 80t-68 123t-25.5 169.5v162q0 95 25 169.5t68.5 123t106 80t132.5 44.5t153 13
q161 0 266.5 -56t170.5 -190l-197 -104q-71 137 -231 137q-230 0 -230 -213v-168q0 -213 232 -213q166 0 237 146z" />
    <glyph glyph-name="Ccaron" unicode="&#x10c;" horiz-adv-x="1265" 
d="M745 1479h-198l-236 381l125 65l213 -268l207 262l127 -64zM999 461l226 -88q-63 -210 -199 -308t-362 -98q-287 0 -431.5 150t-144.5 430v280q0 278 145.5 428t432.5 150q207 0 345 -88.5t208 -284.5l-222 -100q-44 118 -122.5 172.5t-200.5 54.5q-153 0 -236.5 -77.5
t-83.5 -239.5v-310q0 -160 83 -239.5t235 -79.5q125 0 203.5 58t123.5 190z" />
    <glyph glyph-name="ccaron" unicode="&#x10d;" horiz-adv-x="1089" 
d="M647 1063h-198l-236 381l125 65l213 -268l207 262l127 -63zM582 182q166 0 237 146l189 -99q-53 -136 -165.5 -199t-287.5 -63q-78 0 -144.5 13t-127.5 44.5t-103.5 80t-68 123t-25.5 169.5v162q0 95 25 169.5t68.5 123t106 80t132.5 44.5t153 13q161 0 266.5 -56
t170.5 -190l-197 -104q-71 137 -231 137q-230 0 -230 -213v-168q0 -213 232 -213z" />
    <glyph glyph-name="Dcaron" unicode="&#x10e;" horiz-adv-x="1378" 
d="M791 1479h-199l-236 381l125 65l213 -268l207 262l127 -64zM686 1372q304 0 455 -142t151 -417v-260q0 -553 -606 -553h-543v1372h543zM1024 551v270q0 152 -84.5 224.5t-253.5 72.5h-278v-866h280q336 0 336 299z" />
    <glyph glyph-name="dcaron" unicode="&#x10f;" horiz-adv-x="1390" 
d="M1243 1524l223 -29l-98 -524l-145 14zM842 854v668h262v-1522h-213l-4 145q-109 -178 -379 -178q-94 0 -168.5 21.5t-132.5 68t-89.5 126.5t-31.5 190v202q0 112 34.5 194.5t95.5 129t136 68.5t166 22q223 0 324 -135zM582 182q87 0 157.5 35.5t102.5 110.5v311
q-28 72 -98.5 104.5t-155.5 32.5q-240 0 -240 -219v-158q0 -61 19.5 -105t54 -67.5t74 -34t86.5 -10.5z" />
    <glyph glyph-name="Dcroat" unicode="&#x110;" horiz-adv-x="1384" 
d="M686 1372q304 0 455 -142t151 -417v-260q0 -553 -606 -553h-543v575h-88v205h88v592h543zM1024 551v270q0 152 -84.5 224.5t-253.5 72.5h-278v-338h346v-205h-346v-323h280q336 0 336 299z" />
    <glyph glyph-name="dcroat" unicode="&#x111;" horiz-adv-x="1288" 
d="M1210 1372v-205h-106v-1167h-213l-4 145q-109 -178 -379 -178q-94 0 -168.5 21.5t-132.5 68t-89.5 126.5t-31.5 190v202q0 112 34.5 194.5t95.5 129t136 68.5t166 22q223 0 324 -135v313h-494v205h494v150h262v-150h106zM582 182q87 0 157.5 35.5t102.5 110.5v311
q-28 72 -98.5 104.5t-155.5 32.5q-240 0 -240 -219v-158q0 -61 19.5 -105t54 -67.5t74 -34t86.5 -10.5z" />
    <glyph glyph-name="Emacron" unicode="&#x112;" horiz-adv-x="1167" 
d="M963 1804v-202h-715v202h715zM408 252h692v-252h-957v1372h953v-252h-688v-323h555v-211h-555v-334z" />
    <glyph glyph-name="emacron" unicode="&#x113;" horiz-adv-x="1085" 
d="M909 1389v-203h-714v203h714zM1012 569v-174h-666q3 -116 62 -164.5t163 -48.5q98 0 166 23.5t117 81.5l158 -144q-74 -92 -184.5 -134t-268.5 -42q-102 0 -185 22.5t-149 70.5t-102.5 130.5t-36.5 194.5v184q0 92 25 165t68 120t104 78t128 44t144 13q78 0 143.5 -12.5
t125 -43t100 -77.5t64.5 -120t24 -167zM553 776q-207 0 -207 -196v-33h408v33q0 196 -201 196z" />
    <glyph glyph-name="Edotaccent" unicode="&#x116;" horiz-adv-x="1167" 
d="M604 1542q-141 0 -141 170q0 164 141 164q69 0 107.5 -41.5t38.5 -122.5q0 -84 -38.5 -127t-107.5 -43zM408 252h692v-252h-957v1372h953v-252h-688v-323h555v-211h-555v-334z" />
    <glyph glyph-name="edotaccent" unicode="&#x117;" horiz-adv-x="1085" 
d="M551 1124q-141 0 -141 170q0 162 141 162q69 0 107 -40.5t38 -121.5q0 -85 -38 -127.5t-107 -42.5zM1012 569v-174h-666q3 -116 62 -164.5t163 -48.5q98 0 166 23.5t117 81.5l158 -144q-74 -92 -184.5 -134t-268.5 -42q-102 0 -185 22.5t-149 70.5t-102.5 130.5
t-36.5 194.5v184q0 92 25 165t68 120t104 78t128 44t144 13q78 0 143.5 -12.5t125 -43t100 -77.5t64.5 -120t24 -167zM553 776q-207 0 -207 -196v-33h408v33q0 196 -201 196z" />
    <glyph glyph-name="Eogonek" unicode="&#x118;" horiz-adv-x="1167" 
d="M1100 0q-96 -33 -161 -91.5t-65 -115.5q0 -53 78 -53q68 0 113 20l10 -155q-77 -23 -182 -23q-106 0 -155.5 39.5t-49.5 120.5q0 79 60 147t157 111h-762v1372h953v-252h-688v-323h555v-211h-555v-334h692v-252z" />
    <glyph glyph-name="eogonek" unicode="&#x119;" horiz-adv-x="1085" 
d="M1012 569v-174h-666q3 -116 62 -164.5t163 -48.5q98 0 166 23.5t117 81.5l158 -144q-80 -102 -213 -143q-79 -39 -127.5 -87t-48.5 -97q0 -52 75 -52q58 0 115 19l10 -156q-73 -22 -182 -22q-205 0 -205 157q0 114 137 205h-14q-102 0 -185 22.5t-149 70.5t-102.5 130.5
t-36.5 194.5v184q0 92 25 165t68 120t104 78t128 44t144 13q78 0 143.5 -12.5t125 -43t100 -77.5t64.5 -120t24 -167zM553 776q-207 0 -207 -196v-33h408v33q0 196 -201 196z" />
    <glyph glyph-name="Ecaron" unicode="&#x11a;" horiz-adv-x="1167" 
d="M705 1479h-199l-236 381l125 65l213 -268l207 262l127 -64zM408 252h692v-252h-957v1372h953v-252h-688v-323h555v-211h-555v-334z" />
    <glyph glyph-name="ecaron" unicode="&#x11b;" horiz-adv-x="1085" 
d="M651 1063h-198l-236 381l125 65l213 -268l207 262l127 -63zM1012 569v-174h-666q3 -116 62 -164.5t163 -48.5q98 0 166 23.5t117 81.5l158 -144q-74 -92 -184.5 -134t-268.5 -42q-102 0 -185 22.5t-149 70.5t-102.5 130.5t-36.5 194.5v184q0 92 25 165t68 120t104 78
t128 44t144 13q78 0 143.5 -12.5t125 -43t100 -77.5t64.5 -120t24 -167zM553 776q-207 0 -207 -196v-33h408v33q0 196 -201 196z" />
    <glyph glyph-name="Gbreve" unicode="&#x11e;" horiz-adv-x="1314" 
d="M655 1470q-179 0 -265 106.5t-81 307.5h213q-6 -235 133 -235q71 0 102 59t29 176h211q5 -202 -80 -308t-262 -106zM567 735h658v-633q-86 -64 -227.5 -99.5t-319.5 -35.5q-297 0 -443.5 149.5t-146.5 430.5v270q0 285 145.5 436.5t436.5 151.5q197 0 327.5 -79.5
t221.5 -240.5l-201 -139q-54 108 -138 160.5t-206 52.5q-153 0 -236.5 -77.5t-83.5 -239.5v-310q0 -163 88 -241t265 -78q161 0 266 45v264h-406v213z" />
    <glyph glyph-name="gbreve" unicode="&#x11f;" horiz-adv-x="1138" 
d="M598 1055q-179 0 -265 106t-81 307h213q-6 -235 133 -235q71 0 102 59t29 176h211q9 -413 -342 -413zM788 956h244v-942q0 -104 -25 -182t-67 -126t-105.5 -78t-131.5 -41t-154 -11q-294 0 -438 141l98 183q52 -56 129.5 -86.5t163.5 -30.5q46 0 83 5t73.5 20t60.5 39
t38.5 63.5t14.5 93.5v117q-108 -127 -305 -127q-83 0 -150.5 20.5t-122.5 64.5t-85.5 123.5t-30.5 188.5v187q0 112 32.5 194t90 128t125.5 67.5t149 21.5q226 0 313 -147v114zM553 203q82 0 142.5 35t76.5 108v291q-33 139 -219 139q-96 0 -156.5 -48t-60.5 -159v-155
q0 -112 61 -161.5t156 -49.5z" />
    <glyph glyph-name="Gdotaccent" unicode="&#x120;" horiz-adv-x="1314" 
d="M651 1542q-141 0 -141 170q0 164 141 164q69 0 107.5 -41.5t38.5 -122.5q0 -84 -38.5 -127t-107.5 -43zM567 735h658v-633q-86 -64 -227.5 -99.5t-319.5 -35.5q-297 0 -443.5 149.5t-146.5 430.5v270q0 285 145.5 436.5t436.5 151.5q197 0 327.5 -79.5t221.5 -240.5
l-201 -139q-54 108 -138 160.5t-206 52.5q-153 0 -236.5 -77.5t-83.5 -239.5v-310q0 -163 88 -241t265 -78q161 0 266 45v264h-406v213z" />
    <glyph glyph-name="gdotaccent" unicode="&#x121;" horiz-adv-x="1138" 
d="M594 1124q-141 0 -141 170q0 162 141 162q69 0 107 -40.5t38 -121.5q0 -85 -38 -127.5t-107 -42.5zM788 956h244v-942q0 -104 -25 -182t-67 -126t-105.5 -78t-131.5 -41t-154 -11q-294 0 -438 141l98 183q52 -56 129.5 -86.5t163.5 -30.5q46 0 83 5t73.5 20t60.5 39
t38.5 63.5t14.5 93.5v117q-108 -127 -305 -127q-83 0 -150.5 20.5t-122.5 64.5t-85.5 123.5t-30.5 188.5v187q0 112 32.5 194t90 128t125.5 67.5t149 21.5q226 0 313 -147v114zM553 203q82 0 142.5 35t76.5 108v291q-33 139 -219 139q-96 0 -156.5 -48t-60.5 -159v-155
q0 -112 61 -161.5t156 -49.5z" />
    <glyph glyph-name="Gcommaaccent" unicode="&#x122;" horiz-adv-x="1314" 
d="M567 735h658v-633q-86 -64 -227.5 -99.5t-319.5 -35.5q-297 0 -443.5 149.5t-146.5 430.5v270q0 285 145.5 436.5t436.5 151.5q197 0 327.5 -79.5t221.5 -240.5l-201 -139q-54 108 -138 160.5t-206 52.5q-153 0 -236.5 -77.5t-83.5 -239.5v-310q0 -163 88 -241t265 -78
q161 0 266 45v264h-406v213zM647 -84q95 0 152 -56t57 -159q0 -138 -96.5 -206t-261.5 -62l-17 129q228 -20 228 133q0 16 -2 24q-27 -45 -95 -45q-53 0 -83.5 29.5t-30.5 81.5q0 60 37 95.5t112 35.5z" />
    <glyph glyph-name="gcommaaccent" unicode="&#x123;" horiz-adv-x="1138" 
d="M610 1073q-95 0 -152 56t-57 159q0 138 97 206t262 62l16 -129q-227 20 -227 -133q0 -16 2 -24q27 45 94 45q53 0 84 -29.5t31 -81.5q0 -60 -37.5 -95.5t-112.5 -35.5zM788 956h244v-942q0 -104 -25 -182t-67 -126t-105.5 -78t-131.5 -41t-154 -11q-294 0 -438 141
l98 183q52 -56 129.5 -86.5t163.5 -30.5q46 0 83 5t73.5 20t60.5 39t38.5 63.5t14.5 93.5v117q-108 -127 -305 -127q-83 0 -150.5 20.5t-122.5 64.5t-85.5 123.5t-30.5 188.5v187q0 112 32.5 194t90 128t125.5 67.5t149 21.5q226 0 313 -147v114zM553 203q82 0 142.5 35
t76.5 108v291q-33 139 -219 139q-96 0 -156.5 -48t-60.5 -159v-155q0 -112 61 -161.5t156 -49.5z" />
    <glyph glyph-name="Hbar" unicode="&#x126;" horiz-adv-x="1404" 
d="M1335 1118v-211h-90v-907h-266v457h-553v-457h-264v907h-90v211h90v254h264v-254h553v254h266v-254h90zM979 702v205h-553v-205h553z" />
    <glyph glyph-name="hbar" unicode="&#x127;" horiz-adv-x="1228" 
d="M727 989q69 0 125.5 -16t105.5 -53t76 -105.5t27 -165.5v-649h-262v584q0 174 -176 174q-139 0 -228 -103v-655h-262v1155h-86v205h86v162h242v-162h459v-205h-459v-297q131 131 352 131z" />
    <glyph glyph-name="Imacron" unicode="&#x12a;" horiz-adv-x="550" 
d="M633 1602h-715v202h715v-202zM143 0v1372h265v-1372h-265z" />
    <glyph glyph-name="imacron" unicode="&#x12b;" horiz-adv-x="538" 
d="M627 1186h-715v203h715v-203zM139 0v956h262v-956h-262z" />
    <glyph glyph-name="Iogonek" unicode="&#x12e;" horiz-adv-x="550" 
d="M287 -258q67 0 112 20l11 -155q-77 -23 -183 -23t-155 39.5t-49 120.5q0 77 59 145t154 111h-93v1372h265v-1360l26 -10q-96 -33 -160.5 -91.5t-64.5 -115.5q0 -53 78 -53z" />
    <glyph glyph-name="iogonek" unicode="&#x12f;" horiz-adv-x="538" 
d="M268 1124q-141 0 -141 170q0 162 141 162q69 0 107.5 -40.5t38.5 -121.5q0 -84 -38.5 -127t-107.5 -43zM139 0v956h262v-956q-98 -39 -161.5 -94t-63.5 -111q0 -51 76 -51q61 0 115 18l10 -155q-77 -23 -182 -23q-205 0 -205 158q0 81 66.5 148t170.5 110h-88z" />
    <glyph glyph-name="Idotaccent" unicode="&#x130;" horiz-adv-x="550" 
d="M274 1542q-141 0 -141 170q0 164 141 164q69 0 107.5 -41.5t38.5 -122.5q0 -84 -38.5 -127t-107.5 -43zM143 0v1372h265v-1372h-265z" />
    <glyph glyph-name="dotlessi" unicode="&#x131;" horiz-adv-x="538" 
d="M139 0v956h262v-956h-262z" />
    <glyph glyph-name="Kcommaaccent" unicode="&#x136;" horiz-adv-x="1275" 
d="M1237 1370l-426 -522l416 -848h-303l-293 627l-223 -273v-354h-265v1372h265v-670l507 668h322zM664 -84q95 0 151.5 -56t56.5 -159q0 -138 -96.5 -206t-261.5 -62l-16 129q227 -20 227 133q0 16 -2 24q-27 -45 -94 -45q-53 0 -84 29.5t-31 81.5q0 60 37.5 95.5
t112.5 35.5z" />
    <glyph glyph-name="kcommaaccent" unicode="&#x137;" horiz-adv-x="1105" 
d="M750 637l329 -637h-307l-215 442l-166 -166v-276h-262v1513h262v-915l361 358h315zM549 -84q95 0 152 -56t57 -159q0 -138 -97 -206t-262 -62l-16 129q227 -20 227 133q0 16 -2 24q-27 -45 -94 -45q-53 0 -84 29.5t-31 81.5q0 60 37.5 95.5t112.5 35.5z" />
    <glyph glyph-name="Lacute" unicode="&#x139;" horiz-adv-x="1060" 
d="M584 1812l-301 -337l-121 73l237 387zM408 248h620v-248h-885v1372h265v-1124z" />
    <glyph glyph-name="lacute" unicode="&#x13a;" horiz-adv-x="526" 
d="M565 1962l-301 -338l-121 74l238 387zM133 0v1522h262v-1522h-262z" />
    <glyph glyph-name="Lcommaaccent" unicode="&#x13b;" horiz-adv-x="1060" 
d="M408 248h620v-248h-885v1372h265v-1124zM528 -84q95 0 152 -56t57 -159q0 -138 -96.5 -206t-261.5 -62l-17 129q228 -20 228 133q0 16 -2 24q-27 -45 -94 -45q-53 0 -84 29.5t-31 81.5q0 60 37 95.5t112 35.5z" />
    <glyph glyph-name="lcommaaccent" unicode="&#x13c;" horiz-adv-x="526" 
d="M395 1522v-1522h-262v1522h262zM264 -84q95 0 152 -56t57 -159q0 -138 -96.5 -206t-261.5 -62l-17 129q228 -20 228 133q0 16 -2 24q-27 -45 -95 -45q-53 0 -83.5 29.5t-30.5 81.5q0 60 37 95.5t112 35.5z" />
    <glyph glyph-name="Lcaron" unicode="&#x13d;" horiz-adv-x="1067" 
d="M891 1348l-98 -525l-146 15l21 538zM408 248h620v-248h-885v1372h265v-1124z" />
    <glyph glyph-name="lcaron" unicode="&#x13e;" horiz-adv-x="641" 
d="M739 1495l-98 -524l-145 14l20 539zM133 0v1522h262v-1522h-262z" />
    <glyph glyph-name="Lslash" unicode="&#x141;" horiz-adv-x="1067" 
d="M408 248h620v-248h-885v475l-137 -76l-96 179l233 131v663h265v-514l260 146l98 -181l-358 -200v-375z" />
    <glyph glyph-name="lslash" unicode="&#x142;" horiz-adv-x="768" 
d="M821 895l-303 -170v-725h-262v580l-195 -109l-96 178l291 164v709h262v-561l205 114z" />
    <glyph glyph-name="Nacute" unicode="&#x143;" horiz-adv-x="1347" 
d="M977 1812l-301 -337l-121 73l238 387zM961 1372h245v-1372h-252l-571 915l6 -915h-246v1372h254l570 -915z" />
    <glyph glyph-name="nacute" unicode="&#x144;" horiz-adv-x="1185" 
d="M911 1397l-301 -338l-121 74l238 387zM733 989q54 0 100.5 -9.5t90.5 -33.5t75 -61.5t49.5 -97.5t18.5 -138v-649h-262v584q0 174 -176 174q-136 0 -228 -103v-655h-262v956h242v-98q127 131 352 131z" />
    <glyph glyph-name="Ncommaaccent" unicode="&#x145;" horiz-adv-x="1347" 
d="M961 1372h245v-1372h-252l-571 915l6 -915h-246v1372h254l570 -915zM670 -84q95 0 152 -56t57 -159q0 -138 -97 -206t-262 -62l-16 129q227 -20 227 133q0 16 -2 24q-27 -45 -94 -45q-53 0 -84 29.5t-31 81.5q0 60 37.5 95.5t112.5 35.5z" />
    <glyph glyph-name="ncommaaccent" unicode="&#x146;" horiz-adv-x="1185" 
d="M733 989q54 0 100.5 -9.5t90.5 -33.5t75 -61.5t49.5 -97.5t18.5 -138v-649h-262v584q0 174 -176 174q-136 0 -228 -103v-655h-262v956h242v-98q127 131 352 131zM588 -84q95 0 152 -56t57 -159q0 -138 -97 -206t-262 -62l-16 129q227 -20 227 133q0 16 -2 24
q-27 -45 -94 -45q-53 0 -84 29.5t-31 81.5q0 60 37.5 95.5t112.5 35.5z" />
    <glyph glyph-name="Ncaron" unicode="&#x147;" horiz-adv-x="1347" 
d="M774 1479h-199l-235 381l125 65l213 -268l207 262l127 -64zM961 1372h245v-1372h-252l-571 915l6 -915h-246v1372h254l570 -915z" />
    <glyph glyph-name="ncaron" unicode="&#x148;" horiz-adv-x="1185" 
d="M709 1063h-199l-236 381l125 65l213 -268l207 262l127 -63zM733 989q54 0 100.5 -9.5t90.5 -33.5t75 -61.5t49.5 -97.5t18.5 -138v-649h-262v584q0 174 -176 174q-136 0 -228 -103v-655h-262v956h242v-98q127 131 352 131z" />
    <glyph glyph-name="Eng" unicode="&#x14a;" horiz-adv-x="1347" 
d="M958 1372h248v-1274q0 -267 -110 -387.5t-336 -120.5q-225 0 -381 119l104 201q61 -51 118.5 -73.5t133.5 -22.5q100 0 155.5 44.5t70.5 139.5l-578 909l6 -907h-246v1372h254l568 -897z" />
    <glyph glyph-name="eng" unicode="&#x14b;" horiz-adv-x="1185" 
d="M733 989q54 0 100.5 -9.5t90.5 -33.5t75 -61.5t49.5 -97.5t18.5 -138v-588q0 -117 -27 -205.5t-71.5 -143t-112 -89t-138 -48.5t-159.5 -17l-33 221q146 6 212.5 61.5t66.5 198.5v545q0 174 -176 174q-136 0 -228 -103v-655h-262v956h242v-98q127 131 352 131z" />
    <glyph glyph-name="Omacron" unicode="&#x14c;" horiz-adv-x="1392" 
d="M1053 1602h-715v202h715v-202zM694 -33q-300 0 -453 150.5t-153 429.5v280q0 278 153 428t453 150q302 0 456.5 -150t154.5 -428v-280q0 -279 -154.5 -429.5t-456.5 -150.5zM694 213q163 0 253.5 82.5t90.5 243.5v297q0 163 -90 243t-254 80q-162 0 -251 -80t-89 -243
v-297q0 -161 90 -243.5t250 -82.5z" />
    <glyph glyph-name="omacron" unicode="&#x14d;" horiz-adv-x="1163" 
d="M938 1186h-715v203h715v-203zM582 -33q-82 0 -153 13t-135.5 44.5t-109.5 80t-71.5 123t-26.5 169.5v162q0 95 26.5 169.5t71.5 123t109.5 80t135.5 44.5t153 13q104 0 189.5 -22t156 -70t110 -134t39.5 -204v-162q0 -118 -39.5 -204t-110 -134t-156 -70t-189.5 -22z
M582 186q45 0 84.5 10.5t74 33t54.5 65.5t20 102v162q0 60 -20 103t-54.5 65.5t-73.5 32.5t-85 10t-85.5 -10t-74 -32.5t-54.5 -65.5t-20 -103v-162q0 -59 20 -102t54.5 -65.5t74 -33t85.5 -10.5z" />
    <glyph glyph-name="Ohungarumlaut" unicode="&#x150;" horiz-adv-x="1392" 
d="M795 1880l-256 -401l-117 49l162 446zM1208 1769l-348 -315l-98 74l270 391zM694 -33q-300 0 -453 150.5t-153 429.5v280q0 278 153 428t453 150q302 0 456.5 -150t154.5 -428v-280q0 -279 -154.5 -429.5t-456.5 -150.5zM694 213q163 0 253.5 82.5t90.5 243.5v297
q0 163 -90 243t-254 80q-162 0 -251 -80t-89 -243v-297q0 -161 90 -243.5t250 -82.5z" />
    <glyph glyph-name="ohungarumlaut" unicode="&#x151;" horiz-adv-x="1163" 
d="M680 1464l-256 -401l-117 49l162 447zM1094 1354l-349 -316l-98 74l271 391zM582 -33q-82 0 -153 13t-135.5 44.5t-109.5 80t-71.5 123t-26.5 169.5v162q0 95 26.5 169.5t71.5 123t109.5 80t135.5 44.5t153 13q104 0 189.5 -22t156 -70t110 -134t39.5 -204v-162
q0 -118 -39.5 -204t-110 -134t-156 -70t-189.5 -22zM582 186q45 0 84.5 10.5t74 33t54.5 65.5t20 102v162q0 60 -20 103t-54.5 65.5t-73.5 32.5t-85 10t-85.5 -10t-74 -32.5t-54.5 -65.5t-20 -103v-162q0 -59 20 -102t54.5 -65.5t74 -33t85.5 -10.5z" />
    <glyph glyph-name="OE" unicode="&#x152;" horiz-adv-x="2060" 
d="M1298 252h693v-252h-957v49q-134 -84 -336 -84q-304 0 -457 151t-153 431v280q0 279 153 428.5t457 149.5q202 0 336 -84v51h953v-252h-689v-323h555v-211h-555v-334zM698 211q157 0 246.5 83.5t89.5 244.5v297q0 163 -88.5 244t-247.5 81q-165 0 -254.5 -80.5
t-89.5 -244.5v-297q0 -162 90 -245t254 -83z" />
    <glyph glyph-name="oe" unicode="&#x153;" horiz-adv-x="1814" 
d="M1743 569v-174h-666q5 -213 226 -213q98 0 165.5 23.5t116.5 81.5l158 -144q-74 -92 -184.5 -134t-268.5 -42q-226 0 -348 105q-127 -105 -360 -105q-82 0 -153 13t-135.5 44.5t-109.5 80t-71.5 123t-26.5 169.5v162q0 95 26.5 169.5t71.5 123t109.5 80t135.5 44.5
t153 13q234 0 360 -104q120 104 344 104q78 0 143.5 -12.5t125 -43t100 -77.5t64.5 -120t24 -167zM1077 580v-33h408v33q0 196 -201 196q-207 0 -207 -196zM815 397v162q0 60 -20 103t-54.5 65.5t-73.5 32.5t-85 10t-85.5 -10t-74 -32.5t-54.5 -65.5t-20 -103v-162
q0 -59 20 -102t54.5 -65.5t74 -33t85.5 -10.5q45 0 84.5 10.5t74 33t54.5 65.5t20 102z" />
    <glyph glyph-name="Racute" unicode="&#x154;" horiz-adv-x="1236" 
d="M918 1812l-302 -337l-120 73l237 387zM903 0l-229 438h-273v-438h-262v1372h563q244 0 356.5 -105.5t112.5 -357.5q0 -327 -227 -426l252 -483h-293zM401 1126v-456h277q112 0 170.5 60.5t58.5 182.5q0 119 -55.5 166t-169.5 47h-281z" />
    <glyph glyph-name="racute" unicode="&#x155;" horiz-adv-x="866" 
d="M735 1397l-301 -338l-121 74l238 387zM657 989q123 0 217 -69l-122 -215q-67 53 -152 53q-66 0 -118 -35.5t-81 -101.5v-621h-262v956h244v-120q43 73 114.5 113t159.5 40z" />
    <glyph glyph-name="Rcommaaccent" unicode="&#x156;" horiz-adv-x="1236" 
d="M944 483l252 -483h-293l-229 438h-273v-438h-262v1372h563q244 0 356.5 -105.5t112.5 -357.5q0 -327 -227 -426zM401 1126v-456h277q112 0 170.5 60.5t58.5 182.5q0 119 -55.5 166t-169.5 47h-281zM610 -84q95 0 152 -56t57 -159q0 -138 -96.5 -206t-261.5 -62l-17 129
q228 -20 228 133q0 16 -2 24q-27 -45 -95 -45q-53 0 -83.5 29.5t-30.5 81.5q0 60 37 95.5t112 35.5z" />
    <glyph glyph-name="rcommaaccent" unicode="&#x157;" horiz-adv-x="866" 
d="M657 989q123 0 217 -69l-122 -215q-67 53 -152 53q-66 0 -118 -35.5t-81 -101.5v-621h-262v956h244v-120q43 73 114.5 113t159.5 40zM274 -84q95 0 152 -56t57 -159q0 -138 -96.5 -206t-261.5 -62l-16 129q227 -20 227 133q0 16 -2 24q-27 -45 -94 -45q-53 0 -84 29.5
t-31 81.5q0 60 37 95.5t112 35.5z" />
    <glyph glyph-name="Rcaron" unicode="&#x158;" horiz-adv-x="1236" 
d="M715 1479h-199l-235 381l125 65l212 -268l207 262l127 -64zM903 0l-229 438h-273v-438h-262v1372h563q244 0 356.5 -105.5t112.5 -357.5q0 -327 -227 -426l252 -483h-293zM401 1126v-456h277q112 0 170.5 60.5t58.5 182.5q0 119 -55.5 166t-169.5 47h-281z" />
    <glyph glyph-name="rcaron" unicode="&#x159;" horiz-adv-x="866" 
d="M532 1063h-198l-236 381l125 65l213 -268l207 262l127 -63zM657 989q123 0 217 -69l-122 -215q-67 53 -152 53q-66 0 -118 -35.5t-81 -101.5v-621h-262v956h244v-120q43 73 114.5 113t159.5 40z" />
    <glyph glyph-name="Sacute" unicode="&#x15a;" horiz-adv-x="1222" 
d="M909 1812l-301 -337l-121 73l238 387zM625 -33q-153 0 -265.5 37t-184 100.5t-128.5 163.5l184 144q61 -101 154 -151t240 -50q124 0 197 41t73 119q0 67 -45.5 108.5t-149.5 69.5l-264 65q-344 98 -344 406q0 176 131.5 280.5t382.5 104.5q181 0 316.5 -63.5
t236.5 -208.5l-174 -148q-70 94 -159.5 136t-215.5 42q-252 0 -252 -143q0 -67 47 -110t162 -76l213 -54q92 -23 157.5 -53.5t117.5 -77t78 -114.5t26 -158q0 -204 -142.5 -307t-391.5 -103z" />
    <glyph glyph-name="sacute" unicode="&#x15b;" horiz-adv-x="989" 
d="M797 1397l-301 -338l-121 74l237 387zM475 -33q-303 0 -432 187l127 143q41 -63 122 -98t181 -35q54 0 95.5 9t70.5 33t29 62q0 75 -111 99l-207 43q-270 73 -270 286q0 144 108.5 218.5t298.5 74.5q297 0 426 -182l-137 -131q-89 119 -274 119q-77 0 -128.5 -23
t-51.5 -70q0 -41 30 -63t88 -35l199 -39q129 -32 199.5 -100.5t70.5 -192.5q0 -66 -22.5 -118.5t-61.5 -87t-94.5 -57.5t-118.5 -32.5t-137 -9.5z" />
    <glyph glyph-name="Scedilla" unicode="&#x15e;" horiz-adv-x="1222" 
d="M780 780q92 -23 157.5 -53.5t117.5 -77t78 -114.5t26 -158q0 -197 -135 -300.5t-371 -109.5l-10 -47q99 -9 150 -49t51 -119q0 -91 -69 -132.5t-177 -41.5t-160 23l21 127q59 -19 112 -19q107 0 107 49q0 54 -178 62l22 151q-178 16 -288.5 89.5t-186.5 207.5l184 144
q61 -101 154 -151t240 -50q124 0 197 41t73 119q0 67 -45.5 108.5t-149.5 69.5l-264 65q-344 98 -344 406q0 176 131.5 280.5t382.5 104.5q181 0 316.5 -63.5t236.5 -208.5l-174 -148q-70 94 -159.5 136t-215.5 42q-252 0 -252 -143q0 -67 47 -110t162 -76z" />
    <glyph glyph-name="scedilla" unicode="&#x15f;" horiz-adv-x="989" 
d="M639 565q129 -32 199.5 -100.5t70.5 -192.5q0 -75 -28 -131.5t-78.5 -92t-115 -55t-144.5 -24.5l-11 -49q199 -22 199 -170q0 -88 -65 -127t-172 -39q-117 0 -164 21l16 123q52 -21 121 -21q98 0 98 47q0 27 -39.5 43t-132.5 23l25 149q-258 15 -375 185l127 143
q41 -63 122 -98t181 -35q54 0 95.5 9t70.5 33t29 62q0 75 -111 99l-207 43q-270 73 -270 286q0 144 108.5 218.5t298.5 74.5q297 0 426 -182l-137 -131q-89 119 -274 119q-77 0 -128.5 -23t-51.5 -70q0 -41 30 -63t88 -35z" />
    <glyph glyph-name="Scaron" unicode="&#x160;" horiz-adv-x="1222" 
d="M707 1479h-199l-236 381l125 65l213 -268l207 262l127 -64zM780 780q92 -23 157.5 -53.5t117.5 -77t78 -114.5t26 -158q0 -204 -142.5 -307t-391.5 -103q-153 0 -265.5 37t-184 100.5t-128.5 163.5l184 144q61 -101 154 -151t240 -50q124 0 197 41t73 119
q0 67 -45.5 108.5t-149.5 69.5l-264 65q-344 98 -344 406q0 176 131.5 280.5t382.5 104.5q181 0 316.5 -63.5t236.5 -208.5l-174 -148q-70 94 -159.5 136t-215.5 42q-252 0 -252 -143q0 -67 47 -110t162 -76z" />
    <glyph glyph-name="scaron" unicode="&#x161;" horiz-adv-x="989" 
d="M594 1063h-199l-235 381l125 65l213 -268l207 262l126 -63zM639 565q129 -32 199.5 -100.5t70.5 -192.5q0 -66 -22.5 -118.5t-61.5 -87t-94.5 -57.5t-118.5 -32.5t-137 -9.5q-303 0 -432 187l127 143q41 -63 122 -98t181 -35q54 0 95.5 9t70.5 33t29 62q0 75 -111 99
l-207 43q-270 73 -270 286q0 144 108.5 218.5t298.5 74.5q297 0 426 -182l-137 -131q-89 119 -274 119q-77 0 -128.5 -23t-51.5 -70q0 -41 30 -63t88 -35z" />
    <glyph glyph-name="uni0162" unicode="&#x162;" horiz-adv-x="1132" 
d="M698 0h-80l-16 -80q99 -9 150 -49t51 -119q0 -91 -69 -132.5t-177 -41.5t-160 23l21 127q59 -19 112 -19q107 0 107 49q0 54 -178 62l26 180h-51v1126h-391v246h1047v-246h-392v-1126z" />
    <glyph glyph-name="uni0163" unicode="&#x163;" horiz-adv-x="976" 
d="M586 -84q198 -22 198 -170q0 -88 -65 -127t-172 -39q-117 0 -164 21l16 123q53 -21 121 -21q98 0 98 47q0 27 -39.5 43t-132.5 23l27 159q-136 23 -207 115.5t-71 284.5v377h-121v204h121v230h260v-230h432v-204h-432v-355q0 -211 182 -211q124 0 240 68l86 -197
q-134 -87 -367 -90z" />
    <glyph glyph-name="Tcaron" unicode="&#x164;" horiz-adv-x="1132" 
d="M666 1479h-199l-236 381l125 65l213 -268l207 262l127 -64zM1090 1372v-246h-392v-1126h-264v1126h-391v246h1047z" />
    <glyph glyph-name="tcaron" unicode="&#x165;" horiz-adv-x="976" 
d="M840 1569l-99 -525l-145 15l20 538zM877 254l86 -197q-142 -90 -375 -90q-93 0 -161 18.5t-122 63.5t-82 126.5t-28 199.5v377h-121v204h121v230h260v-230h432v-204h-432v-355q0 -211 182 -211q124 0 240 68z" />
    <glyph glyph-name="Tbar" unicode="&#x166;" horiz-adv-x="1132" 
d="M1090 1126h-392v-333h299v-205h-299v-588h-264v588h-299v205h299v333h-391v246h1047v-246z" />
    <glyph glyph-name="tbar" unicode="&#x167;" horiz-adv-x="978" 
d="M889 250l76 -203q-144 -80 -377 -80q-93 0 -161 18.5t-122 63.5t-82 126.5t-28 199.5v41h-119v164h119v190h-121v186h121v230h260v-230h434v-186h-434v-190h409v-164h-409v-19q0 -117 50 -164t140 -47q126 0 244 64z" />
    <glyph glyph-name="Umacron" unicode="&#x16a;" horiz-adv-x="1312" 
d="M1014 1602h-715v202h715v-202zM662 -33q-275 0 -414 149.5t-139 430.5l2 825h264v-840q0 -319 287 -319q133 0 205.5 78t72.5 241v840h266v-825q0 -281 -136.5 -430.5t-407.5 -149.5z" />
    <glyph glyph-name="umacron" unicode="&#x16b;" horiz-adv-x="1183" 
d="M948 1389v-203h-715v203h715zM793 956h262v-956h-242v98q-131 -131 -346 -131q-69 0 -125.5 16t-105.5 53t-76 105.5t-27 165.5v649h262v-583q0 -174 176 -174q136 0 222 100v657z" />
    <glyph glyph-name="Uring" unicode="&#x16e;" horiz-adv-x="1312" 
d="M655 1479q-311 0 -311 225v33q0 227 311 227q312 0 312 -227v-33q0 -225 -312 -225zM655 1616q148 0 148 94v23q0 92 -148 92q-147 0 -147 -92v-23q0 -94 147 -94zM662 -33q-275 0 -414 149.5t-139 430.5l2 825h264v-840q0 -319 287 -319q133 0 205.5 78t72.5 241v840
h266v-825q0 -281 -136.5 -430.5t-407.5 -149.5z" />
    <glyph glyph-name="uring" unicode="&#x16f;" horiz-adv-x="1183" 
d="M592 1073q-149 0 -228 56t-79 165v41q0 110 79 167t228 57q147 0 226 -57t79 -167v-41q0 -109 -78.5 -165t-226.5 -56zM449 1335v-41q0 -39 35.5 -61.5t107.5 -22.5q141 0 141 84v41q0 84 -141 84q-143 0 -143 -84zM793 956h262v-956h-242v98q-131 -131 -346 -131
q-69 0 -125.5 16t-105.5 53t-76 105.5t-27 165.5v649h262v-583q0 -174 176 -174q136 0 222 100v657z" />
    <glyph glyph-name="Uhungarumlaut" unicode="&#x170;" horiz-adv-x="1312" 
d="M756 1880l-256 -401l-117 49l162 446zM1169 1769l-348 -315l-98 74l270 391zM662 -33q-275 0 -414 149.5t-139 430.5l2 825h264v-840q0 -319 287 -319q133 0 205.5 78t72.5 241v840h266v-825q0 -281 -136.5 -430.5t-407.5 -149.5z" />
    <glyph glyph-name="uhungarumlaut" unicode="&#x171;" horiz-adv-x="1183" 
d="M690 1464l-256 -401l-117 49l162 447zM756 1038l-99 74l271 391l176 -149zM793 299v657h262v-956h-242v98q-131 -131 -346 -131q-69 0 -125.5 16t-105.5 53t-76 105.5t-27 165.5v649h262v-583q0 -174 176 -174q136 0 222 100z" />
    <glyph glyph-name="Uogonek" unicode="&#x172;" horiz-adv-x="1312" 
d="M940 1372h266v-825q0 -225 -88 -366.5t-264 -190.5q-69 -35 -112.5 -82.5t-43.5 -93.5q0 -54 78 -54q66 0 113 21l10 -156q-73 -22 -182 -22q-106 0 -155.5 39.5t-49.5 119.5q0 115 125 205q-262 7 -395 156.5t-133 423.5l2 825h264v-840q0 -319 287 -319q133 0 205.5 78
t72.5 241v840z" />
    <glyph glyph-name="uogonek" unicode="&#x173;" horiz-adv-x="1183" 
d="M1036 0q-85 -38 -137.5 -88.5t-52.5 -101.5q0 -52 76 -52q57 0 114 19l11 -156q-73 -22 -183 -22q-205 0 -205 157q0 74 57 137.5t148 106.5h-51v98q-131 -131 -346 -131q-69 0 -125.5 16t-105.5 53t-76 105.5t-27 165.5v649h262v-583q0 -174 176 -174q136 0 222 100v657
h262v-936l16 -6l-16 -6v-8h-19z" />
    <glyph glyph-name="Wcircumflex" unicode="&#x174;" horiz-adv-x="1947" 
d="M979 1745l-213 -266l-125 63l236 383h198l238 -377l-127 -65zM1612 1372h280l-372 -1376h-301l-248 981l-264 -981h-299l-353 1376h281l223 -1030l260 1022h305l252 -1024z" />
    <glyph glyph-name="wcircumflex" unicode="&#x175;" horiz-adv-x="1691" 
d="M848 1329l-213 -266l-125 63l235 383h199l238 -376l-127 -66zM1354 956h307l-326 -956h-321l-180 666l-205 -666h-299l-299 956h307l147 -710l205 710h303l199 -712z" />
    <glyph glyph-name="Ycircumflex" unicode="&#x176;" horiz-adv-x="1261" 
d="M633 1745l-213 -266l-125 63l235 383h199l238 -377l-127 -65zM1235 1372l-465 -864v-508h-266v494l-477 878h286l322 -633l313 633h287z" />
    <glyph glyph-name="ycircumflex" unicode="&#x177;" horiz-adv-x="1128" 
d="M567 1329l-213 -266l-125 63l236 383h199l237 -376l-127 -66zM805 956h307l-580 -1347h-270l160 352l-406 995h310l237 -712z" />
    <glyph glyph-name="Ydieresis" unicode="&#x178;" horiz-adv-x="1261" 
d="M412 1526q-70 0 -107 43t-37 127q0 164 144 164q68 0 105.5 -41.5t37.5 -122.5q0 -83 -38 -126.5t-105 -43.5zM848 1526q-67 0 -104 43.5t-37 126.5q0 82 37 123t104 41q145 0 145 -164q0 -84 -37.5 -127t-107.5 -43zM1235 1372l-465 -864v-508h-266v494l-477 878h286
l322 -633l313 633h287z" />
    <glyph glyph-name="Zacute" unicode="&#x179;" horiz-adv-x="1138" 
d="M868 1812l-301 -337l-121 73l238 387zM412 246h684v-246h-1022v221l667 905h-694v246h1030l-2 -221z" />
    <glyph glyph-name="zacute" unicode="&#x17a;" horiz-adv-x="929" 
d="M766 1397l-301 -338l-121 74l238 387zM420 201h469v-201h-813v188l452 568h-462v200h796v-190z" />
    <glyph glyph-name="Zdotaccent" unicode="&#x17b;" horiz-adv-x="1138" 
d="M565 1542q-141 0 -141 170q0 164 141 164q69 0 107.5 -41.5t38.5 -122.5q0 -84 -38.5 -127t-107.5 -43zM412 246h684v-246h-1022v221l667 905h-694v246h1030l-2 -221z" />
    <glyph glyph-name="zdotaccent" unicode="&#x17c;" horiz-adv-x="929" 
d="M463 1124q-141 0 -141 170q0 162 141 162q69 0 107 -40.5t38 -121.5q0 -85 -38 -127.5t-107 -42.5zM420 201h469v-201h-813v188l452 568h-462v200h796v-190z" />
    <glyph glyph-name="Zcaron" unicode="&#x17d;" horiz-adv-x="1138" 
d="M666 1479h-199l-236 381l125 65l213 -268l207 262l127 -64zM412 246h684v-246h-1022v221l667 905h-694v246h1030l-2 -221z" />
    <glyph glyph-name="zcaron" unicode="&#x17e;" horiz-adv-x="929" 
d="M563 1063h-198l-236 381l125 65l213 -268l207 262l127 -63zM420 201h469v-201h-813v188l452 568h-462v200h796v-190z" />
    <glyph glyph-name="uni01CD" unicode="&#x1cd;" horiz-adv-x="1273" 
d="M737 1479h-198l-236 381l125 65l213 -268l207 262l127 -64zM967 0l-76 264h-506l-78 -264h-274l430 1376h346l432 -1376h-274zM449 485h376l-188 648z" />
    <glyph glyph-name="uni01CE" unicode="&#x1ce;" horiz-adv-x="1067" 
d="M623 1063h-199l-236 381l125 65l213 -268l207 262l127 -63zM522 989q99 0 174.5 -17.5t138 -58.5t95.5 -116t33 -181v-616h-226v106q-124 -139 -358 -139q-307 0 -307 299q0 147 87 220t269 73h277v25q0 102 -59.5 147t-170.5 45q-84 0 -144.5 -26.5t-119.5 -83.5
l-131 165q151 158 442 158zM449 170q89 0 159.5 30.5t96.5 94.5v90h-252q-66 0 -102 -23.5t-36 -80.5q0 -54 34.5 -82.5t99.5 -28.5z" />
    <glyph glyph-name="uni01CF" unicode="&#x1cf;" horiz-adv-x="550" 
d="M375 1479h-199l-235 381l125 65l213 -268l206 262l127 -64zM143 0v1372h265v-1372h-265z" />
    <glyph glyph-name="uni01D0" unicode="&#x1d0;" horiz-adv-x="538" 
d="M369 1063h-199l-236 381l125 65l213 -268l207 262l127 -63zM139 0v956h262v-956h-262z" />
    <glyph glyph-name="uni01D1" unicode="&#x1d1;" horiz-adv-x="1392" 
d="M795 1479h-199l-236 381l125 65l213 -268l207 262l127 -64zM694 1405q302 0 456.5 -150t154.5 -428v-280q0 -279 -154.5 -429.5t-456.5 -150.5q-300 0 -453 150.5t-153 429.5v280q0 278 153 428t453 150zM1038 539v297q0 163 -90 243t-254 80q-162 0 -251 -80t-89 -243
v-297q0 -161 90 -243.5t250 -82.5q163 0 253.5 82.5t90.5 243.5z" />
    <glyph glyph-name="uni01D2" unicode="&#x1d2;" horiz-adv-x="1163" 
d="M680 1063h-199l-235 381l125 65l213 -268l207 262l127 -63zM582 989q104 0 189.5 -22t156 -70t110 -134t39.5 -204v-162q0 -118 -39.5 -204t-110 -134t-156 -70t-189.5 -22q-82 0 -153 13t-135.5 44.5t-109.5 80t-71.5 123t-26.5 169.5v162q0 95 26.5 169.5t71.5 123
t109.5 80t135.5 44.5t153 13zM815 397v162q0 60 -20 103t-54.5 65.5t-73.5 32.5t-85 10t-85.5 -10t-74 -32.5t-54.5 -65.5t-20 -103v-162q0 -59 20 -102t54.5 -65.5t74 -33t85.5 -10.5q45 0 84.5 10.5t74 33t54.5 65.5t20 102z" />
    <glyph glyph-name="uni01D3" unicode="&#x1d3;" horiz-adv-x="1312" 
d="M756 1479h-199l-235 381l124 65l213 -268l207 262l127 -64zM940 1372h266v-825q0 -281 -136.5 -430.5t-407.5 -149.5q-275 0 -414 149.5t-139 430.5l2 825h264v-840q0 -319 287 -319q133 0 205.5 78t72.5 241v840z" />
    <glyph glyph-name="uni01D4" unicode="&#x1d4;" horiz-adv-x="1183" 
d="M690 1063h-198l-236 381l125 65l213 -268l207 262l127 -63zM793 956h262v-956h-242v98q-131 -131 -346 -131q-69 0 -125.5 16t-105.5 53t-76 105.5t-27 165.5v649h262v-583q0 -174 176 -174q136 0 222 100v657z" />
    <glyph glyph-name="uni01D5" unicode="&#x1d5;" horiz-adv-x="1312" 
d="M1008 1956h-715v203h715v-203zM438 1470q-70 0 -106.5 43t-36.5 127q0 164 143 164q68 0 106 -41.5t38 -122.5q0 -83 -38.5 -126.5t-105.5 -43.5zM874 1470q-67 0 -104 43.5t-37 126.5q0 82 37 123t104 41q70 0 108 -41t38 -123q0 -84 -38 -127t-108 -43zM662 -33
q-275 0 -414 149.5t-139 430.5l2 825h264v-840q0 -319 287 -319q133 0 205.5 78t72.5 241v840h266v-825q0 -281 -136.5 -430.5t-407.5 -149.5z" />
    <glyph glyph-name="uni01D6" unicode="&#x1d6;" horiz-adv-x="1183" 
d="M942 1696v-203h-715v203h715zM233 1219q0 161 142 161q145 0 145 -161q0 -85 -38 -127.5t-107 -42.5q-142 0 -142 170zM807 1380q143 0 143 -161q0 -85 -37 -127.5t-106 -42.5q-141 0 -141 170q0 161 141 161zM793 956h262v-956h-242v98q-131 -131 -346 -131
q-69 0 -125.5 16t-105.5 53t-76 105.5t-27 165.5v649h262v-583q0 -174 176 -174q136 0 222 100v657z" />
    <glyph glyph-name="uni01D7" unicode="&#x1d7;" horiz-adv-x="1312" 
d="M950 2171l-301 -338l-121 74l238 387zM438 1473q-143 0 -143 169q0 164 143 164q68 0 106 -41.5t38 -122.5q0 -83 -38 -126t-106 -43zM874 1473q-67 0 -104 43t-37 126q0 82 37 123t104 41q70 0 108 -41t38 -123q0 -84 -38 -126.5t-108 -42.5zM662 -33q-275 0 -414 149.5
t-139 430.5l2 825h264v-840q0 -319 287 -319q133 0 205.5 78t72.5 241v840h266v-825q0 -281 -136.5 -430.5t-407.5 -149.5z" />
    <glyph glyph-name="uni01D8" unicode="&#x1d8;" horiz-adv-x="1183" 
d="M887 1745l-301 -338l-121 74l237 387zM375 1047q-142 0 -142 170q0 161 142 161q145 0 145 -161q0 -85 -38 -127.5t-107 -42.5zM666 1217q0 161 141 161q143 0 143 -161q0 -85 -37 -127.5t-106 -42.5q-141 0 -141 170zM793 956h262v-956h-242v98q-131 -131 -346 -131
q-69 0 -125.5 16t-105.5 53t-76 105.5t-27 165.5v649h262v-583q0 -174 176 -174q136 0 222 100v657z" />
    <glyph glyph-name="uni01D9" unicode="&#x1d9;" horiz-adv-x="1312" 
d="M750 1858h-199l-236 380l125 66l213 -268l207 262l127 -64zM438 1464q-70 0 -106.5 43t-36.5 127q0 164 143 164q68 0 106 -41.5t38 -122.5q0 -83 -38.5 -126.5t-105.5 -43.5zM874 1798q70 0 108 -41t38 -123q0 -84 -38 -127t-108 -43q-67 0 -104 43.5t-37 126.5
q0 82 37 123t104 41zM940 1372h266v-825q0 -281 -136.5 -430.5t-407.5 -149.5q-275 0 -414 149.5t-139 430.5l2 825h264v-840q0 -319 287 -319q133 0 205.5 78t72.5 241v840z" />
    <glyph glyph-name="uni01DA" unicode="&#x1da;" horiz-adv-x="1183" 
d="M684 1421h-199l-235 381l125 66l213 -269l207 263l127 -64zM375 1047q-142 0 -142 170q0 161 142 161q145 0 145 -161q0 -85 -38 -127.5t-107 -42.5zM807 1378q143 0 143 -161q0 -85 -37 -127.5t-106 -42.5q-141 0 -141 170q0 161 141 161zM793 956h262v-956h-242v98
q-131 -131 -346 -131q-69 0 -125.5 16t-105.5 53t-76 105.5t-27 165.5v649h262v-583q0 -174 176 -174q136 0 222 100v657z" />
    <glyph glyph-name="uni01DB" unicode="&#x1db;" horiz-adv-x="1312" 
d="M362 2161l187 123l235 -388l-118 -73zM436 1466q-70 0 -106.5 43t-36.5 127q0 164 143 164q68 0 106 -41.5t38 -122.5q0 -83 -38.5 -126.5t-105.5 -43.5zM872 1466q-67 0 -104 43.5t-37 126.5q0 82 37 123t104 41q70 0 108 -41t38 -123q0 -84 -38 -127t-108 -43zM662 -33
q-275 0 -414 149.5t-139 430.5l2 825h264v-840q0 -319 287 -319q133 0 205.5 78t72.5 241v840h266v-825q0 -281 -136.5 -430.5t-407.5 -149.5z" />
    <glyph glyph-name="uni01DC" unicode="&#x1dc;" horiz-adv-x="1183" 
d="M717 1485l-119 -74l-303 338l186 123zM375 1049q-142 0 -142 170q0 161 142 161q145 0 145 -161q0 -85 -38 -127.5t-107 -42.5zM666 1219q0 161 141 161q143 0 143 -161q0 -85 -37 -127.5t-106 -42.5q-141 0 -141 170zM793 956h262v-956h-242v98q-131 -131 -346 -131
q-69 0 -125.5 16t-105.5 53t-76 105.5t-27 165.5v649h262v-583q0 -174 176 -174q136 0 222 100v657z" />
    <glyph glyph-name="Scommaaccent" unicode="&#x218;" horiz-adv-x="1222" 
d="M780 780q92 -23 157.5 -53.5t117.5 -77t78 -114.5t26 -158q0 -204 -142.5 -307t-391.5 -103q-153 0 -265.5 37t-184 100.5t-128.5 163.5l184 144q61 -101 154 -151t240 -50q124 0 197 41t73 119q0 67 -45.5 108.5t-149.5 69.5l-264 65q-344 98 -344 406
q0 176 131.5 280.5t382.5 104.5q181 0 316.5 -63.5t236.5 -208.5l-174 -148q-70 94 -159.5 136t-215.5 42q-252 0 -252 -143q0 -67 47 -110t162 -76zM602 -84q95 0 152 -56t57 -159q0 -138 -96.5 -206t-261.5 -62l-17 129q228 -20 228 133q0 16 -2 24q-27 -45 -95 -45
q-53 0 -83.5 29.5t-30.5 81.5q0 60 37 95.5t112 35.5z" />
    <glyph glyph-name="scommaaccent" unicode="&#x219;" horiz-adv-x="989" 
d="M639 565q129 -32 199.5 -100.5t70.5 -192.5q0 -66 -22.5 -118.5t-61.5 -87t-94.5 -57.5t-118.5 -32.5t-137 -9.5q-303 0 -432 187l127 143q41 -63 122 -98t181 -35q54 0 95.5 9t70.5 33t29 62q0 75 -111 99l-207 43q-270 73 -270 286q0 144 108.5 218.5t298.5 74.5
q297 0 426 -182l-137 -131q-89 119 -274 119q-77 0 -128.5 -23t-51.5 -70q0 -41 30 -63t88 -35zM489 -84q95 0 152 -56t57 -159q0 -138 -96.5 -206t-261.5 -62l-16 129q227 -20 227 133q0 16 -2 24q-27 -45 -94 -45q-53 0 -84 29.5t-31 81.5q0 60 37 95.5t112 35.5z" />
    <glyph glyph-name="uni021A" unicode="&#x21a;" horiz-adv-x="1132" 
d="M43 1372h1047v-246h-392v-1126h-264v1126h-391v246zM561 -84q95 0 152 -56t57 -159q0 -138 -96.5 -206t-261.5 -62l-17 129q228 -20 228 133q0 16 -2 24q-27 -45 -95 -45q-53 0 -83.5 29.5t-30.5 81.5q0 60 37 95.5t112 35.5z" />
    <glyph glyph-name="uni021B" unicode="&#x21b;" horiz-adv-x="976" 
d="M963 57q-142 -90 -375 -90q-93 0 -161 18.5t-122 63.5t-82 126.5t-28 199.5v377h-121v204h121v230h260v-230h432v-204h-432v-355q0 -211 182 -211q124 0 240 68zM543 -88q95 0 152 -56t57 -159q0 -138 -97 -206t-262 -62l-16 129q227 -20 227 133q0 16 -2 24
q-27 -45 -94 -45q-53 0 -84 29.5t-31 81.5q0 60 37.5 95.5t112.5 35.5z" />
    <glyph glyph-name="gravecomb" unicode="&#x300;" 
d="M-451 1397l187 123l235 -387l-118 -74z" />
    <glyph glyph-name="acutecomb" unicode="&#x301;" 
d="M-14 1397l-301 -338l-121 74l237 387z" />
    <glyph glyph-name="uni0302" unicode="&#x302;" 
d="M-27 1133l-127 -66l-206 262l-213 -266l-125 63l235 383h199z" />
    <glyph glyph-name="tildecomb" unicode="&#x303;" 
d="M-725 1063q-14 207 42.5 306t164.5 99q28 0 50.5 -7t45.5 -26.5t35 -33t39 -45.5q5 -7 17.5 -23t18 -22t15 -15t17.5 -12.5t18 -3.5q31 0 45 48.5t4 137.5h176q14 -203 -45 -304t-166 -101q-30 0 -53.5 7.5t-47 29t-31.5 30.5t-34 41q-6 8 -18.5 24t-18 22t-14.5 15
t-17 12t-18 3q-31 0 -43.5 -47.5t-5.5 -134.5h-176z" />
    <glyph glyph-name="uni0304" unicode="&#x304;" 
d="M-55 1186h-715v203h715v-203z" />
    <glyph glyph-name="uni0306" unicode="&#x306;" 
d="M-373 1055q-179 0 -265 106t-81 307h213q-6 -235 133 -235q71 0 102 59t29 176h211q9 -413 -342 -413z" />
    <glyph glyph-name="uni0307" unicode="&#x307;" 
d="M-182 1124q-142 0 -142 170q0 162 142 162q69 0 107 -40.5t38 -121.5q0 -85 -38 -127.5t-107 -42.5z" />
    <glyph glyph-name="uni0308" unicode="&#x308;" 
d="M-612 1114q-142 0 -142 170q0 162 142 162q69 0 107 -40.5t38 -121.5q0 -85 -38 -127.5t-107 -42.5zM-180 1114q-142 0 -142 170q0 162 142 162q143 0 143 -162q0 -85 -37 -127.5t-106 -42.5z" />
    <glyph glyph-name="uni030A" unicode="&#x30a;" 
d="M-332 1073q-149 0 -228 56t-79 165v41q0 110 79 167t228 57q147 0 226 -57t79 -167v-41q0 -109 -78.5 -165t-226.5 -56zM-332 1210q72 0 107 22.5t35 61.5v41q0 84 -142 84q-143 0 -143 -84v-41q0 -39 35.5 -61.5t107.5 -22.5z" />
    <glyph glyph-name="uni030B" unicode="&#x30b;" 
d="M-434 1464l-256 -401l-117 49l162 447zM-20 1354l-349 -316l-98 74l270 391z" />
    <glyph glyph-name="uni030C" unicode="&#x30c;" 
d="M-154 1503l127 -63l-237 -377h-199l-235 381l125 65l213 -268z" />
    <glyph glyph-name="uni0312" unicode="&#x312;" 
d="M-160 1315q53 0 84 -29.5t31 -81.5q0 -60 -37.5 -95.5t-112.5 -35.5q-95 0 -151.5 56t-56.5 159q0 138 96.5 206t261.5 62l16 -129q-227 20 -227 -133q0 -16 2 -24q27 45 94 45z" />
    <glyph glyph-name="uni0326" unicode="&#x326;" 
d="M-233 -86q95 0 151.5 -56t56.5 -159q0 -138 -96.5 -206t-261.5 -62l-16 129q227 -20 227 133q0 16 -2 24q-27 -45 -94 -45q-53 0 -84 29.5t-31 81.5q0 60 37.5 95.5t112.5 35.5z" />
    <glyph glyph-name="uni0327" unicode="&#x327;" 
d="M-221 -80q198 -22 198 -170q0 -88 -65 -127t-172 -39q-117 0 -164 21l16 123q52 -21 121 -21q99 0 99 47q0 27 -39.5 43t-132.5 23l32 194h125z" />
    <glyph glyph-name="uni0328" unicode="&#x328;" 
d="M-231 -408q-205 0 -205 158q0 97 95 174t226 113l90 -29q-98 -39 -161.5 -94t-63.5 -111q0 -51 76 -51q58 0 115 19l10 -156q-77 -23 -182 -23z" />
    <glyph glyph-name="uni0335" unicode="&#x335;" 
d="M-49 477h-862v205h862v-205z" />
    <glyph glyph-name="uni0336" unicode="&#x336;" 
d="M-92 475h-1366v205h1366v-205z" />
    <glyph glyph-name="uni0337" unicode="&#x337;" 
d="M-39 707l-760 -424l-96 178l758 426z" />
    <glyph glyph-name="uni0338" unicode="&#x338;" 
 />
    <glyph glyph-name="Wgrave" unicode="&#x1e80;" horiz-adv-x="1947" 
d="M1108 1548l-119 -73l-303 337l186 123zM1612 1372h280l-372 -1376h-301l-248 981l-264 -981h-299l-353 1376h281l223 -1030l260 1022h305l252 -1024z" />
    <glyph glyph-name="wgrave" unicode="&#x1e81;" horiz-adv-x="1691" 
d="M977 1133l-119 -74l-303 338l186 123zM1354 956h307l-326 -956h-321l-180 666l-205 -666h-299l-299 956h307l147 -710l205 710h303l199 -712z" />
    <glyph glyph-name="Wacute" unicode="&#x1e82;" horiz-adv-x="1947" 
d="M1278 1812l-301 -337l-121 73l238 387zM1612 1372h280l-372 -1376h-301l-248 981l-264 -981h-299l-353 1376h281l223 -1030l260 1022h305l252 -1024z" />
    <glyph glyph-name="wacute" unicode="&#x1e83;" horiz-adv-x="1691" 
d="M1147 1397l-301 -338l-121 74l238 387zM1354 956h307l-326 -956h-321l-180 666l-205 -666h-299l-299 956h307l147 -710l205 710h303l199 -712z" />
    <glyph glyph-name="Wdieresis" unicode="&#x1e84;" horiz-adv-x="1947" 
d="M758 1526q-70 0 -107 43t-37 127q0 164 144 164q68 0 105.5 -41.5t37.5 -122.5q0 -83 -38 -126.5t-105 -43.5zM1194 1526q-67 0 -104 43.5t-37 126.5q0 82 37 123t104 41q145 0 145 -164q0 -84 -37.5 -127t-107.5 -43zM1612 1372h280l-372 -1376h-301l-248 981l-264 -981
h-299l-353 1376h281l223 -1030l260 1022h305l252 -1024z" />
    <glyph glyph-name="wdieresis" unicode="&#x1e85;" horiz-adv-x="1691" 
d="M625 1114q-142 0 -142 170q0 162 142 162q69 0 107 -40.5t38 -121.5q0 -85 -38 -127.5t-107 -42.5zM1057 1114q-142 0 -142 170q0 162 142 162q143 0 143 -162q0 -85 -37 -127.5t-106 -42.5zM1354 956h307l-326 -956h-321l-180 666l-205 -666h-299l-299 956h307l147 -710
l205 710h303l199 -712z" />
    <glyph glyph-name="Ygrave" unicode="&#x1ef2;" horiz-adv-x="1261" 
d="M762 1548l-119 -73l-303 337l186 123zM1235 1372l-465 -864v-508h-266v494l-477 878h286l322 -633l313 633h287z" />
    <glyph glyph-name="ygrave" unicode="&#x1ef3;" horiz-adv-x="1128" 
d="M696 1133l-118 -74l-304 338l187 123zM805 956h307l-580 -1347h-270l160 352l-406 995h310l237 -712z" />
    <glyph glyph-name="endash" unicode="&#x2013;" horiz-adv-x="1155" 
d="M1065 502h-975v205h975v-205z" />
    <glyph glyph-name="emdash" unicode="&#x2014;" horiz-adv-x="1460" 
d="M1370 502h-1280v205h1280v-205z" />
    <glyph glyph-name="quoteleft" unicode="&#x2018;" horiz-adv-x="444" 
d="M412 1411q-92 5 -160 -49t-68 -137q0 -25 2 -35q30 27 78 27q62 0 96.5 -38.5t34.5 -105.5q0 -71 -40 -115.5t-113 -44.5q-96 0 -154.5 70t-58.5 207q0 167 92.5 262t257.5 98z" />
    <glyph glyph-name="quoteright" unicode="&#x2019;" horiz-adv-x="448" 
d="M205 1561q96 0 154.5 -69t58.5 -206q0 -167 -93 -263t-257 -97l-33 137q92 -5 159.5 49t67.5 137q0 25 -2 37q-29 -26 -78 -26q-63 0 -97 37.5t-34 105.5q0 71 40.5 114.5t113.5 43.5z" />
    <glyph glyph-name="quotesinglbase" unicode="&#x201a;" horiz-adv-x="1228" 
d="M215 305q212 0 215 -307q0 -414 -426 -360l19 159q251 -34 251 176v23q-33 -29 -86 -29q-66 0 -101.5 42.5t-35.5 125.5q0 84 43.5 127t120.5 43z" />
    <glyph glyph-name="quotedblleft" unicode="&#x201c;" horiz-adv-x="851" 
d="M29 1190q0 167 92.5 262t257.5 98l33 -139q-92 5 -160 -49t-68 -137q0 -25 2 -35q30 27 78 27q62 0 96.5 -38.5t34.5 -105.5q0 -71 -40 -115.5t-113 -44.5q-96 0 -154.5 70t-58.5 207zM819 1411q-92 5 -159.5 -49t-67.5 -137q0 -25 2 -35q30 27 78 27q62 0 96.5 -38.5
t34.5 -105.5q0 -71 -40.5 -115.5t-113.5 -44.5q-96 0 -154.5 70t-58.5 207q0 167 92.5 262t257.5 98z" />
    <glyph glyph-name="quotedblright" unicode="&#x201d;" horiz-adv-x="851" 
d="M203 1554q96 0 154.5 -69.5t58.5 -206.5q0 -167 -92.5 -262t-257.5 -98l-33 139q92 -5 159.5 49t67.5 137q0 25 -2 35q-30 -27 -78 -27q-62 0 -96.5 38.5t-34.5 105.5q0 71 40.5 115t113.5 44zM610 1554q96 0 154.5 -69.5t58.5 -206.5q0 -167 -92.5 -262t-257.5 -98
l-33 139q92 -5 160 49t68 137q0 25 -2 35q-30 -27 -78 -27q-62 0 -96.5 38.5t-34.5 105.5q0 71 40 115t113 44z" />
    <glyph glyph-name="quotedblbase" unicode="&#x201e;" horiz-adv-x="448" 
d="M215 305q212 0 215 -307q0 -414 -426 -360l19 159q251 -34 251 176v23q-33 -29 -86 -29q-66 0 -101.5 42.5t-35.5 125.5q0 84 43.5 127t120.5 43z" />
    <glyph glyph-name="dagger" unicode="&#x2020;" horiz-adv-x="1228" 
 />
    <glyph glyph-name="daggerdbl" unicode="&#x2021;" horiz-adv-x="1228" 
 />
    <glyph glyph-name="bullet" unicode="&#x2022;" horiz-adv-x="546" 
d="M268 477q-207 0 -207 228q0 107 53.5 161t153.5 54q102 0 159.5 -54.5t57.5 -160.5q0 -112 -56 -170t-161 -58z" />
    <glyph glyph-name="ellipsis" unicode="&#x2026;" horiz-adv-x="1228" 
 />
    <glyph glyph-name="perthousand" unicode="&#x2030;" horiz-adv-x="2525" 
d="M449 748q-59 0 -110 8.5t-97 29.5t-78 53.5t-51 82t-19 112.5v82q0 63 19 112.5t51 81.5t78 53t97 29.5t110 8.5q76 0 137.5 -14.5t112 -46t78.5 -88.5t28 -136v-82q0 -79 -28 -136t-78.5 -89t-112 -46.5t-137.5 -14.5zM201 0l1046 1372h299l-1038 -1372h-307zM449 918
q70 -2 113.5 25.5t43.5 90.5v82q0 117 -157 117q-156 0 -156 -117v-82q0 -116 156 -116zM1305 -31q-75 0 -136 15t-111 46.5t-78 88.5t-28 135v84q0 78 28 135t78 88.5t111 46.5t136 15q76 0 137.5 -14.5t112 -46.5t78.5 -89t28 -135v-84q0 -78 -28 -135t-78.5 -89
t-112 -46.5t-137.5 -14.5zM2073 -31q-75 0 -136 15t-111 46.5t-78 88.5t-28 135v84q0 78 28 135t78 88.5t111 46.5t136 15q76 0 137.5 -14.5t112 -46.5t78.5 -89t28 -135v-84q0 -78 -28 -135t-78.5 -89t-112 -46.5t-137.5 -14.5zM1305 137q157 0 157 119v82q0 62 -43.5 89.5
t-113.5 27.5q-69 0 -112.5 -27.5t-43.5 -89.5v-82q0 -119 156 -119zM2073 137q157 0 157 119v82q0 62 -43.5 89.5t-113.5 27.5q-69 0 -112.5 -27.5t-43.5 -89.5v-82q0 -119 156 -119z" />
    <glyph glyph-name="guilsinglleft" unicode="&#x2039;" horiz-adv-x="663" 
d="M616 852l-352 -360l352 -355l-167 -108l-418 389v151l418 389z" />
    <glyph glyph-name="guilsinglright" unicode="&#x203a;" horiz-adv-x="661" 
d="M219 958l418 -389v-151l-418 -389l-168 108l352 355l-352 360z" />
    <glyph glyph-name="fraction" unicode="&#x2044;" horiz-adv-x="1228" 
 />
    <glyph glyph-name="Euro" unicode="&#x20ac;" horiz-adv-x="1271" 
d="M1036 412l201 -86q-61 -193 -199 -276t-364 -83q-249 0 -386.5 133.5t-152.5 380.5h-106v164h104v96h-104v162h106q19 242 162 372t408 130q188 0 313.5 -75t206.5 -228l-195 -125q-46 93 -126 137.5t-204 44.5q-284 0 -301 -256h508v-162h-510v-96h510v-164h-510
q7 -139 82 -203.5t215 -64.5q134 0 210.5 46t131.5 153z" />
    <glyph glyph-name="trademark" unicode="&#x2122;" horiz-adv-x="2304" 
d="M76 1137v235h858v-235h-303v-611h-252v611h-303zM1847 1372h275v-846h-230l6 514l-231 -387h-168l-223 381l6 -508h-229v846h274l258 -452z" />
    <glyph glyph-name="minus" unicode="&#x2212;" horiz-adv-x="1124" 
d="M1040 545h-956v200h956v-200z" />
    <glyph glyph-name="notequal" unicode="&#x2260;" horiz-adv-x="1228" 
 />
    <glyph glyph-name="lessequal" unicode="&#x2264;" horiz-adv-x="1228" 
 />
    <glyph glyph-name="greaterequal" unicode="&#x2265;" horiz-adv-x="1228" 
 />
    <glyph glyph-name="lozenge" unicode="&#x25ca;" horiz-adv-x="1228" 
 />
    <glyph glyph-name="i.loclTRK" horiz-adv-x="538" 
d="M268 1124q-141 0 -141 170q0 162 141 162q69 0 107.5 -40.5t38.5 -121.5q0 -84 -38.5 -127t-107.5 -43zM139 0v956h262v-956h-262z" />
    <glyph glyph-name="a.sc" horiz-adv-x="1177" 
d="M877 0l-58 176h-467l-57 -176h-262l385 1051h342l383 -1051h-266zM414 365h344l-172 530z" />
    <glyph glyph-name="aacute.sc" horiz-adv-x="1177" 
d="M893 1493l-301 -338l-121 74l238 387zM877 0l-58 176h-467l-57 -176h-262l385 1051h342l383 -1051h-266zM414 365h344l-172 530z" />
    <glyph glyph-name="abreve.sc" horiz-adv-x="1177" 
d="M594 1151q-179 0 -265 106.5t-81 307.5h213q-6 -236 133 -236q71 0 102 59.5t29 176.5h211q5 -202 -80 -308t-262 -106zM877 0l-58 176h-467l-57 -176h-262l385 1051h342l383 -1051h-266zM414 365h344l-172 530z" />
    <glyph glyph-name="acircumflex.sc" horiz-adv-x="1177" 
d="M594 1425l-213 -266l-125 64l236 383h198l238 -377l-127 -66zM877 0l-58 176h-467l-57 -176h-262l385 1051h342l383 -1051h-266zM414 365h344l-172 530z" />
    <glyph glyph-name="adieresis.sc" horiz-adv-x="1177" 
d="M371 1210q-142 0 -142 170q0 162 142 162q69 0 107 -40.5t38 -121.5q0 -85 -38 -127.5t-107 -42.5zM803 1210q-141 0 -141 170q0 162 141 162q143 0 143 -162q0 -85 -37 -127.5t-106 -42.5zM877 0l-58 176h-467l-57 -176h-262l385 1051h342l383 -1051h-266zM414 365h344
l-172 530z" />
    <glyph glyph-name="agrave.sc" horiz-adv-x="1177" 
d="M723 1229l-119 -74l-303 338l186 123zM877 0l-58 176h-467l-57 -176h-262l385 1051h342l383 -1051h-266zM414 365h344l-172 530z" />
    <glyph glyph-name="amacron.sc" horiz-adv-x="1177" 
d="M948 1485v-203h-715v203h715zM877 0l-58 176h-467l-57 -176h-262l385 1051h342l383 -1051h-266zM414 365h344l-172 530z" />
    <glyph glyph-name="aogonek.sc" horiz-adv-x="1177" 
d="M993 -256q61 0 115 18l10 -155q-77 -23 -182 -23q-205 0 -205 158q0 81 67 148t171 110h-92l-58 176h-467l-57 -176h-262l385 1051h342l383 -1051q-98 -39 -161.5 -94t-63.5 -111q0 -51 75 -51zM414 365h344l-172 530z" />
    <glyph glyph-name="aring.sc" horiz-adv-x="1177" 
d="M592 1169q-149 0 -228 56.5t-79 165.5v41q0 110 79 166.5t228 56.5q147 0 226 -57t79 -166v-41q0 -109 -78.5 -165.5t-226.5 -56.5zM449 1432v-41q0 -39 35.5 -61.5t107.5 -22.5q141 0 141 84v41q0 84 -141 84q-143 0 -143 -84zM877 0l-58 176h-467l-57 -176h-262
l385 1051h342l383 -1051h-266zM414 365h344l-172 530z" />
    <glyph glyph-name="atilde.sc" horiz-adv-x="1177" 
d="M240 1159q-14 207 42.5 306.5t163.5 99.5q28 0 50.5 -7t45.5 -27.5t34.5 -33t39.5 -45.5q5 -7 17.5 -23t18 -22t15 -15t17.5 -12.5t18 -3.5q31 0 45.5 49t4.5 138h176q14 -203 -45 -304.5t-166 -101.5q-37 0 -68.5 16.5t-46.5 32.5t-42 49q-6 7 -9 11q-6 7 -18.5 23.5
t-18 22l-14.5 14.5t-17 12t-18 3q-31 0 -43.5 -47.5t-5.5 -134.5h-176zM877 0l-58 176h-467l-57 -176h-262l385 1051h342l383 -1051h-266zM414 365h344l-172 530z" />
    <glyph glyph-name="ae.sc" horiz-adv-x="1892" 
d="M1159 240h596v-240h-852l-10 233h-461l-129 -233h-285l592 1047h1141v-226h-621l11 -188h504v-189h-496zM535 420h350l-17 399h-112z" />
    <glyph glyph-name="b.sc" horiz-adv-x="1251" 
d="M973 561q98 -21 152.5 -84.5t54.5 -167.5q0 -152 -107 -230.5t-336 -78.5h-573v1047h622q172 0 254 -61t82 -189q0 -89 -39.5 -149t-109.5 -87zM872 731q0 92 -137 92h-317v-202h305q67 0 108 28.5t41 81.5zM754 229q170 0 170 119q0 51 -39 78t-107 27h-360v-224h336z
" />
    <glyph glyph-name="c.sc" horiz-adv-x="1212" 
d="M1147 254q-70 -145 -201 -215t-348 -70q-255 0 -383.5 111t-128.5 342v192q0 463 541 463q186 0 314.5 -59t203.5 -193l-172 -135q-44 82 -125.5 120t-210.5 38q-295 0 -295 -238v-164q0 -129 77 -186t220 -57q242 0 336 176z" />
    <glyph glyph-name="cacute.sc" horiz-adv-x="1212" 
d="M909 1493l-301 -338l-121 74l238 387zM1147 254q-70 -145 -201 -215t-348 -70q-255 0 -383.5 111t-128.5 342v192q0 463 541 463q186 0 314.5 -59t203.5 -193l-172 -135q-44 82 -125.5 120t-210.5 38q-295 0 -295 -238v-164q0 -129 77 -186t220 -57q242 0 336 176z" />
    <glyph glyph-name="ccaron.sc" horiz-adv-x="1212" 
d="M707 1159h-199l-236 381l125 66l213 -269l207 262l127 -63zM975 379l172 -125q-70 -145 -201 -215t-348 -70q-255 0 -383.5 111t-128.5 342v192q0 463 541 463q186 0 314.5 -59t203.5 -193l-172 -135q-44 82 -125.5 120t-210.5 38q-295 0 -295 -238v-164q0 -129 77 -186
t220 -57q242 0 336 176z" />
    <glyph glyph-name="ccedilla.sc" horiz-adv-x="1212" 
d="M1147 254q-66 -138 -185.5 -208t-314.5 -77l-10 -49q199 -22 199 -170q0 -88 -65.5 -127t-172.5 -39q-117 0 -164 21l17 123q53 -21 120 -21q99 0 99 47q0 27 -39.5 43t-132.5 23l26 151q-438 30 -438 451v192q0 463 541 463q186 0 314.5 -59t203.5 -193l-172 -135
q-44 82 -125.5 120t-210.5 38q-295 0 -295 -238v-164q0 -129 77 -186t220 -57q242 0 336 176z" />
    <glyph glyph-name="cdotaccent.sc" horiz-adv-x="1212" 
d="M606 1221q-141 0 -141 170q0 161 141 161q70 0 108 -40t38 -121q0 -84 -38.5 -127t-107.5 -43zM1147 254q-70 -145 -201 -215t-348 -70q-255 0 -383.5 111t-128.5 342v192q0 463 541 463q186 0 314.5 -59t203.5 -193l-172 -135q-44 82 -125.5 120t-210.5 38
q-295 0 -295 -238v-164q0 -129 77 -186t220 -57q242 0 336 176z" />
    <glyph glyph-name="d.sc" horiz-adv-x="1310" 
d="M700 1047q525 0 525 -461v-117q0 -231 -127.5 -350t-397.5 -119h-536v1047h536zM963 477v107q0 128 -68.5 178.5t-222.5 50.5h-248v-575h250q150 0 219.5 54.5t69.5 184.5z" />
    <glyph glyph-name="eth.sc" horiz-adv-x="1308" 
d="M700 1047q525 0 525 -461v-117q0 -231 -127.5 -350t-397.5 -119h-536v449h-94v172h94v426h536zM963 477v107q0 128 -68.5 178.5t-222.5 50.5h-248v-192h278v-172h-278v-211h250q150 0 219.5 54.5t69.5 184.5z" />
    <glyph glyph-name="dcaron.sc" horiz-adv-x="1310" 
d="M776 1159h-198l-236 381l125 66l213 -269l207 262l127 -63zM700 1047q525 0 525 -461v-117q0 -231 -127.5 -350t-397.5 -119h-536v1047h536zM963 477v107q0 128 -68.5 178.5t-222.5 50.5h-248v-575h250q150 0 219.5 54.5t69.5 184.5z" />
    <glyph glyph-name="dcroat.sc" horiz-adv-x="1308" 
d="M700 1047q525 0 525 -461v-117q0 -231 -127.5 -350t-397.5 -119h-536v449h-94v172h94v426h536zM963 477v107q0 128 -68.5 178.5t-222.5 50.5h-248v-192h278v-172h-278v-211h250q150 0 219.5 54.5t69.5 184.5z" />
    <glyph glyph-name="e.sc" horiz-adv-x="1196" 
d="M428 229h631v-229h-895v1047h891v-226h-627v-196h494v-179h-494v-217z" />
    <glyph glyph-name="eacute.sc" horiz-adv-x="1196" 
d="M926 1487l-301 -338l-121 74l237 387zM428 229h631v-229h-895v1047h891v-226h-627v-196h494v-179h-494v-217z" />
    <glyph glyph-name="ecaron.sc" horiz-adv-x="1196" 
d="M723 1153h-199l-235 381l125 65l213 -268l207 262l127 -63zM428 229h631v-229h-895v1047h891v-226h-627v-196h494v-179h-494v-217z" />
    <glyph glyph-name="ecircumflex.sc" horiz-adv-x="1196" 
d="M627 1419l-213 -266l-125 64l235 382h199l238 -376l-127 -66zM428 229h631v-229h-895v1047h891v-226h-627v-196h494v-179h-494v-217z" />
    <glyph glyph-name="edieresis.sc" horiz-adv-x="1196" 
d="M403 1204q-141 0 -141 170q0 162 141 162q69 0 107.5 -40.5t38.5 -121.5q0 -84 -38.5 -127t-107.5 -43zM836 1204q-142 0 -142 170q0 162 142 162q143 0 143 -162q0 -85 -37 -127.5t-106 -42.5zM428 229h631v-229h-895v1047h891v-226h-627v-196h494v-179h-494v-217z" />
    <glyph glyph-name="edotaccent.sc" horiz-adv-x="1196" 
d="M623 1214q-142 0 -142 170q0 162 142 162q69 0 107 -40.5t38 -121.5q0 -85 -38 -127.5t-107 -42.5zM428 229h631v-229h-895v1047h891v-226h-627v-196h494v-179h-494v-217z" />
    <glyph glyph-name="egrave.sc" horiz-adv-x="1196" 
d="M756 1223l-119 -74l-303 338l186 123zM428 229h631v-229h-895v1047h891v-226h-627v-196h494v-179h-494v-217z" />
    <glyph glyph-name="emacron.sc" horiz-adv-x="1196" 
d="M981 1479v-203h-715v203h715zM428 229h631v-229h-895v1047h891v-226h-627v-196h494v-179h-494v-217z" />
    <glyph glyph-name="eogonek.sc" horiz-adv-x="1196" 
d="M1059 0q-98 -39 -161.5 -94t-63.5 -111q0 -51 75 -51q61 0 115 18l10 -155q-77 -23 -182 -23q-205 0 -205 158q0 81 67 148t171 110h-721v1047h891v-226h-627v-196h494v-179h-494v-217h631v-229z" />
    <glyph glyph-name="f.sc" horiz-adv-x="1101" 
d="M1001 813h-595v-223h462v-207h-462v-383h-263v1047h858v-234z" />
    <glyph glyph-name="g.sc" horiz-adv-x="1259" 
d="M567 608h574l2 -530q-179 -109 -518 -109q-539 0 -539 463v180q0 465 547 465q174 0 295.5 -48.5t214.5 -158.5l-166 -159q-107 135 -338 135q-145 0 -218 -57t-73 -185v-151q0 -135 72.5 -192.5t224.5 -57.5q143 0 242 26v179h-320v200z" />
    <glyph glyph-name="gbreve.sc" horiz-adv-x="1259" 
d="M649 1151q-179 0 -265 106.5t-81 307.5h213q-6 -236 133 -236q71 0 102 59.5t29 176.5h211q5 -202 -80 -308t-262 -106zM567 608h574l2 -530q-179 -109 -518 -109q-539 0 -539 463v180q0 465 547 465q174 0 295.5 -48.5t214.5 -158.5l-166 -159q-107 135 -338 135
q-145 0 -218 -57t-73 -185v-151q0 -135 72.5 -192.5t224.5 -57.5q143 0 242 26v179h-320v200z" />
    <glyph glyph-name="gcommaaccent.sc" horiz-adv-x="1259" 
d="M567 608h574l2 -530q-179 -109 -518 -109q-539 0 -539 463v180q0 465 547 465q174 0 295.5 -48.5t214.5 -158.5l-166 -159q-107 135 -338 135q-145 0 -218 -57t-73 -185v-151q0 -135 72.5 -192.5t224.5 -57.5q143 0 242 26v179h-320v200zM643 -84q95 0 152 -56t57 -159
q0 -138 -96.5 -206t-261.5 -62l-17 129q228 -20 228 133q0 12 -3 24q-27 -45 -94 -45q-53 0 -83.5 29.5t-30.5 81.5q0 60 37 95.5t112 35.5z" />
    <glyph glyph-name="gdotaccent.sc" horiz-adv-x="1259" 
d="M645 1221q-141 0 -141 170q0 161 141 161q70 0 108 -40t38 -121q0 -84 -38.5 -127t-107.5 -43zM567 608h574l2 -530q-179 -109 -518 -109q-539 0 -539 463v180q0 465 547 465q174 0 295.5 -48.5t214.5 -158.5l-166 -159q-107 135 -338 135q-145 0 -218 -57t-73 -185v-151
q0 -135 72.5 -192.5t224.5 -57.5q143 0 242 26v179h-320v200z" />
    <glyph glyph-name="h.sc" horiz-adv-x="1347" 
d="M922 1044h264v-1044h-264v410h-494v-410h-264v1044h264v-413h494v413z" />
    <glyph glyph-name="hbar.sc" horiz-adv-x="1476" 
d="M1370 872v-200h-90v-672h-264v309h-555v-309h-264v672h-91v200h91v179h264v-179h555v179h264v-179h90zM1016 532v140h-555v-140h555z" />
    <glyph glyph-name="i.sc" horiz-adv-x="591" 
d="M164 0v1047h264v-1047h-264z" />
    <glyph glyph-name="iacute.sc" horiz-adv-x="591" 
d="M596 1489l-301 -338l-121 74l238 387zM164 0v1047h264v-1047h-264z" />
    <glyph glyph-name="icircumflex.sc" horiz-adv-x="591" 
d="M393 1602l238 -377l-127 -66l-207 262l-213 -266l-125 64l236 383h198zM164 0v1047h264v-1047h-264z" />
    <glyph glyph-name="idieresis.sc" horiz-adv-x="591" 
d="M74 1206q-142 0 -142 170q0 162 142 162q69 0 107 -40.5t38 -121.5q0 -85 -38 -127.5t-107 -42.5zM506 1206q-141 0 -141 170q0 162 141 162q143 0 143 -162q0 -85 -37 -127.5t-106 -42.5zM164 0v1047h264v-1047h-264z" />
    <glyph glyph-name="i.sc.loclTRK" horiz-adv-x="591" 
d="M293 1217q-141 0 -141 169q0 162 141 162q69 0 107 -40.5t38 -121.5q0 -84 -38 -126.5t-107 -42.5zM164 0v1047h264v-1047h-264z" />
    <glyph glyph-name="igrave.sc" horiz-adv-x="591" 
d="M4 1489l186 123l236 -387l-119 -74zM164 0v1047h264v-1047h-264z" />
    <glyph glyph-name="imacron.sc" horiz-adv-x="591" 
d="M651 1278h-714v203h714v-203zM164 0v1047h264v-1047h-264z" />
    <glyph glyph-name="iogonek.sc" horiz-adv-x="591" 
d="M322 -254q60 0 114 18l10 -155q-77 -23 -182 -23q-205 0 -205 158q0 80 66 146.5t168 109.5h-129v1047h264v-1031l43 -14q-98 -39 -161.5 -94t-63.5 -111q0 -51 76 -51z" />
    <glyph glyph-name="j.sc" horiz-adv-x="1050" 
d="M47 90l100 209q95 -100 265 -100q118 0 180.5 59t62.5 199v590h265v-576q0 -254 -119 -377t-375 -123q-123 0 -215 27t-164 92z" />
    <glyph glyph-name="k.sc" horiz-adv-x="1296" 
d="M1227 1047l-400 -402l390 -645h-316l-264 455l-211 -211v-244h-262v1047h262v-494l477 494h324z" />
    <glyph glyph-name="kcommaaccent.sc" horiz-adv-x="1296" 
d="M1227 1047l-400 -402l390 -645h-316l-264 455l-211 -211v-244h-262v1047h262v-494l477 494h324zM631 -84q95 0 152 -56t57 -159q0 -138 -97 -206t-262 -62l-16 129q227 -20 227 133q0 16 -2 24q-27 -45 -94 -45q-53 0 -84 29.5t-31 81.5q0 60 37.5 95.5t112.5 35.5z" />
    <glyph glyph-name="l.sc" horiz-adv-x="1038" 
d="M428 238h563v-238h-827v1047h264v-809z" />
    <glyph glyph-name="lacute.sc" horiz-adv-x="1038" 
d="M602 1489l-301 -338l-121 74l238 387zM428 238h563v-238h-827v1047h264v-809z" />
    <glyph glyph-name="lcaron.sc" horiz-adv-x="1038" 
d="M399 1155h-198l-236 381l125 66l213 -269l207 262l127 -63zM428 238h563v-238h-827v1047h264v-809z" />
    <glyph glyph-name="lcommaaccent.sc" horiz-adv-x="1038" 
d="M428 238h563v-238h-827v1047h264v-809zM594 -84q95 0 152 -56t57 -159q0 -138 -97 -206t-262 -62l-16 129q227 -20 227 133q0 16 -2 24q-27 -45 -94 -45q-53 0 -84 29.5t-31 81.5q0 60 37.5 95.5t112.5 35.5z" />
    <glyph glyph-name="lslash.sc" horiz-adv-x="1038" 
d="M428 238h563v-238h-827v395l-129 -71l-96 178l225 127v418h264v-271l268 152l99 -180l-367 -205v-305z" />
    <glyph glyph-name="m.sc" horiz-adv-x="1601" 
d="M1176 1047h262v-1047h-246l6 629l-317 -502h-168l-310 494l7 -621h-246v1047h262l375 -611z" />
    <glyph glyph-name="n.sc" horiz-adv-x="1357" 
d="M952 1047h242v-1047h-252l-543 664l7 -664h-242v1047h252l542 -662z" />
    <glyph glyph-name="nacute.sc" horiz-adv-x="1357" 
d="M971 1493l-301 -338l-121 74l237 387zM952 1047h242v-1047h-252l-543 664l7 -664h-242v1047h252l542 -662z" />
    <glyph glyph-name="ncaron.sc" horiz-adv-x="1357" 
d="M768 1159h-199l-235 381l125 66l213 -269l207 262l127 -63zM952 1047h242v-1047h-252l-543 664l7 -664h-242v1047h252l542 -662z" />
    <glyph glyph-name="ncommaaccent.sc" horiz-adv-x="1357" 
d="M952 1047h242v-1047h-252l-543 664l7 -664h-242v1047h252l542 -662zM664 -84q95 0 151.5 -56t56.5 -159q0 -138 -96.5 -206t-261.5 -62l-16 129q227 -20 227 133q0 16 -2 24q-27 -45 -94 -45q-53 0 -84 29.5t-31 81.5q0 60 37.5 95.5t112.5 35.5z" />
    <glyph glyph-name="eng.sc" horiz-adv-x="1419" 
d="M995 1051h246v-930q0 -445 -428 -445q-116 0 -201.5 21t-165.5 67l95 199q59 -36 113 -51.5t132 -15.5q166 0 205 106l-573 657l6 -659h-246v1051h256l567 -641z" />
    <glyph glyph-name="ntilde.sc" horiz-adv-x="1357" 
d="M317 1159q-14 207 42.5 306.5t164.5 99.5q28 0 50.5 -7t45.5 -27.5t34.5 -33t39.5 -45.5q5 -7 17.5 -23t18 -22t15 -15t17.5 -12.5t18 -3.5q31 0 45 49t4 138h177q14 -203 -45 -304.5t-166 -101.5q-37 0 -68.5 16.5t-46.5 32.5t-42 49q-6 7 -9 11q-6 7 -18.5 23.5t-18 22
l-14.5 14.5t-17 12t-18 3q-31 0 -43.5 -47.5t-5.5 -134.5h-177zM952 1047h242v-1047h-252l-543 664l7 -664h-242v1047h252l542 -662z" />
    <glyph glyph-name="o.sc" horiz-adv-x="1306" 
d="M651 -29q-285 0 -425 123.5t-140 345.5v166q0 226 139.5 348.5t425.5 122.5q288 0 430 -122.5t142 -348.5v-166q0 -222 -142.5 -345.5t-429.5 -123.5zM651 211q307 0 307 238v155q0 125 -78.5 181.5t-228.5 56.5q-148 0 -224.5 -56.5t-76.5 -181.5v-155q0 -238 301 -238z
" />
    <glyph glyph-name="oacute.sc" horiz-adv-x="1306" 
d="M954 1493l-301 -338l-121 74l238 387zM651 -29q-285 0 -425 123.5t-140 345.5v166q0 226 139.5 348.5t425.5 122.5q288 0 430 -122.5t142 -348.5v-166q0 -222 -142.5 -345.5t-429.5 -123.5zM651 211q307 0 307 238v155q0 125 -78.5 181.5t-228.5 56.5
q-148 0 -224.5 -56.5t-76.5 -181.5v-155q0 -238 301 -238z" />
    <glyph glyph-name="ocircumflex.sc" horiz-adv-x="1306" 
d="M655 1425l-213 -266l-125 64l236 383h199l237 -377l-127 -66zM651 1077q288 0 430 -122.5t142 -348.5v-166q0 -222 -142.5 -345.5t-429.5 -123.5q-285 0 -425 123.5t-140 345.5v166q0 226 139.5 348.5t425.5 122.5zM958 449v155q0 125 -78.5 181.5t-228.5 56.5
q-148 0 -224.5 -56.5t-76.5 -181.5v-155q0 -238 301 -238q307 0 307 238z" />
    <glyph glyph-name="odieresis.sc" horiz-adv-x="1306" 
d="M432 1210q-141 0 -141 170q0 162 141 162q69 0 107.5 -40.5t38.5 -121.5q0 -84 -38.5 -127t-107.5 -43zM864 1210q-141 0 -141 170q0 162 141 162q144 0 144 -162q0 -85 -37.5 -127.5t-106.5 -42.5zM651 -29q-285 0 -425 123.5t-140 345.5v166q0 226 139.5 348.5
t425.5 122.5q288 0 430 -122.5t142 -348.5v-166q0 -222 -142.5 -345.5t-429.5 -123.5zM651 211q307 0 307 238v155q0 125 -78.5 181.5t-228.5 56.5q-148 0 -224.5 -56.5t-76.5 -181.5v-155q0 -238 301 -238z" />
    <glyph glyph-name="ograve.sc" horiz-adv-x="1306" 
d="M362 1493l187 123l235 -387l-118 -74zM651 -29q-285 0 -425 123.5t-140 345.5v166q0 226 139.5 348.5t425.5 122.5q288 0 430 -122.5t142 -348.5v-166q0 -222 -142.5 -345.5t-429.5 -123.5zM651 211q307 0 307 238v155q0 125 -78.5 181.5t-228.5 56.5
q-148 0 -224.5 -56.5t-76.5 -181.5v-155q0 -238 301 -238z" />
    <glyph glyph-name="ohungarumlaut.sc" horiz-adv-x="1306" 
d="M752 1561l-256 -402l-117 49l162 447zM1165 1450l-348 -315l-98 73l270 391zM651 -29q-285 0 -425 123.5t-140 345.5v166q0 226 139.5 348.5t425.5 122.5q288 0 430 -122.5t142 -348.5v-166q0 -222 -142.5 -345.5t-429.5 -123.5zM651 211q307 0 307 238v155
q0 125 -78.5 181.5t-228.5 56.5q-148 0 -224.5 -56.5t-76.5 -181.5v-155q0 -238 301 -238z" />
    <glyph glyph-name="omacron.sc" horiz-adv-x="1306" 
d="M1010 1282h-715v203h715v-203zM651 -29q-285 0 -425 123.5t-140 345.5v166q0 226 139.5 348.5t425.5 122.5q288 0 430 -122.5t142 -348.5v-166q0 -222 -142.5 -345.5t-429.5 -123.5zM651 211q307 0 307 238v155q0 125 -78.5 181.5t-228.5 56.5q-148 0 -224.5 -56.5
t-76.5 -181.5v-155q0 -238 301 -238z" />
    <glyph glyph-name="oslash.sc" horiz-adv-x="1316" 
d="M1284 973l-117 -115q62 -106 62 -252v-166q0 -222 -142.5 -345.5t-429.5 -123.5q-194 0 -323 60l-107 -107l-192 142l121 120q-64 104 -64 254v166q0 226 139.5 348.5t425.5 122.5q204 0 332 -61l96 96zM356 449q0 -26 4 -58l439 434q-58 17 -142 17q-148 0 -224.5 -56.5
t-76.5 -181.5v-155zM965 604q0 17 -4 49l-431 -428q52 -14 127 -14q308 0 308 238v155z" />
    <glyph glyph-name="otilde.sc" horiz-adv-x="1306" 
d="M301 1159q-14 207 42.5 306.5t164.5 99.5q28 0 50.5 -7t45.5 -27.5t34.5 -33t39.5 -45.5q5 -7 17.5 -23t18 -22t15 -15t17.5 -12.5t18 -3.5q31 0 45 49t4 138h176q14 -203 -45 -304.5t-166 -101.5q-37 0 -68.5 16.5t-46.5 32.5t-42 49q-6 7 -9 11q-6 7 -18.5 23.5t-18 22
l-14.5 14.5t-17 12t-18 3q-31 0 -43.5 -47.5t-5.5 -134.5h-176zM651 -29q-285 0 -425 123.5t-140 345.5v166q0 226 139.5 348.5t425.5 122.5q288 0 430 -122.5t142 -348.5v-166q0 -222 -142.5 -345.5t-429.5 -123.5zM651 211q307 0 307 238v155q0 125 -78.5 181.5
t-228.5 56.5q-148 0 -224.5 -56.5t-76.5 -181.5v-155q0 -238 301 -238z" />
    <glyph glyph-name="oe.sc" horiz-adv-x="2062" 
d="M1288 229h637v-229h-901v66q-132 -99 -365 -99q-278 0 -425.5 122t-147.5 355v156q0 235 150.5 355t441.5 120q219 0 346 -92v61h895v-223h-631v-196h500v-179h-500v-217zM686 209q278 0 338 168v289q-59 172 -334 172q-163 0 -250.5 -57.5t-87.5 -192.5v-125
q0 -254 334 -254z" />
    <glyph glyph-name="p.sc" horiz-adv-x="1191" 
d="M717 1047q97 0 169 -19t127.5 -61.5t84 -118.5t28.5 -184q0 -111 -29.5 -189t-86.5 -123t-131.5 -64.5t-173.5 -19.5h-279v-268h-262v1047h553zM700 481q170 0 170 181q0 86 -41 119.5t-129 33.5h-274v-334h274z" />
    <glyph glyph-name="thorn.sc" horiz-adv-x="1253" 
d="M707 920q232 0 341 -86t109 -281q0 -197 -109 -286t-341 -89h-301v-178h-263v1051h263v-131h301zM694 406q197 0 197 151q0 75 -46.5 102t-150.5 27h-288v-280h288z" />
    <glyph glyph-name="q.sc" horiz-adv-x="1306" 
d="M1223 440q0 -318 -279 -424l189 -127l-148 -149l-334 231q-285 0 -425 123.5t-140 345.5v166q0 226 139.5 348.5t425.5 122.5q288 0 430 -122.5t142 -348.5v-166zM958 449v155q0 125 -78.5 181.5t-228.5 56.5q-148 0 -224.5 -56.5t-76.5 -181.5v-155q0 -238 301 -238
q307 0 307 238z" />
    <glyph glyph-name="r.sc" horiz-adv-x="1255" 
d="M1165 0h-297l-198 317h-6h-244v-317h-256v1047h555q211 0 314.5 -82t103.5 -277q0 -249 -193 -328zM420 817v-311h264q195 0 195 168q0 81 -47 112t-144 31h-268z" />
    <glyph glyph-name="racute.sc" horiz-adv-x="1255" 
d="M920 1493l-302 -338l-120 74l237 387zM1165 0h-297l-198 317h-6h-244v-317h-256v1047h555q211 0 314.5 -82t103.5 -277q0 -249 -193 -328zM420 817v-311h264q195 0 195 168q0 81 -47 112t-144 31h-268z" />
    <glyph glyph-name="rcaron.sc" horiz-adv-x="1255" 
d="M717 1159h-199l-235 381l125 66l213 -269l206 262l127 -63zM1165 0h-297l-198 317h-6h-244v-317h-256v1047h555q211 0 314.5 -82t103.5 -277q0 -249 -193 -328zM420 817v-311h264q195 0 195 168q0 81 -47 112t-144 31h-268z" />
    <glyph glyph-name="rcommaaccent.sc" horiz-adv-x="1255" 
d="M944 360l221 -360h-297l-198 317h-6h-244v-317h-256v1047h555q211 0 314.5 -82t103.5 -277q0 -249 -193 -328zM420 817v-311h264q195 0 195 168q0 81 -47 112t-144 31h-268zM612 -84q95 0 152 -56t57 -159q0 -138 -96.5 -206t-261.5 -62l-17 129q228 -20 228 133
q0 16 -2 24q-27 -45 -94 -45q-53 0 -84 29.5t-31 81.5q0 60 37 95.5t112 35.5z" />
    <glyph glyph-name="s.sc" horiz-adv-x="1177" 
d="M578 -31q-182 0 -302.5 53t-205.5 152l135 150q33 -32 63 -54.5t74 -44.5t102.5 -33.5t130.5 -11.5q119 0 183.5 33t64.5 88q0 44 -34 70t-111 41l-264 41q-158 34 -231.5 115.5t-73.5 197.5q0 150 124 230.5t369 80.5q304 0 473 -186l-133 -148q-65 65 -147 97t-197 32
q-129 0 -185.5 -26t-56.5 -78q0 -88 144 -117l272 -43q70 -15 121.5 -36.5t95.5 -56.5t67 -90.5t23 -129.5q0 -162 -135.5 -244t-365.5 -82z" />
    <glyph glyph-name="sacute.sc" horiz-adv-x="1177" 
d="M897 1493l-301 -338l-121 74l238 387zM578 -31q-182 0 -302.5 53t-205.5 152l135 150q33 -32 63 -54.5t74 -44.5t102.5 -33.5t130.5 -11.5q119 0 183.5 33t64.5 88q0 44 -34 70t-111 41l-264 41q-158 34 -231.5 115.5t-73.5 197.5q0 150 124 230.5t369 80.5
q304 0 473 -186l-133 -148q-65 65 -147 97t-197 32q-129 0 -185.5 -26t-56.5 -78q0 -88 144 -117l272 -43q70 -15 121.5 -36.5t95.5 -56.5t67 -90.5t23 -129.5q0 -162 -135.5 -244t-365.5 -82z" />
    <glyph glyph-name="scaron.sc" horiz-adv-x="1177" 
d="M694 1159h-198l-236 381l125 66l213 -269l207 262l127 -63zM772 608q70 -15 121.5 -36.5t95.5 -56.5t67 -90.5t23 -129.5q0 -162 -135.5 -244t-365.5 -82q-182 0 -302.5 53t-205.5 152l135 150q33 -32 63 -54.5t74 -44.5t102.5 -33.5t130.5 -11.5q119 0 183.5 33t64.5 88
q0 44 -34 70t-111 41l-264 41q-158 34 -231.5 115.5t-73.5 197.5q0 150 124 230.5t369 80.5q304 0 473 -186l-133 -148q-65 65 -147 97t-197 32q-129 0 -185.5 -26t-56.5 -78q0 -88 144 -117z" />
    <glyph glyph-name="scedilla.sc" horiz-adv-x="1177" 
d="M1079 295q0 -150 -116.5 -231.5t-319.5 -92.5l-10 -51q198 -22 198 -170q0 -88 -65 -127t-172 -39q-117 0 -164 21l16 123q52 -21 121 -21q99 0 99 47q0 27 -39.5 43t-132.5 23l24 151q-157 9 -263.5 61t-184.5 142l135 150q33 -32 63 -54.5t74 -44.5t102.5 -33.5
t130.5 -11.5q119 0 183.5 33t64.5 88q0 44 -34 70t-111 41l-264 41q-158 34 -231.5 115.5t-73.5 197.5q0 150 124 230.5t369 80.5q304 0 473 -186l-133 -148q-65 65 -147 97t-197 32q-129 0 -185.5 -26t-56.5 -78q0 -88 144 -117l272 -43q70 -15 121.5 -36.5t95.5 -56.5
t67 -90.5t23 -129.5z" />
    <glyph glyph-name="scommaaccent.sc" horiz-adv-x="1177" 
d="M772 608q70 -15 121.5 -36.5t95.5 -56.5t67 -90.5t23 -129.5q0 -162 -135.5 -244t-365.5 -82q-182 0 -302.5 53t-205.5 152l135 150q33 -32 63 -54.5t74 -44.5t102.5 -33.5t130.5 -11.5q119 0 183.5 33t64.5 88q0 44 -34 70t-111 41l-264 41q-158 34 -231.5 115.5
t-73.5 197.5q0 150 124 230.5t369 80.5q304 0 473 -186l-133 -148q-65 65 -147 97t-197 32q-129 0 -185.5 -26t-56.5 -78q0 -88 144 -117zM590 -84q95 0 152 -56t57 -159q0 -138 -97 -206t-262 -62l-16 129q227 -20 227 133q0 16 -2 24q-27 -45 -94 -45q-53 0 -84 29.5
t-31 81.5q0 60 37.5 95.5t112.5 35.5z" />
    <glyph glyph-name="t.sc" horiz-adv-x="1128" 
d="M1057 1044v-229h-361v-815h-264v815h-360v229h985z" />
    <glyph glyph-name="tbar.sc" horiz-adv-x="1128" 
d="M1057 815h-361v-180h299v-205h-299v-430h-264v430h-299v205h299v180h-360v229h985v-229z" />
    <glyph glyph-name="tcaron.sc" horiz-adv-x="1128" 
d="M664 1159h-199l-236 381l125 66l213 -269l207 262l127 -63zM1057 1044v-229h-361v-815h-264v815h-360v229h985z" />
    <glyph glyph-name="uni0163.sc" horiz-adv-x="1128" 
d="M696 0h-78l-16 -80q199 -22 199 -170q0 -88 -65.5 -127t-172.5 -39q-117 0 -164 21l17 123q52 -21 121 -21q98 0 98 47q0 27 -39.5 43t-132.5 23l31 180h-62v815h-360v229h985v-229h-361v-815z" />
    <glyph glyph-name="uni021B.sc" horiz-adv-x="1128" 
d="M72 1044h985v-229h-361v-815h-264v815h-360v229zM559 -84q95 0 152 -56t57 -159q0 -138 -96.5 -206t-261.5 -62l-17 129q228 -20 228 133q0 12 -3 24q-27 -45 -94 -45q-53 0 -83.5 29.5t-30.5 81.5q0 60 37 95.5t112 35.5z" />
    <glyph glyph-name="u.sc" horiz-adv-x="1284" 
d="M645 -31q-262 0 -395 128t-133 366l2 581h264v-575q0 -139 67.5 -201.5t194.5 -62.5q256 0 256 264v575h266v-581q0 -238 -130.5 -366t-391.5 -128z" />
    <glyph glyph-name="uacute.sc" horiz-adv-x="1284" 
d="M944 1493l-301 -338l-121 74l238 387zM645 -31q-262 0 -395 128t-133 366l2 581h264v-575q0 -139 67.5 -201.5t194.5 -62.5q256 0 256 264v575h266v-581q0 -238 -130.5 -366t-391.5 -128z" />
    <glyph glyph-name="ucircumflex.sc" horiz-adv-x="1284" 
d="M645 1425l-213 -266l-125 64l236 383h198l238 -377l-127 -66zM901 1044h266v-581q0 -238 -130.5 -366t-391.5 -128q-262 0 -395 128t-133 366l2 581h264v-575q0 -139 67.5 -201.5t194.5 -62.5q256 0 256 264v575z" />
    <glyph glyph-name="udieresis.sc" horiz-adv-x="1284" 
d="M422 1210q-141 0 -141 170q0 162 141 162q69 0 107 -40.5t38 -121.5q0 -85 -38 -127.5t-107 -42.5zM854 1210q-141 0 -141 170q0 162 141 162q143 0 143 -162q0 -85 -37 -127.5t-106 -42.5zM645 -31q-262 0 -395 128t-133 366l2 581h264v-575q0 -139 67.5 -201.5
t194.5 -62.5q256 0 256 264v575h266v-581q0 -238 -130.5 -366t-391.5 -128z" />
    <glyph glyph-name="ugrave.sc" horiz-adv-x="1284" 
d="M352 1493l187 123l235 -387l-119 -74zM645 -31q-262 0 -395 128t-133 366l2 581h264v-575q0 -139 67.5 -201.5t194.5 -62.5q256 0 256 264v575h266v-581q0 -238 -130.5 -366t-391.5 -128z" />
    <glyph glyph-name="uhungarumlaut.sc" horiz-adv-x="1284" 
d="M741 1561l-256 -402l-116 49l161 447zM1155 1450l-348 -315l-98 73l270 391zM645 -31q-262 0 -395 128t-133 366l2 581h264v-575q0 -139 67.5 -201.5t194.5 -62.5q256 0 256 264v575h266v-581q0 -238 -130.5 -366t-391.5 -128z" />
    <glyph glyph-name="umacron.sc" horiz-adv-x="1284" 
d="M999 1282h-714v203h714v-203zM645 -31q-262 0 -395 128t-133 366l2 581h264v-575q0 -139 67.5 -201.5t194.5 -62.5q256 0 256 264v575h266v-581q0 -238 -130.5 -366t-391.5 -128z" />
    <glyph glyph-name="uogonek.sc" horiz-adv-x="1284" 
d="M901 1044h266v-581q0 -370 -299 -463q-80 -39 -129 -87t-49 -97q0 -52 76 -52q58 0 115 19l10 -156q-73 -22 -182 -22q-205 0 -205 157q0 115 139 207q-261 0 -393.5 128t-132.5 366l2 581h264v-575q0 -139 67.5 -201.5t194.5 -62.5q256 0 256 264v575z" />
    <glyph glyph-name="uring.sc" horiz-adv-x="1284" 
d="M643 1169q-149 0 -228 56.5t-79 165.5v41q0 110 79 166.5t228 56.5q147 0 226 -57t79 -166v-41q0 -109 -78.5 -165.5t-226.5 -56.5zM643 1307q141 0 141 84v41q0 84 -141 84q-143 0 -143 -84v-41q0 -39 35.5 -61.5t107.5 -22.5zM645 -31q-262 0 -395 128t-133 366l2 581
h264v-575q0 -139 67.5 -201.5t194.5 -62.5q256 0 256 264v575h266v-581q0 -238 -130.5 -366t-391.5 -128z" />
    <glyph glyph-name="v.sc" horiz-adv-x="1306" 
d="M965 1047h284l-442 -1049h-326l-424 1049h283l305 -836z" />
    <glyph glyph-name="w.sc" horiz-adv-x="1728" 
d="M1393 1044h278l-307 -1044h-297l-205 733l-227 -733h-295l-285 1044h281l164 -755l217 737h295l202 -737z" />
    <glyph glyph-name="wacute.sc" horiz-adv-x="1728" 
d="M1167 1493l-301 -338l-121 74l238 387zM1393 1044h278l-307 -1044h-297l-205 733l-227 -733h-295l-285 1044h281l164 -755l217 737h295l202 -737z" />
    <glyph glyph-name="wcircumflex.sc" horiz-adv-x="1728" 
d="M868 1425l-213 -266l-125 64l236 383h199l237 -377l-127 -66zM1393 1044h278l-307 -1044h-297l-205 733l-227 -733h-295l-285 1044h281l164 -755l217 737h295l202 -737z" />
    <glyph glyph-name="wdieresis.sc" horiz-adv-x="1728" 
d="M645 1210q-141 0 -141 170q0 162 141 162q69 0 107.5 -40.5t38.5 -121.5q0 -84 -38.5 -127t-107.5 -43zM1077 1210q-141 0 -141 170q0 162 141 162q144 0 144 -162q0 -85 -37.5 -127.5t-106.5 -42.5zM1393 1044h278l-307 -1044h-297l-205 733l-227 -733h-295l-285 1044
h281l164 -755l217 737h295l202 -737z" />
    <glyph glyph-name="wgrave.sc" horiz-adv-x="1728" 
d="M997 1229l-118 -74l-304 338l187 123zM1393 1044h278l-307 -1044h-297l-205 733l-227 -733h-295l-285 1044h281l164 -755l217 737h295l202 -737z" />
    <glyph glyph-name="x.sc" horiz-adv-x="1218" 
d="M1184 0h-307l-277 381l-264 -381h-297l383 522l-381 522h307l273 -393l264 393h297l-381 -526z" />
    <glyph glyph-name="y.sc" horiz-adv-x="1251" 
d="M1221 1044l-457 -706v-338h-266v334l-467 710h297l307 -493l291 493h295z" />
    <glyph glyph-name="yacute.sc" horiz-adv-x="1251" 
d="M928 1493l-301 -338l-121 74l237 387zM1221 1044l-457 -706v-338h-266v334l-467 710h297l307 -493l291 493h295z" />
    <glyph glyph-name="ycircumflex.sc" horiz-adv-x="1251" 
d="M629 1425l-213 -266l-125 64l235 383h199l238 -377l-127 -66zM1221 1044l-457 -706v-338h-266v334l-467 710h297l307 -493l291 493h295z" />
    <glyph glyph-name="ydieresis.sc" horiz-adv-x="1251" 
d="M406 1210q-142 0 -142 170q0 162 142 162q69 0 107 -40.5t38 -121.5q0 -85 -38 -127.5t-107 -42.5zM838 1210q-142 0 -142 170q0 162 142 162q143 0 143 -162q0 -85 -37 -127.5t-106 -42.5zM1221 1044l-457 -706v-338h-266v334l-467 710h297l307 -493l291 493h295z" />
    <glyph glyph-name="ygrave.sc" horiz-adv-x="1251" 
d="M758 1229l-119 -74l-303 338l186 123zM1221 1044l-457 -706v-338h-266v334l-467 710h297l307 -493l291 493h295z" />
    <glyph glyph-name="z.sc" horiz-adv-x="1112" 
d="M453 231h602v-231h-946v211l575 606h-606v230h954l-2 -209z" />
    <glyph glyph-name="zacute.sc" horiz-adv-x="1112" 
d="M827 1495l-301 -338l-120 74l237 387zM453 231h602v-231h-946v211l575 606h-606v230h954l-2 -209z" />
    <glyph glyph-name="zcaron.sc" horiz-adv-x="1112" 
d="M625 1161h-199l-236 381l125 66l213 -269l207 263l127 -64zM453 231h602v-231h-946v211l575 606h-606v230h954l-2 -209z" />
    <glyph glyph-name="zdotaccent.sc" horiz-adv-x="1112" 
d="M524 1223q-141 0 -141 170q0 161 141 161q70 0 108 -40t38 -121q0 -84 -38.5 -127t-107.5 -43zM453 231h602v-231h-946v211l575 606h-606v230h954l-2 -209z" />
    <glyph glyph-name="zero.osf" horiz-adv-x="1329" 
d="M662 -33q-286 0 -428 129.5t-142 372.5v111q0 239 142.5 368t427.5 129q288 0 432.5 -129t144.5 -368v-111q0 -243 -144 -372.5t-433 -129.5zM662 211q309 0 309 256v115q0 252 -309 252q-146 0 -225 -63t-79 -189v-115q0 -129 79 -192.5t225 -63.5z" />
    <glyph glyph-name="one.osf" horiz-adv-x="716" 
d="M326 1047h221v-1047h-262v801l-193 -86l-67 200z" />
    <glyph glyph-name="two.osf" horiz-adv-x="1191" 
d="M528 225h598v-225h-993v213l420 215q123 75 180.5 139t57.5 135q0 134 -197 134q-116 0 -213 -43.5t-154 -133.5l-155 140q82 137 222.5 207.5t332.5 70.5q100 0 176.5 -16.5t136 -53.5t90.5 -101.5t31 -155.5q0 -72 -24 -135t-62 -110t-100 -92t-122 -77.5t-145 -71.5z
" />
    <glyph glyph-name="three.osf" horiz-adv-x="1210" 
d="M891 414q116 -30 179 -108t63 -204q0 -184 -133.5 -291.5t-391.5 -107.5q-215 0 -346.5 73.5t-208.5 217.5l189 153q61 -105 141.5 -152.5t216.5 -47.5q133 0 199.5 46t66.5 130q0 95 -67.5 134.5t-200.5 39.5h-227v201h233q221 0 221 184q0 152 -211 152
q-125 0 -213 -47t-153 -146l-189 127q92 157 231 233t357 76q211 0 328 -83t117 -259q0 -118 -52.5 -201t-148.5 -120z" />
    <glyph glyph-name="four.osf" horiz-adv-x="1208" 
d="M1178 223v-223h-160v-244h-262v244h-711l2 203l424 841h299l-430 -821h416v297h262v-297h160z" />
    <glyph glyph-name="five.osf" horiz-adv-x="1173" 
d="M690 524q214 0 315 -91.5t101 -278.5q0 -208 -138.5 -325.5t-412.5 -117.5q-173 0 -293.5 67t-195.5 212l172 137q54 -85 128.5 -128.5t196.5 -43.5q136 0 206.5 49t70.5 143q0 96 -57 132t-189 36h-436v729h880v-243h-637v-277h289z" />
    <glyph glyph-name="six.osf" horiz-adv-x="1271" 
d="M743 825q453 0 453 -391q0 -235 -144.5 -351t-398.5 -116q-284 0 -423.5 147t-139.5 427v286q0 281 144 429.5t436 148.5q191 0 315 -72.5t193 -238.5l-201 -136q-37 104 -111.5 152.5t-195.5 48.5q-153 0 -234.5 -73t-81.5 -234q0 -113 2 -168q102 141 387 141zM657 213
q135 0 206 55t71 158q0 95 -66 142.5t-209 47.5q-129 0 -204.5 -49t-75.5 -139q0 -41 14.5 -77.5t45 -68.5t86.5 -50.5t132 -18.5z" />
    <glyph glyph-name="seven.osf" horiz-adv-x="1081" 
d="M14 1044h1012l-2 -210l-522 -1110h-316l533 1077h-705v243z" />
    <glyph glyph-name="eight.osf" horiz-adv-x="1329" 
d="M997 707q250 -69 250 -340q0 -398 -583 -398q-582 0 -582 398q0 271 250 340q-221 68 -221 313q0 191 140 287t413 96t413 -96t140 -287q0 -243 -220 -313zM664 1159q-157 0 -224 -45t-67 -139q0 -90 66.5 -135t224.5 -45t225 45t67 135q0 94 -67.5 139t-224.5 45z
M664 213q169 0 245 50t76 147q0 93 -74 138.5t-247 45.5t-247.5 -45.5t-74.5 -138.5q0 -97 76.5 -147t245.5 -50z" />
    <glyph glyph-name="nine.osf" horiz-adv-x="1269" 
d="M610 1077q574 0 574 -588v-229q0 -573 -586 -573q-202 0 -331 66t-212 212l185 154q43 -91 132 -140t216 -49q330 0 330 306q0 68 -3 129q-106 -134 -391 -134q-229 0 -338.5 101t-109.5 305q0 220 143.5 330t390.5 110zM608 438q131 0 208 49.5t77 141.5
q0 83 -68.5 142.5t-212.5 59.5q-135 0 -205.5 -50.5t-70.5 -147.5q0 -195 272 -195z" />
    <glyph glyph-name="uni0308.case" 
d="M-614 1110q-70 0 -107 43t-37 127q0 164 144 164q68 0 105.5 -41.5t37.5 -122.5q0 -83 -38 -126.5t-105 -43.5zM-178 1110q-67 0 -104 43.5t-37 126.5q0 82 37 123t104 41q145 0 145 -164q0 -84 -37.5 -127t-107.5 -43z" />
    <glyph glyph-name="uni0307.case" 
d="M-182 1126q-142 0 -142 170q0 164 142 164q69 0 107 -41t38 -123q0 -85 -38 -127.5t-107 -42.5z" />
    <glyph glyph-name="gravecomb.case" 
d="M-451 1397l187 123l235 -387l-118 -74z" />
    <glyph glyph-name="acutecomb.case" 
d="M-14 1397l-301 -338l-121 74l237 387z" />
    <glyph glyph-name="uni030B.case" 
d="M-434 1464l-256 -401l-117 49l162 447zM-20 1354l-349 -316l-98 74l270 391z" />
    <glyph glyph-name="uni0302.case" 
d="M-27 1133l-127 -66l-206 262l-213 -266l-125 63l235 383h199z" />
    <glyph glyph-name="uni030C.case" 
d="M-154 1503l127 -63l-237 -377h-199l-235 381l125 65l213 -268z" />
    <glyph glyph-name="uni0306.case" 
d="M-373 1055q-179 0 -265 106t-81 307h213q-6 -235 133 -235q71 0 102 59t29 176h211q9 -413 -342 -413z" />
    <glyph glyph-name="uni030A.case" 
d="M-338 1063q-311 0 -311 225v33q0 227 311 227t311 -227v-33q0 -225 -311 -225zM-338 1200q148 0 148 94v23q0 92 -148 92q-147 0 -147 -92v-23q0 -94 147 -94z" />
    <glyph glyph-name="tildecomb.case" 
d="M-725 1063q-14 207 42.5 306t164.5 99q37 0 69 -17t50.5 -36t50.5 -59q3 -4 10.5 -14.5t10.5 -15t9 -12.5t10 -11.5t10 -9t10.5 -7.5t11 -4t12.5 -2q32 0 46.5 48.5t4.5 137.5h176q14 -203 -45 -304t-166 -101q-30 0 -54.5 8t-46 27.5t-33 32t-32.5 40.5q-5 7 -13.5 18.5
t-13 16.5t-11.5 13.5t-11.5 12t-10.5 8t-11.5 6t-12.5 1.5q-32 0 -45.5 -47t-5.5 -135h-176z" />
    <glyph glyph-name="uni0304.case" 
d="M-55 1186h-715v203h715v-203z" />
    <glyph glyph-name="uni0312.case" 
 />
    <glyph glyph-name="uni0326.case" 
d="M-215 -86q95 0 152 -56t57 -159q0 -138 -97 -206t-262 -62l-16 129q227 -20 227 133q0 16 -2 24q-27 -45 -94 -45q-53 0 -84 29.5t-31 81.5q0 60 37.5 95.5t112.5 35.5z" />
    <glyph glyph-name="uni0327.case" 
d="M-223 -80q99 -9 149.5 -49t50.5 -119q0 -91 -68.5 -132.5t-176.5 -41.5t-160 23l20 127q59 -19 113 -19q107 0 107 49q0 54 -179 62l31 205h133z" />
    <glyph glyph-name="uni0328.case" 
d="M-231 -410q-106 0 -155.5 39.5t-49.5 120.5q0 99 93 180t224 113l94 -35q-96 -33 -160.5 -91.5t-64.5 -115.5q0 -53 78 -53q66 0 113 21l10 -156q-77 -23 -182 -23z" />
    <glyph glyph-name="caron.alt" horiz-adv-x="317" 
d="M276 1483l-98 -525l-145 15l20 538z" />
    </font>
</defs>
</svg>
